<svg width="400" height="100" viewBox="0 0 400 100" fill="none" xmlns="http://www.w3.org/2000/svg">
<rect width="400" height="100" rx="25" fill="#077857"/>
<g clip-path="url(#clip0_10_2524)">
<path d="M72.8882 54.6917C70.5872 44.3041 80.7543 38.7552 81.4963 38.3667C79.9372 36.5184 78.1264 35.1213 76.2979 34.1089C70.2206 30.7418 62.8183 30.4279 58.4149 32.1506C58.3707 32.1663 58.3265 32.186 58.2824 32.2016C53.985 33.8695 49.1002 33.8695 44.8028 32.2016C44.7586 32.186 44.7144 32.1663 44.6703 32.1506C40.2669 30.4279 32.8646 30.7418 26.7873 34.1089C20.71 37.4759 14.8049 45.0694 17.7994 59.6285C20.7939 74.1876 31.7207 83.0329 31.7207 83.0329C31.7207 83.0329 36.9191 87.0239 43.7914 84.3632C48.0843 82.6993 50.0409 82.4129 50.9022 82.4325C51.3306 82.4403 51.759 82.4403 52.183 82.4325C53.0442 82.4129 55.0008 82.7033 59.2938 84.3632C66.1661 87.0239 71.3645 83.0329 71.3645 83.0329C71.3645 83.0329 79.0185 76.8325 83.2718 66.2723C79.6192 64.7732 74.3943 61.4886 72.8882 54.6917Z" fill="#B5FCE7"/>
<path d="M49.6125 31.6013C49.6125 31.6013 47.6868 17.0932 66.0866 14.4954L66.0115 16.4418C65.7068 24.4748 58.6357 31.0127 49.6125 31.6013Z" fill="#B5FCE7"/>
<path d="M123.079 18.9809C123.079 20.7703 122.827 22.344 122.319 23.7136C121.811 25.0792 121.065 26.2212 120.08 27.1434C119.091 28.0656 117.872 28.7602 116.423 29.235C114.974 29.7059 113.239 29.9414 111.229 29.9414H106.508C106.287 29.9414 106.057 29.8668 105.823 29.7177C105.589 29.5686 105.47 29.2978 105.47 28.9015V9.68032C105.47 9.28396 105.589 9.01319 105.823 8.86407C106.057 8.71494 106.287 8.64038 106.508 8.64038H111.547C113.583 8.64038 115.306 8.88761 116.706 9.38207C118.106 9.87653 119.281 10.5751 120.226 11.4816C121.171 12.3881 121.882 13.4712 122.364 14.7387C122.845 16.0063 123.088 17.419 123.088 18.9769L123.079 18.9809ZM120.654 19.079C120.654 17.8389 120.478 16.6891 120.129 15.6335C119.775 14.5739 119.232 13.6635 118.499 12.8943C117.766 12.1251 116.834 11.5247 115.712 11.0931C114.59 10.6614 113.155 10.4416 111.415 10.4416H107.731V28.148H111.437C113.066 28.148 114.444 27.9714 115.575 27.6143C116.706 27.2572 117.647 26.7078 118.397 25.9622C119.153 25.2166 119.714 24.2747 120.093 23.1406C120.473 22.0065 120.659 20.6526 120.659 19.0829L120.654 19.079Z" fill="#B5FCE7"/>
<path d="M142.914 22.0065C142.914 23.1916 142.742 24.2826 142.397 25.2794C142.053 26.2761 141.536 27.1434 140.852 27.8812C140.167 28.615 139.31 29.1879 138.286 29.6C137.261 30.012 136.068 30.2161 134.712 30.2161C133.357 30.2161 132.257 30.0317 131.276 29.6667C130.296 29.2978 129.474 28.772 128.812 28.0852C128.149 27.3985 127.659 26.5704 127.332 25.5933C127.005 24.6161 126.842 23.5134 126.842 22.2851C126.842 21.0568 127.01 20.009 127.35 19.0123C127.69 18.0155 128.202 17.1482 128.887 16.4222C129.572 15.6923 130.428 15.1233 131.453 14.7191C132.478 14.3149 133.675 14.1108 135.044 14.1108C136.413 14.1108 137.499 14.2914 138.48 14.6524C139.46 15.0134 140.277 15.5393 140.936 16.2221C141.589 16.9089 142.084 17.7369 142.415 18.714C142.746 19.6912 142.914 20.786 142.914 22.0065ZM140.578 22.187C140.578 21.3433 140.485 20.5349 140.3 19.7697C140.114 19.0005 139.805 18.3255 139.372 17.7369C138.939 17.1482 138.361 16.6852 137.632 16.3398C136.903 15.9945 135.998 15.8218 134.911 15.8218C133.913 15.8218 133.047 15.9827 132.319 16.3006C131.59 16.6185 130.994 17.0619 130.53 17.627C130.066 18.1921 129.726 18.8592 129.501 19.6245C129.276 20.3897 129.17 21.2216 129.17 22.1085C129.17 22.9954 129.262 23.7803 129.448 24.5534C129.633 25.3264 129.943 26.0053 130.375 26.5861C130.808 27.1669 131.387 27.63 132.116 27.9675C132.844 28.3089 133.75 28.4776 134.836 28.4776C135.834 28.4776 136.7 28.3167 137.429 27.9989C138.157 27.681 138.754 27.2415 139.217 26.6842C139.681 26.127 140.021 25.4599 140.247 24.6946C140.467 23.9255 140.578 23.0935 140.578 22.1949V22.187Z" fill="#B5FCE7"/>
<path d="M169.913 14.6837C169.913 14.7386 169.904 14.8014 169.887 14.872C169.869 14.9427 169.847 15.0211 169.82 15.1114L164.635 29.6077C164.609 29.694 164.565 29.7686 164.498 29.8235C164.432 29.8785 164.339 29.9216 164.229 29.957C164.119 29.9923 163.973 30.0119 163.792 30.0237C163.611 30.0355 163.399 30.0394 163.151 30.0394C162.891 30.0394 162.67 30.0315 162.484 30.0158C162.299 30.0001 162.149 29.9766 162.029 29.9413C161.91 29.9099 161.817 29.8628 161.751 29.8078C161.685 29.7529 161.636 29.6862 161.614 29.6116L157.723 17.8623L157.688 17.7289L157.653 17.8623L154.022 29.6116C153.996 29.698 153.947 29.7725 153.872 29.8275C153.797 29.8824 153.695 29.9256 153.567 29.9609C153.439 29.9923 153.28 30.0158 153.095 30.0276C152.909 30.0394 152.701 30.0433 152.463 30.0433C152.216 30.0433 152.008 30.0355 151.831 30.0198C151.659 30.0041 151.513 29.9805 151.394 29.9452C151.275 29.9138 151.187 29.8667 151.125 29.8118C151.063 29.7568 151.019 29.6901 150.997 29.6156L145.847 15.1192C145.812 15.0408 145.781 14.9662 145.763 14.8877C145.745 14.8092 145.736 14.7464 145.736 14.6915C145.736 14.613 145.754 14.5502 145.794 14.4953C145.829 14.4403 145.891 14.4011 145.979 14.3736C146.068 14.3462 146.178 14.3265 146.311 14.3148C146.448 14.303 146.611 14.2991 146.81 14.2991C147.07 14.2991 147.278 14.3069 147.441 14.3226C147.605 14.3383 147.724 14.3619 147.803 14.3972C147.883 14.4286 147.94 14.4757 147.98 14.5306C148.015 14.5855 148.046 14.6523 148.073 14.7268L152.498 27.728L152.534 27.8418L152.569 27.728L156.588 14.7268C156.615 14.6483 156.646 14.5855 156.69 14.5306C156.734 14.4757 156.796 14.4325 156.875 14.3972C156.955 14.3658 157.065 14.3383 157.206 14.3226C157.348 14.3069 157.529 14.2991 157.754 14.2991C157.966 14.2991 158.138 14.3069 158.271 14.3226C158.403 14.3383 158.518 14.3619 158.602 14.3972C158.69 14.4286 158.752 14.4757 158.788 14.5306C158.823 14.5855 158.854 14.6523 158.88 14.7268L163.213 27.728L163.248 27.8418L163.266 27.728L167.674 14.7268C167.7 14.6483 167.731 14.5855 167.776 14.5306C167.82 14.4757 167.882 14.4325 167.97 14.3972C168.058 14.3658 168.177 14.3383 168.332 14.3226C168.487 14.3069 168.685 14.2991 168.933 14.2991C169.131 14.2991 169.29 14.303 169.414 14.3148C169.538 14.3265 169.635 14.3462 169.71 14.3815C169.785 14.4129 169.834 14.456 169.86 14.5031C169.887 14.5502 169.895 14.6169 169.895 14.6915L169.913 14.6837Z" fill="#B5FCE7"/>
<path d="M187.77 29.6078C187.77 29.6745 187.752 29.7334 187.712 29.7884C187.677 29.8433 187.615 29.8865 187.536 29.9218C187.456 29.9532 187.346 29.9806 187.204 30.0042C187.063 30.0277 186.886 30.0356 186.679 30.0356C186.458 30.0356 186.272 30.0238 186.131 30.0042C185.99 29.9846 185.879 29.9532 185.8 29.9218C185.72 29.8904 185.663 29.8433 185.623 29.7884C185.588 29.7334 185.566 29.6745 185.566 29.6078V20.7703C185.566 19.8481 185.486 19.0986 185.323 18.5257C185.164 17.9488 184.921 17.4543 184.598 17.0462C184.276 16.6381 183.865 16.3163 183.366 16.0926C182.867 15.8689 182.284 15.7551 181.617 15.7551C180.765 15.7551 179.912 16.022 179.06 16.5596C178.208 17.0972 177.311 17.886 176.375 18.9299V29.6078C176.375 29.6745 176.357 29.7334 176.317 29.7884C176.282 29.8433 176.22 29.8865 176.141 29.9218C176.061 29.9532 175.951 29.9806 175.809 30.0042C175.668 30.0277 175.487 30.0356 175.262 30.0356C175.05 30.0356 174.877 30.0238 174.736 30.0042C174.595 29.9846 174.48 29.9532 174.392 29.9218C174.303 29.8904 174.246 29.8433 174.215 29.7884C174.184 29.7334 174.171 29.6745 174.171 29.6078V14.7191C174.171 14.6524 174.184 14.5935 174.215 14.5386C174.246 14.4836 174.303 14.4366 174.392 14.3973C174.48 14.3581 174.586 14.3306 174.714 14.3149C174.842 14.2992 175.014 14.2914 175.222 14.2914C175.43 14.2914 175.606 14.2992 175.739 14.3149C175.876 14.3306 175.982 14.3581 176.052 14.3973C176.123 14.4366 176.18 14.4836 176.211 14.5386C176.242 14.5935 176.255 14.6524 176.255 14.7191V16.8264C177.218 15.8728 178.163 15.1822 179.091 14.7544C180.018 14.3267 180.937 14.1108 181.851 14.1108C182.951 14.1108 183.874 14.2757 184.629 14.6053C185.385 14.9349 185.99 15.3784 186.453 15.9396C186.917 16.5007 187.248 17.1522 187.452 17.8978C187.655 18.6434 187.756 19.542 187.756 20.5977V29.6157L187.77 29.6078Z" fill="#B5FCE7"/>
<path d="M196.082 29.6078C196.082 29.6745 196.064 29.7334 196.024 29.7883C195.985 29.8433 195.927 29.8864 195.848 29.9217C195.768 29.9531 195.658 29.9806 195.516 30.0042C195.375 30.0277 195.194 30.0355 194.969 30.0355C194.757 30.0355 194.584 30.0238 194.439 30.0042C194.293 29.9845 194.183 29.9531 194.094 29.9217C194.006 29.8904 193.948 29.8433 193.918 29.7883C193.887 29.7334 193.873 29.6745 193.873 29.6078V7.42775C193.873 7.36103 193.887 7.30217 193.918 7.24723C193.948 7.19229 194.006 7.1452 194.094 7.10596C194.183 7.06671 194.293 7.03924 194.439 7.02355C194.58 7.00785 194.757 7 194.969 7C195.19 7 195.375 7.00785 195.516 7.02355C195.658 7.03924 195.768 7.06671 195.848 7.10596C195.927 7.1452 195.985 7.19229 196.024 7.24723C196.06 7.30217 196.082 7.36103 196.082 7.42775V29.6078Z" fill="#B5FCE7"/>
<path d="M217.083 22.0065C217.083 23.1916 216.911 24.2826 216.566 25.2794C216.222 26.2761 215.705 27.1434 215.02 27.8812C214.336 28.615 213.479 29.1879 212.454 29.6C211.43 30.012 210.237 30.2161 208.881 30.2161C207.525 30.2161 206.426 30.0317 205.445 29.6667C204.465 29.2978 203.643 28.772 202.981 28.0852C202.318 27.3985 201.828 26.5704 201.501 25.5933C201.174 24.6161 201.011 23.5134 201.011 22.2851C201.011 21.0568 201.179 20.009 201.519 19.0123C201.859 18.0155 202.371 17.1482 203.056 16.4222C203.74 15.6963 204.597 15.1233 205.622 14.7191C206.646 14.3149 207.843 14.1108 209.212 14.1108C210.582 14.1108 211.668 14.2914 212.649 14.6524C213.629 15.0134 214.446 15.5393 215.104 16.2221C215.758 16.9089 216.253 17.7369 216.584 18.714C216.915 19.6912 217.083 20.786 217.083 22.0065ZM214.751 22.187C214.751 21.3433 214.658 20.5349 214.473 19.7697C214.287 19.0044 213.978 18.3255 213.545 17.7369C213.112 17.1482 212.534 16.6852 211.805 16.3398C211.076 15.9945 210.171 15.8218 209.084 15.8218C208.086 15.8218 207.221 15.9827 206.492 16.3006C205.763 16.6185 205.167 17.0619 204.703 17.627C204.239 18.1921 203.899 18.8592 203.674 19.6245C203.449 20.3897 203.343 21.2216 203.343 22.1085C203.343 22.9954 203.435 23.7803 203.621 24.5534C203.806 25.3264 204.116 26.0053 204.548 26.5861C204.981 27.1669 205.56 27.63 206.289 27.9675C207.017 28.3089 207.923 28.4776 209.009 28.4776C210.007 28.4776 210.873 28.3167 211.602 27.9989C212.331 27.681 212.927 27.2415 213.391 26.6842C213.854 26.1231 214.194 25.4599 214.42 24.6946C214.641 23.9255 214.751 23.0935 214.751 22.1949V22.187Z" fill="#B5FCE7"/>
<path d="M233.769 29.6079C233.769 29.7178 233.729 29.8041 233.65 29.863C233.57 29.9218 233.464 29.9689 233.336 29.9964C233.208 30.0238 233.031 30.0356 232.811 30.0356C232.599 30.0356 232.422 30.0238 232.272 29.9964C232.122 29.9689 232.011 29.9257 231.927 29.863C231.848 29.8041 231.808 29.7178 231.808 29.6079V27.944C231.053 28.67 230.222 29.2272 229.317 29.6236C228.412 30.0199 227.466 30.2161 226.495 30.2161C225.62 30.2161 224.83 30.1141 224.132 29.91C223.434 29.706 222.847 29.4156 222.365 29.0389C221.884 28.6621 221.513 28.203 221.252 27.6654C220.992 27.1277 220.864 26.5234 220.864 25.8563C220.864 25.0322 221.053 24.3179 221.438 23.7097C221.822 23.1014 222.365 22.5952 223.067 22.1871C223.77 21.7829 224.618 21.4768 225.603 21.2727C226.592 21.0686 227.687 20.9666 228.897 20.9666H231.565V19.6834C231.565 19.0476 231.49 18.4865 231.344 17.9959C231.194 17.5093 230.956 17.0973 230.62 16.7715C230.289 16.4419 229.856 16.1947 229.321 16.0299C228.787 15.865 228.142 15.7826 227.378 15.7826C226.614 15.7826 225.969 15.8611 225.377 16.022C224.786 16.1829 224.264 16.3595 223.823 16.5557C223.377 16.7519 223.01 16.9324 222.719 17.0894C222.427 17.2503 222.219 17.3288 222.1 17.3288C222.025 17.3288 221.959 17.317 221.897 17.2974C221.835 17.2778 221.782 17.2346 221.738 17.1757C221.694 17.1169 221.663 17.0384 221.645 16.9442C221.628 16.85 221.619 16.7401 221.619 16.6067C221.619 16.3752 221.636 16.1907 221.676 16.0573C221.716 15.9239 221.809 15.7826 221.963 15.6453C222.118 15.5079 222.392 15.347 222.789 15.1587C223.187 14.9703 223.637 14.7976 224.15 14.6407C224.662 14.4798 225.214 14.3542 225.806 14.2521C226.398 14.1501 226.989 14.103 227.586 14.103C228.734 14.103 229.701 14.2247 230.492 14.4719C231.282 14.7191 231.923 15.0723 232.409 15.5315C232.894 15.9906 233.243 16.5596 233.455 17.2346C233.667 17.9096 233.769 18.6748 233.769 19.5303V29.6V29.6079ZM231.565 22.5834H228.509C227.621 22.5834 226.844 22.654 226.177 22.7992C225.51 22.9444 224.953 23.1485 224.512 23.4232C224.066 23.6979 223.739 24.0275 223.522 24.4121C223.306 24.7967 223.2 25.2362 223.2 25.7268C223.2 26.5823 223.505 27.2651 224.119 27.7752C224.728 28.2854 225.589 28.5405 226.702 28.5405C227.577 28.5405 228.398 28.3403 229.158 27.9401C229.918 27.5398 230.721 26.9237 231.574 26.0878V22.5834H231.565Z" fill="#B5FCE7"/>
<path d="M253.401 29.6079C253.401 29.6864 253.388 29.7492 253.357 29.8041C253.326 29.8591 253.268 29.9022 253.189 29.9376C253.109 29.9729 253.008 29.9964 252.884 30.0121C252.76 30.0278 252.606 30.0357 252.42 30.0357C252.222 30.0357 252.058 30.0278 251.93 30.0121C251.802 29.9964 251.696 29.9729 251.617 29.9376C251.537 29.9022 251.475 29.8591 251.431 29.8041C251.387 29.7492 251.365 29.6825 251.365 29.6079V27.4692C250.477 28.3247 249.554 28.9957 248.604 29.4863C247.655 29.9729 246.617 30.2201 245.495 30.2201C244.285 30.2201 243.256 30.0121 242.403 29.5961C241.551 29.1802 240.858 28.6151 240.319 27.9008C239.78 27.1866 239.391 26.3508 239.144 25.3932C238.897 24.4357 238.773 23.4154 238.773 22.3401C238.773 21.0804 238.928 19.9385 239.237 18.926C239.546 17.9096 240.001 17.0463 240.606 16.336C241.211 15.6218 241.957 15.0763 242.845 14.6917C243.733 14.3071 244.766 14.1148 245.937 14.1148C246.948 14.1148 247.876 14.315 248.715 14.7153C249.554 15.1155 250.38 15.7042 251.197 16.4851V7.51027C251.197 7.44355 251.21 7.38469 251.241 7.32975C251.272 7.27481 251.329 7.23164 251.418 7.19632C251.506 7.16493 251.617 7.13746 251.762 7.11391C251.904 7.09037 252.08 7.08252 252.292 7.08252C252.513 7.08252 252.699 7.09429 252.84 7.11391C252.981 7.13354 253.092 7.16493 253.171 7.19632C253.251 7.22772 253.308 7.27481 253.348 7.32975C253.383 7.38469 253.405 7.44355 253.405 7.51027V29.6079H253.401ZM251.197 18.8632C250.269 17.8665 249.377 17.1012 248.52 16.5754C247.664 16.0495 246.763 15.7866 245.826 15.7866C244.974 15.7866 244.245 15.9671 243.64 16.3281C243.035 16.6892 242.54 17.1679 242.161 17.7605C241.776 18.3531 241.498 19.0202 241.326 19.7697C241.154 20.5153 241.065 21.2727 241.065 22.0419C241.065 22.866 241.14 23.6665 241.286 24.4436C241.436 25.2206 241.688 25.9152 242.046 26.5234C242.403 27.1317 242.88 27.6222 243.472 27.9872C244.064 28.3561 244.806 28.5366 245.694 28.5366C246.14 28.5366 246.568 28.4816 246.992 28.3718C247.412 28.2619 247.845 28.0814 248.291 27.8302C248.737 27.5791 249.196 27.2533 249.669 26.8531C250.146 26.4528 250.654 25.9544 251.197 25.3658V18.8671V18.8632Z" fill="#B5FCE7"/>
<path d="M282.997 22.0065C282.997 23.1916 282.825 24.2826 282.48 25.2794C282.136 26.2761 281.619 27.1434 280.934 27.8812C280.25 28.615 279.393 29.1879 278.368 29.6C277.344 30.012 276.151 30.2161 274.795 30.2161C273.439 30.2161 272.34 30.0317 271.359 29.6667C270.379 29.3017 269.557 28.772 268.895 28.0852C268.232 27.3985 267.742 26.5704 267.415 25.5933C267.088 24.6161 266.925 23.5134 266.925 22.2851C266.925 21.0568 267.093 20.009 267.433 19.0123C267.773 18.0155 268.285 17.1482 268.97 16.4222C269.654 15.6923 270.511 15.1233 271.536 14.7191C272.56 14.3149 273.757 14.1108 275.127 14.1108C276.496 14.1108 277.582 14.2914 278.563 14.6524C279.543 15.0134 280.36 15.5393 281.018 16.2221C281.672 16.9089 282.167 17.7369 282.498 18.714C282.829 19.6912 282.997 20.786 282.997 22.0065ZM280.665 22.187C280.665 21.3433 280.572 20.5349 280.387 19.7697C280.201 19.0044 279.892 18.3255 279.459 17.7369C279.026 17.1482 278.448 16.6852 277.719 16.3398C276.99 15.9945 276.085 15.8218 274.998 15.8218C274 15.8218 273.135 15.9827 272.406 16.3006C271.677 16.6185 271.081 17.0619 270.617 17.627C270.153 18.1921 269.813 18.8592 269.588 19.6245C269.367 20.3936 269.257 21.2216 269.257 22.1085C269.257 22.9954 269.35 23.7803 269.535 24.5534C269.721 25.3264 270.03 26.0053 270.463 26.5861C270.895 27.1669 271.474 27.63 272.203 27.9675C272.931 28.305 273.837 28.4776 274.923 28.4776C275.922 28.4776 276.787 28.3167 277.516 27.9989C278.245 27.681 278.841 27.2415 279.305 26.6842C279.768 26.127 280.108 25.4599 280.334 24.6946C280.555 23.9255 280.665 23.0935 280.665 22.1949V22.187Z" fill="#B5FCE7"/>
<path d="M301.534 29.6078C301.534 29.6745 301.516 29.7334 301.476 29.7884C301.441 29.8433 301.379 29.8865 301.3 29.9218C301.22 29.9532 301.11 29.9806 300.968 30.0042C300.827 30.0277 300.65 30.0356 300.443 30.0356C300.222 30.0356 300.036 30.0238 299.895 30.0042C299.754 29.9846 299.643 29.9532 299.564 29.9218C299.484 29.8904 299.427 29.8433 299.387 29.7884C299.352 29.7334 299.33 29.6745 299.33 29.6078V20.7703C299.33 19.8481 299.25 19.0986 299.087 18.5257C298.928 17.9488 298.685 17.4543 298.363 17.0462C298.04 16.6381 297.629 16.3163 297.13 16.0926C296.631 15.8689 296.048 15.7551 295.381 15.7551C294.529 15.7551 293.676 16.022 292.824 16.5596C291.972 17.0972 291.075 17.886 290.139 18.9299V29.6078C290.139 29.6745 290.121 29.7334 290.081 29.7884C290.046 29.8433 289.984 29.8865 289.905 29.9218C289.825 29.9532 289.715 29.9806 289.573 30.0042C289.432 30.0277 289.251 30.0356 289.026 30.0356C288.814 30.0356 288.641 30.0238 288.5 30.0042C288.359 29.9806 288.244 29.9532 288.156 29.9218C288.067 29.8904 288.01 29.8433 287.979 29.7884C287.948 29.7334 287.935 29.6745 287.935 29.6078V14.7191C287.935 14.6524 287.948 14.5935 287.979 14.5386C288.01 14.4836 288.067 14.4366 288.156 14.3973C288.244 14.3581 288.35 14.3306 288.478 14.3149C288.606 14.2992 288.778 14.2914 288.986 14.2914C289.194 14.2914 289.37 14.2992 289.503 14.3149C289.635 14.3306 289.746 14.3581 289.816 14.3973C289.887 14.4366 289.944 14.4836 289.975 14.5386C290.006 14.5935 290.019 14.6524 290.019 14.7191V16.8264C290.982 15.8728 291.927 15.1822 292.855 14.7544C293.782 14.3267 294.701 14.1108 295.615 14.1108C296.715 14.1108 297.638 14.2757 298.393 14.6053C299.149 14.9349 299.754 15.3784 300.218 15.9396C300.681 16.5007 301.013 17.1522 301.216 17.8978C301.419 18.6434 301.52 19.542 301.52 20.5977V29.6157L301.534 29.6078Z" fill="#B5FCE7"/>
<path d="M324.297 28.7209C324.297 28.9525 324.275 29.1369 324.231 29.2821C324.187 29.4234 324.12 29.5372 324.028 29.6196C323.935 29.702 323.798 29.7805 323.621 29.8511C323.445 29.9218 323.237 29.9845 323.003 30.0316C322.769 30.0787 322.521 30.118 322.261 30.1454C322 30.1729 321.749 30.1847 321.501 30.1847C320.675 30.1847 319.969 30.0866 319.39 29.8904C318.811 29.6941 318.334 29.3959 317.963 28.9917C317.592 28.5914 317.323 28.0852 317.16 27.4691C316.992 26.853 316.908 26.1309 316.908 25.2989V16.0337H314.408C314.236 16.0337 314.099 15.967 314.002 15.8296C313.905 15.6923 313.852 15.4882 313.852 15.2135C313.852 15.0723 313.865 14.9467 313.887 14.8446C313.913 14.7387 313.949 14.6524 313.997 14.5817C314.046 14.5111 314.103 14.4601 314.174 14.4248C314.24 14.3934 314.32 14.3737 314.404 14.3737H316.903V10.7202C316.903 10.6535 316.917 10.5947 316.948 10.5397C316.979 10.4848 317.036 10.4377 317.124 10.3984C317.213 10.3592 317.323 10.3317 317.469 10.316C317.61 10.3003 317.787 10.2925 317.994 10.2925C318.215 10.2925 318.401 10.3003 318.542 10.316C318.683 10.3317 318.794 10.3592 318.873 10.3984C318.953 10.4377 319.01 10.4848 319.05 10.5397C319.085 10.5947 319.107 10.6535 319.107 10.7202V14.3737H323.736C323.824 14.3737 323.899 14.3894 323.966 14.4248C324.032 14.4561 324.094 14.5111 324.142 14.5817C324.191 14.6524 324.231 14.7426 324.253 14.8446C324.279 14.9506 324.288 15.0723 324.288 15.2135C324.288 15.4882 324.235 15.6923 324.129 15.8296C324.023 15.967 323.891 16.0337 323.732 16.0337H319.103V25.036C319.103 26.1662 319.284 27.0256 319.651 27.6182C320.013 28.2108 320.68 28.5051 321.643 28.5051C321.938 28.5051 322.208 28.4776 322.446 28.4227C322.689 28.3677 322.901 28.3089 323.087 28.2422C323.272 28.1754 323.431 28.1166 323.559 28.0616C323.687 28.0067 323.802 27.9792 323.904 27.9792C323.966 27.9792 324.023 27.991 324.072 28.0106C324.12 28.0302 324.16 28.0734 324.191 28.1323C324.222 28.1911 324.248 28.2696 324.266 28.3638C324.284 28.458 324.293 28.5757 324.293 28.717L324.297 28.7209Z" fill="#B5FCE7"/>
<path d="M342.277 29.6078C342.277 29.6745 342.259 29.7334 342.22 29.7883C342.18 29.8433 342.123 29.8864 342.043 29.9217C341.964 29.9531 341.853 29.9806 341.712 30.0042C341.57 30.0277 341.394 30.0355 341.182 30.0355C340.961 30.0355 340.775 30.0238 340.634 30.0042C340.493 29.9806 340.382 29.9531 340.303 29.9217C340.223 29.8904 340.166 29.8433 340.126 29.7883C340.091 29.7334 340.069 29.6745 340.069 29.6078V20.7703C340.069 19.8481 339.989 19.0986 339.826 18.5256C339.667 17.9488 339.424 17.4543 339.102 17.0462C338.779 16.638 338.368 16.3163 337.869 16.0926C337.37 15.8689 336.787 15.7551 336.12 15.7551C335.268 15.7551 334.415 16.0219 333.563 16.5596C332.711 17.0972 331.814 17.886 330.878 18.9298V29.6078C330.878 29.6745 330.86 29.7334 330.82 29.7883C330.781 29.8433 330.723 29.8864 330.644 29.9217C330.564 29.9531 330.454 29.9806 330.312 30.0042C330.171 30.0277 329.99 30.0355 329.765 30.0355C329.553 30.0355 329.381 30.0238 329.235 30.0042C329.093 29.9806 328.979 29.9531 328.89 29.9217C328.802 29.8904 328.745 29.8433 328.714 29.7883C328.683 29.7334 328.669 29.6745 328.669 29.6078V7.42775C328.669 7.36103 328.683 7.30217 328.714 7.24723C328.745 7.19229 328.802 7.1452 328.89 7.10596C328.979 7.06671 329.089 7.03924 329.235 7.02355C329.376 7.00785 329.553 7 329.765 7C329.986 7 330.171 7.00785 330.312 7.02355C330.454 7.03924 330.564 7.06671 330.644 7.10596C330.723 7.1452 330.781 7.19229 330.82 7.24723C330.856 7.30217 330.878 7.36103 330.878 7.42775V16.7244C331.792 15.8257 332.706 15.1625 333.621 14.7426C334.535 14.3188 335.449 14.1108 336.363 14.1108C337.463 14.1108 338.386 14.2756 339.141 14.6053C339.897 14.9349 340.502 15.3783 340.965 15.9395C341.429 16.5007 341.76 17.1521 341.964 17.8977C342.167 18.6434 342.268 19.542 342.268 20.5976V29.6157L342.277 29.6078Z" fill="#B5FCE7"/>
<path d="M362.059 21.3982C362.059 21.7946 361.94 22.0654 361.706 22.2145C361.472 22.3636 361.242 22.4382 361.021 22.4382H349.596C349.596 23.3604 349.697 24.1923 349.9 24.9379C350.104 25.6836 350.439 26.3232 350.912 26.8569C351.38 27.3906 351.994 27.7987 352.745 28.0813C353.495 28.3638 354.423 28.509 355.523 28.509C356.3 28.509 356.998 28.4502 357.616 28.3285C358.235 28.2069 358.769 28.0734 359.219 27.9243C359.67 27.7752 360.041 27.6418 360.332 27.5201C360.624 27.3985 360.832 27.3396 360.951 27.3396C361.026 27.3396 361.092 27.3553 361.154 27.3906C361.216 27.422 361.264 27.477 361.304 27.5476C361.339 27.6182 361.37 27.7085 361.388 27.8184C361.406 27.9282 361.415 28.0656 361.415 28.2304C361.415 28.3089 361.41 28.3795 361.397 28.4541C361.384 28.5247 361.37 28.5914 361.353 28.6503C361.335 28.7092 361.309 28.768 361.269 28.823C361.229 28.8779 361.18 28.9329 361.119 28.9878C361.057 29.0427 360.867 29.1369 360.544 29.2743C360.222 29.4116 359.802 29.549 359.286 29.6863C358.769 29.8237 358.164 29.9453 357.479 30.0552C356.795 30.1651 356.057 30.22 355.267 30.22C353.968 30.22 352.824 30.0474 351.822 29.702C350.823 29.3567 349.98 28.8465 349.304 28.1715C348.628 27.4966 348.112 26.6607 347.758 25.6639C347.405 24.6672 347.228 23.5095 347.228 22.1909C347.228 20.8724 347.409 19.8011 347.776 18.8004C348.138 17.8036 348.664 16.9559 349.339 16.2574C350.015 15.5589 350.837 15.0291 351.795 14.6602C352.754 14.2914 353.818 14.1108 354.988 14.1108C356.247 14.1108 357.32 14.2992 358.212 14.672C359.1 15.0448 359.833 15.5471 360.408 16.1789C360.982 16.8107 361.401 17.5407 361.666 18.3765C361.931 19.2085 362.064 20.0875 362.064 21.0097V21.4061L362.059 21.3982ZM359.78 20.8214C359.816 19.2399 359.409 18.0077 358.557 17.1208C357.705 16.2339 356.463 15.7865 354.834 15.7865C353.995 15.7865 353.257 15.9278 352.621 16.2064C351.985 16.485 351.446 16.8578 351.009 17.317C350.572 17.7761 350.236 18.3137 349.998 18.922C349.763 19.5303 349.626 20.166 349.591 20.8214H359.776H359.78Z" fill="#B5FCE7"/>
<path d="M173.257 61.7552C172.81 59.9932 172.073 58.4195 171.066 57.0853C170.037 55.7236 168.694 54.6326 167.064 53.8477C165.43 53.059 163.447 52.6587 161.168 52.6587C160.117 52.6587 159.11 52.7646 158.169 52.9726C157.224 53.1845 156.292 53.5103 155.4 53.9498C154.526 54.3775 153.642 54.9191 152.777 55.5587C152.432 55.8138 152.079 56.0885 151.717 56.3828V52.6587H146.275V92.0036H152.039V79.6185C152.3 79.8226 152.556 80.0149 152.803 80.1915C153.572 80.7448 154.358 81.2118 155.131 81.5807C155.926 81.9613 156.756 82.2439 157.591 82.4244C158.421 82.6049 159.318 82.6952 160.258 82.6952C162.436 82.6952 164.406 82.3184 166.115 81.5807C167.828 80.839 169.286 79.7794 170.448 78.4255C171.591 77.0913 172.47 75.4549 173.053 73.5594C173.628 71.6993 173.919 69.5881 173.919 67.2845C173.919 65.3381 173.698 63.4779 173.261 61.7552H173.257ZM167.502 71.6444C167.21 72.8766 166.746 73.995 166.124 74.9682C165.523 75.9022 164.741 76.6675 163.787 77.2404C162.864 77.7977 161.773 78.0684 160.453 78.0684C159.008 78.0684 157.657 77.6603 156.319 76.8166C154.972 75.9689 153.532 74.7367 152.039 73.1592V62.3438C152.869 61.4373 153.664 60.6642 154.415 60.0403C155.219 59.3731 155.992 58.8237 156.725 58.4117C157.427 58.0114 158.121 57.7249 158.779 57.5562C159.441 57.3875 160.126 57.3011 160.815 57.3011C162.18 57.3011 163.306 57.5719 164.176 58.1056C165.077 58.6628 165.81 59.4163 166.353 60.3542C166.923 61.3353 167.338 62.4733 167.581 63.7448C167.833 65.0516 167.961 66.4329 167.961 67.8457C167.961 69.1132 167.806 70.3965 167.506 71.6562L167.502 71.6444Z" fill="#B5FCE7"/>
<path d="M207.949 61.7552C207.499 59.9932 206.766 58.4195 205.759 57.0853C204.734 55.7236 203.387 54.6326 201.757 53.8477C200.123 53.059 198.14 52.6587 195.861 52.6587C194.81 52.6587 193.798 52.7646 192.862 52.9726C191.917 53.1845 190.985 53.5103 190.093 53.9498C189.218 54.3775 188.335 54.9191 187.469 55.5587C187.125 55.8138 186.767 56.0885 186.405 56.3828V52.6587H180.964V92.0036H186.732V79.6185C186.992 79.8226 187.244 80.0149 187.496 80.1915C188.264 80.7448 189.051 81.2118 189.828 81.5807C190.623 81.9613 191.449 82.2439 192.283 82.4244C193.114 82.6049 194.01 82.6952 194.951 82.6952C197.129 82.6952 199.098 82.3184 200.808 81.5807C202.521 80.839 203.979 79.7794 205.14 78.4255C206.284 77.0913 207.163 75.4549 207.746 73.5594C208.32 71.6993 208.612 69.5881 208.612 67.2845C208.612 65.3381 208.391 63.4779 207.954 61.7552H207.949ZM202.19 71.6444C201.899 72.8766 201.435 73.995 200.812 74.9682C200.216 75.9022 199.43 76.6675 198.48 77.2404C197.557 77.7977 196.466 78.0684 195.145 78.0684C193.701 78.0684 192.35 77.6603 191.011 76.8166C189.66 75.9689 188.225 74.7367 186.732 73.1592V62.3438C187.558 61.4373 188.357 60.6642 189.108 60.0403C189.907 59.3731 190.685 58.8237 191.418 58.4117C192.12 58.0114 192.809 57.7249 193.472 57.5562C194.13 57.3875 194.819 57.3011 195.508 57.3011C196.868 57.3011 197.999 57.5719 198.864 58.1056C199.765 58.6628 200.498 59.4163 201.042 60.3542C201.616 61.3353 202.027 62.4733 202.27 63.7448C202.521 65.0516 202.645 66.4329 202.645 67.8457C202.645 69.1132 202.495 70.3965 202.194 71.6562L202.19 71.6444Z" fill="#B5FCE7"/>
<path d="M306.551 56.6735C305.306 55.3706 303.733 54.3621 301.874 53.6753C300.036 53.0004 297.881 52.655 295.465 52.655C293.049 52.655 290.673 53.0396 288.756 53.8009C286.826 54.5662 285.197 55.6493 283.902 57.0267C282.622 58.3923 281.65 60.0248 281.018 61.8849C280.396 63.7137 280.082 65.7347 280.082 67.893C280.082 70.0514 280.387 72.1666 280.987 73.956C281.597 75.7808 282.538 77.3584 283.783 78.6495C285.038 79.9524 286.614 80.9648 288.469 81.6594C290.307 82.3462 292.462 82.6954 294.882 82.6954C297.303 82.6954 299.643 82.3069 301.565 81.5338C303.49 80.7608 305.124 79.6659 306.418 78.2767C307.699 76.9032 308.675 75.2668 309.316 73.4106C309.947 71.5819 310.27 69.5608 310.27 67.3986C310.27 65.2363 309.961 63.1525 309.347 61.363C308.724 59.5421 307.788 57.9646 306.555 56.6774L306.551 56.6735ZM304.268 67.7164C304.268 69.2234 304.082 70.6322 303.711 71.9115C303.353 73.1516 302.797 74.2347 302.055 75.1294C301.335 76.0006 300.39 76.6952 299.25 77.1897C298.106 77.692 296.711 77.9431 295.103 77.9431C293.354 77.9431 291.888 77.6723 290.748 77.1426C289.613 76.6128 288.699 75.8868 288.032 74.9881C287.339 74.0581 286.835 72.9514 286.539 71.6996C286.23 70.4006 286.071 69.0114 286.071 67.5712C286.071 66.131 286.257 64.683 286.628 63.4076C286.985 62.1636 287.546 61.0765 288.288 60.174C289.008 59.2949 289.949 58.5964 291.088 58.1019C292.232 57.5996 293.628 57.3485 295.236 57.3485C296.985 57.3485 298.446 57.6232 299.586 58.1608C300.721 58.6984 301.635 59.4323 302.307 60.3427C303 61.2845 303.504 62.3912 303.804 63.6391C304.113 64.9263 304.272 66.2998 304.272 67.7204L304.268 67.7164Z" fill="#B5FCE7"/>
<path d="M126.387 44.2258H119.532L105.245 82.6367H111.092L114.272 71.6291H131.457L134.752 82.6367H140.675L126.387 44.2258ZM116.105 66.9945L122.757 50.1358L129.572 66.9945H116.105Z" fill="#B5FCE7"/>
<path d="M253.772 67.0572C253.163 65.8956 252.337 64.8675 251.325 64.0002C250.336 63.1526 249.201 62.4069 247.951 61.7869C246.754 61.1904 245.513 60.6253 244.272 60.1073C243.053 59.6011 241.843 59.087 240.663 58.5768C239.542 58.0942 238.526 57.5408 237.647 56.9404C236.812 56.3714 236.132 55.7082 235.628 54.9704C235.156 54.2758 234.917 53.4203 234.917 52.4196C234.917 51.7368 235.054 51.0775 235.324 50.4653C235.589 49.861 235.977 49.3508 236.512 48.8996C237.046 48.4522 237.735 48.0872 238.566 47.8204C239.414 47.5457 240.434 47.4083 241.6 47.4083C242.766 47.4083 243.883 47.5378 244.811 47.7929C245.773 48.0558 246.604 48.3541 247.288 48.6759C247.999 49.0094 248.596 49.3155 249.059 49.5824L251.444 45.1558C251.166 44.9046 250.689 44.6299 249.943 44.2807C249.258 43.9628 248.476 43.6724 247.62 43.4173C246.767 43.1662 245.853 42.9543 244.908 42.7934C243.941 42.6286 242.973 42.5461 242.024 42.5461C240.151 42.5461 238.402 42.7737 236.83 43.225C235.231 43.6803 233.831 44.3552 232.678 45.2225C231.512 46.1015 230.593 47.1846 229.953 48.4404C229.313 49.6923 228.99 51.1207 228.99 52.6826C228.99 54.2444 229.304 55.7003 229.927 56.8894C230.536 58.0588 231.353 59.0909 232.356 59.9621C233.332 60.8098 234.454 61.5593 235.69 62.1911C236.883 62.7994 238.115 63.3684 239.361 63.8903C240.575 64.3966 241.785 64.9106 242.947 65.4208C244.06 65.9074 245.067 66.4529 245.937 67.0415C246.763 67.6027 247.434 68.262 247.938 68.9958C248.41 69.6904 248.649 70.5459 248.649 71.5466C248.649 72.5473 248.45 73.4342 248.061 74.1994C247.677 74.9568 247.129 75.6043 246.44 76.1184C245.734 76.6442 244.872 77.0563 243.888 77.3388C242.881 77.6292 241.746 77.7744 240.527 77.7744C238.998 77.7744 237.651 77.6175 236.516 77.3035C235.346 76.9817 234.33 76.6285 233.5 76.2557C232.66 75.879 231.971 75.5258 231.455 75.2119L230.267 80.5175C230.947 80.855 231.786 81.1886 232.762 81.5143C233.738 81.8361 234.856 82.1147 236.092 82.3462C237.347 82.5778 238.694 82.6955 240.098 82.6955C242.165 82.6955 244.108 82.4365 245.866 81.9303C247.651 81.4162 249.214 80.6549 250.521 79.6738C251.838 78.681 252.875 77.4566 253.604 76.036C254.333 74.6193 254.7 73.0025 254.7 71.2287C254.7 69.6433 254.386 68.2424 253.763 67.0651L253.772 67.0572Z" fill="#B5FCE7"/>
<path d="M273.66 77.6018C273.373 77.7039 273.033 77.798 272.653 77.8883C272.309 77.9668 271.911 78.006 271.469 78.006C269.69 78.006 269.089 77.3624 268.793 76.8798C268.232 75.9654 267.945 74.5723 267.945 72.7318V57.7253H274.959V53.1221H267.945V47.53L262.177 49.7865V53.1221H259.05V57.7253H262.177V73.1948C262.177 74.7214 262.336 76.0753 262.645 77.2133C262.972 78.4141 263.511 79.4266 264.253 80.2272C265.008 81.0434 265.984 81.6595 267.154 82.0559C268.281 82.4405 269.645 82.6328 271.209 82.6328C271.677 82.6328 272.167 82.6053 272.657 82.5543C273.148 82.5033 273.62 82.4287 274.066 82.3345C274.535 82.2364 274.959 82.1108 275.325 81.9656L274.437 77.2997C274.23 77.386 273.969 77.488 273.66 77.5979V77.6018Z" fill="#B5FCE7"/>
<path d="M330.162 52.6589C330.078 52.6589 329.999 52.6589 329.924 52.6589C329.199 52.6589 328.479 52.7335 327.79 52.8865C327.071 53.0435 326.333 53.3378 325.595 53.7656C324.884 54.1776 324.133 54.7506 323.369 55.4726C323.135 55.6924 322.897 55.9318 322.649 56.1947V52.6589H317.08V82.6365H322.848V63.2977C323.599 62.2342 324.301 61.3198 324.924 60.5781C325.569 59.8129 326.183 59.1968 326.757 58.7416C327.3 58.3099 327.817 57.996 328.285 57.8115C328.736 57.6349 329.173 57.5486 329.632 57.5486C329.765 57.5486 329.906 57.5525 330.074 57.5643L331.085 57.631V52.6825L330.167 52.6589H330.162Z" fill="#B5FCE7"/>
<path d="M359.029 76.1811C358.897 76.2282 358.76 76.2831 358.61 76.3459C358.124 76.5461 357.493 76.7776 356.728 77.0287C355.978 77.276 355.072 77.5036 354.034 77.7076C353.018 77.9078 351.848 78.0059 350.554 78.0059C348.756 78.0059 347.237 77.7744 346.031 77.3191C344.861 76.8757 343.898 76.236 343.178 75.4159C342.441 74.58 341.902 73.5518 341.575 72.3588C341.297 71.3425 341.133 70.2162 341.08 68.9918H360.235C360.823 68.9918 361.414 68.8074 361.989 68.4463C362.664 68.0186 363.004 67.3083 363.004 66.3272V65.6326C363.004 63.9413 362.757 62.3048 362.267 60.7704C361.768 59.2007 360.964 57.7997 359.878 56.6028C358.782 55.3981 357.369 54.4288 355.682 53.7224C353.999 53.016 351.954 52.6589 349.604 52.6589C347.418 52.6589 345.4 53.0082 343.607 53.6989C341.8 54.3935 340.232 55.4138 338.947 56.7284C337.675 58.0352 336.686 59.6363 336.006 61.4925C335.339 63.3251 334.999 65.4207 334.999 67.7203C334.999 70.02 335.325 72.2529 335.97 74.0816C336.628 75.9456 337.609 77.535 338.89 78.8064C340.179 80.0897 341.791 81.0708 343.686 81.7222C345.55 82.3658 347.705 82.6915 350.09 82.6915C351.53 82.6915 352.899 82.5895 354.154 82.3893C355.39 82.1931 356.494 81.9655 357.435 81.7143C358.04 81.5534 358.566 81.3965 359.029 81.2356V76.1811ZM341.725 62.2381C342.096 61.2688 342.639 60.4094 343.328 59.6834C344.013 58.9653 344.865 58.3766 345.863 57.9371C346.848 57.5054 348.014 57.2857 349.339 57.2857C351.941 57.2857 353.853 57.9567 355.174 59.3381C356.366 60.5821 357.011 62.3048 357.095 64.475H341.142C341.252 63.7058 341.447 62.9602 341.721 62.2381H341.725Z" fill="#B5FCE7"/>
</g>
<defs>
<clipPath id="clip0_10_2524">
<rect width="346" height="85" fill="white" transform="translate(17 7)"/>
</clipPath>
</defs>
</svg>
