<?xml version="1.0" encoding="UTF-8"?>
<svg id="OBJECTS" xmlns="http://www.w3.org/2000/svg" version="1.1" viewBox="0 0 800.9 605.3">
  <!-- Generator: Adobe Illustrator 29.1.0, SVG Export Plug-In . SVG Version: 2.1.0 Build 142)  -->
  <defs>
    <style>
      .st0 {
        fill: #cff8ea;
      }

      .st1 {
        fill: #82cdbc;
      }

      .st2 {
        fill: #aee9bf;
      }

      .st3 {
        fill: #458c7e;
      }

      .st4 {
        fill: #fff;
      }

      .st5 {
        fill: #01503c;
      }

      .st6 {
        fill: #b7fbe8;
      }

      .st7 {
        fill: #000b1d;
      }

      .st8 {
        fill: #bcc7a8;
      }

      .st9 {
        fill: #00004a;
      }

      .st10 {
        fill: #b2fbe7;
      }

      .st11 {
        fill: #3a4081;
      }

      .st12 {
        fill: #207957;
      }

      .st13 {
        fill: #00132a;
      }

      .st14 {
        fill: #015841;
      }

      .st15 {
        fill: #00402a;
      }

      .st16 {
        fill: #016148;
      }

      .st17 {
        fill: #485188;
      }

      .st18 {
        fill: #016248;
      }

      .st19 {
        fill: #015029;
      }

      .st20 {
        fill: #ebf5eb;
      }

      .st21 {
        fill: #003624;
      }
    </style>
  </defs>
  <g>
    <path class="st0" d="M538.3,198.5s-130.4-100.9-250.9-53.9c-120.6,47-116.1,210.3-50.7,266.3,117,100.2,198.7,22.8,223.5,11.3,24.8-11.5,61.2,36.8,128,22.8,66.9-14,53.7-173.4-50-246.5h0Z"/>
    <g>
      <g>
        <path class="st1" d="M366.1,454.9c-91.7,0-166.4-74.6-166.4-166.4s74.6-166.4,166.4-166.4,166.4,74.6,166.4,166.4-74.6,166.4-166.4,166.4ZM366.1,123.8c-90.8,0-164.7,73.9-164.7,164.7s73.9,164.7,164.7,164.7,164.7-73.9,164.7-164.7-73.9-164.7-164.7-164.7h0Z"/>
        <path class="st1" d="M366.1,454.9c-67.1,0-121.6-74.6-121.6-166.4s54.6-166.4,121.6-166.4,121.6,74.6,121.6,166.4-54.6,166.4-121.6,166.4ZM366.1,123.8c-66.1,0-119.9,73.9-119.9,164.7s53.8,164.7,119.9,164.7,119.9-73.9,119.9-164.7-53.8-164.7-119.9-164.7h0Z"/>
        <path class="st1" d="M366.1,454.9c-29.7,0-53.9-74.6-53.9-166.4s24.2-166.4,53.9-166.4,53.9,74.6,53.9,166.4-24.2,166.4-53.9,166.4ZM366.1,123.8c-28.8,0-52.2,73.9-52.2,164.7s23.4,164.7,52.2,164.7,52.2-73.9,52.2-164.7-23.4-164.7-52.2-164.7h0Z"/>
        <rect class="st1" x="200.5" y="280.9" width="331" height="1.7"/>
      </g>
      <g>
        <g>
          <path class="st1" d="M494.4,184.1s0-.1,0-.1c-19.5,13.8-69.6,23.6-128.3,23.6s-108.5-9.8-128.1-23.5c-.3.4-.6.9-1,1.3,20,14.1,69.6,23.9,129.1,23.9s109.4-9.9,129.3-24.1c-.3-.4-.6-.7-.9-1.1h0Z"/>
          <path class="st1" d="M366.1,151c-34.1,0-60.5-4.7-73.7-10.7,0,.1-.2.2-.3.3-.4.3-.9.5-1.3.8,13.9,6.8,42.1,11.3,75.3,11.3s62-4.6,75.8-11.5c-.6-.4-1.1-.8-1.8-1-13.1,6.1-39.6,10.9-74,10.9Z"/>
        </g>
        <g>
          <path class="st1" d="M237.6,393.1c19.3-13.9,69.6-23.8,128.5-23.8s109.2,9.9,128.5,23.8c.3-.4.5-.9.8-1.4-19.9-14.3-69.6-24.1-129.4-24.1s-109.4,9.9-129.3,24.1c.3.4.6.9.8,1.3h0Z"/>
          <path class="st1" d="M366.1,426c34.3,0,60.8,4.8,73.9,10.8.3-.4.7-.8,1.1-1.1,0,0,.2,0,.3-.2-13.9-6.8-42.1-11.3-75.3-11.3s-61.8,4.6-75.6,11.5c.5.4,1,.7,1.5,1.2,13-6.1,39.6-10.9,74.1-10.9h0Z"/>
        </g>
      </g>
    </g>
  </g>
  <g>
    <ellipse class="st20" cx="410.3" cy="480" rx="167.4" ry="15.5"/>
    <g>
      <g>
        <g>
          <g>
            <path class="st21" d="M573.1,205.5c-3.7,13.9-27.1,26.4-28.7,21.6-1.6-4.8,6.4-10.3,12.5-12.1,6.1-1.8,11.8-8.9,8.9-13.6-2.9-4.7-12.1-16.8-12.1-16.8,0,0-21.3,2.6-25.6,5.6-4.3,3-3.9,11.1-1.8,16.7s6,8.6,5.2,13.1c-.8,4.5-4.8,3.3-9-5.7s-2.5-23.4-2.5-23.4c0,0-7.1,4.9-12.9,9s-26.2,9.9-26.4,19.8c-.2,9.9,9.7,15.6,15.6,19.9,5.8,4.3,9.2,12.1,7.2,14.4-2,2.3-7.1-.6-14.5-10.4s-11.1-22.3-11.1-22.3c0,0-15,12.8-13.2,22.1s18,21.5,30.7,29.6c-8.2-.9-29.7-15.6-34.5-26.7-2.1.8-6.4,13.7-5.5,25.1,1.7,3.5,18,9.7,25.5,12.9,7.5,3.2,9,6.5,4.4,9.1-4.6,2.7-18.9-5.9-27.6-16.8-3.5,11.2,4.5,28.2,15.6,34.4s25.1-1.7,27.1-9.5c2-7.8,9.9-6.6,9.9-6.6,0,0,3,3.2-.2,7.6-3.2,4.4-2.3,11.5.7,17.5,3,6.1,9.6,13.9,31.5,5.6,21.9-8.3,32.7-31.2,34.5-41.9-4.4,6.3-21.8,6.6-25.3,8.2-3.5,1.6-8.4-.5-5.6-3.8s10.3-1.6,26.1-3.3c6.1-3.3,10.1-13.8,10.2-26.1-7.8,10.9-34.7,14.3-36.5,13.2-1.8-1-1.9-5.1,4.7-6.2,6.6-1.1,21-5.1,29.7-9.2,1.3-3.8,3.7-16.2-.1-26-4.8,11.5-21.1,17.1-25.3,19.7s-9.4,1.2-9.4-2,3.9-4.2,13.3-7.9c9.5-3.7,21.5-11.5,21.5-15,0-3.4.6-11.7-6.8-19.6h0ZM501,209.1c2.9-3,6.3-1.9,7,5.6.7,7.5,5.5,13.2,10,17.7s6.6,13.8,2.8,13.5c0,0-7.2,1.7-15.7-9.8-8.5-11.5-7-24-4.1-27h0ZM554.1,300.9c-3,11.3-20.1,13.1-27,6.4s-6.5-11.8-3.9-13.9,8-.2,15.5,5.3c7.5,5.5,15.4,2.2,15.4,2.2Z"/>
            <path class="st16" d="M528,190.1c-4.3,3-3.9,11.1-1.8,16.7s6,8.6,5.2,13.1c-.8,4.5-4.8,3.3-9-5.7s-2.5-23.4-2.5-23.4c0,0-7.1,4.9-12.9,9s-26.2,9.9-26.4,19.8c-.2,9.9,9.7,15.6,15.6,19.9,5.8,4.3,9.2,12.1,7.2,14.4-2,2.3-7.1-.6-14.5-10.4s-11.1-22.3-11.1-22.3c0,0-15,12.8-13.2,22.1s18,21.5,30.7,29.6c-8.2-.9-29.7-15.6-34.5-26.7-2.1.8-6.4,13.7-5.5,25.1,1.7,3.5,18,9.7,25.5,12.9,7.5,3.2,9,6.5,4.4,9.1-4.6,2.7-18.9-5.9-27.6-16.8-3.5,11.2,4.5,28.2,15.6,34.4s25.1-1.7,27.1-9.5c1.5-6,6.5-6.7,8.8-6.7,13.7-57.4,44.7-110.2,44.7-110.2,0,0-21.3,2.6-25.6,5.6h0ZM520.8,246s-7.2,1.7-15.7-9.8c-8.5-11.5-7-24-4.1-27s6.3-1.9,7,5.6c.7,7.5,5.5,13.2,10,17.7s6.6,13.8,2.8,13.5h0Z"/>
          </g>
          <g>
            <path class="st14" d="M482.8,350.2c4.9-6,9-12.3,12.8-18.9,3.8-6.6,7-13.5,9.7-20.6.6-1.8,1.2-3.6,1.8-5.4.6-1.8,1-3.7,1.6-5.5.9-3.7,1.7-7.5,2.5-11.1,1.7-7.3,3.8-14.5,6.2-21.6,4.8-14.3,10.4-28.2,16.3-42.1,3-6.9,6.1-13.8,9.4-20.5,3.3-6.8,6.6-13.5,10.6-19.9-4.1,6.3-7.5,13-11,19.7-3.4,6.7-6.6,13.5-9.7,20.4-6.2,13.7-12.1,27.6-17.1,41.9-2.6,7.1-4.8,14.3-6.7,21.7-.9,3.7-1.7,7.4-2.6,10.9-.5,1.8-1,3.6-1.6,5.3-.6,1.8-1.2,3.5-1.9,5.2-2.7,7-6.1,13.6-9.9,20-3.8,6.4-8.1,12.6-12.8,18.2l2.5,2.2h0Z"/>
            <path class="st14" d="M510.5,201.6c.4,3.4,1.2,6.6,2,9.9.9,3.3,2,6.5,3.3,9.6,1.4,3.1,2.9,6.2,4.9,8.9,2,2.8,4.4,5.3,7.3,7.2h0s.1,0,.1,0c4.3.8,8.7.4,12.9-.6,4.2-1,8.2-2.5,12-4.3,3.9-1.8,7.6-3.9,11.2-6.2,3.6-2.3,7.1-4.7,10.4-7.4-3.5,2.5-7,4.8-10.7,6.9-3.6,2.2-7.4,4.1-11.2,5.9-3.9,1.7-7.8,3.2-11.9,4.2-2,.5-4.1.8-6.2.9-2.1.1-4.2,0-6.2-.3h.2c-2.8-1.8-5.1-4.2-7.1-6.8l-1.4-2c-.5-.7-.8-1.4-1.3-2.1-.5-.7-.8-1.5-1.2-2.2-.4-.8-.8-1.5-1.1-2.2-1.4-3-2.5-6.2-3.6-9.4-1-3.2-1.9-6.5-2.5-9.8h0Z"/>
            <path class="st14" d="M517.1,265.6c5.4.9,10.8-.1,16-1.4,5.2-1.3,10.2-3.1,15.1-5.1,4.9-2,9.8-4.2,14.5-6.5,4.8-2.4,9.5-4.8,14.1-7.5-4.6,2.6-9.4,5-14.2,7.2-4.8,2.2-9.7,4.4-14.6,6.3-5,1.9-10,3.6-15.1,4.8-5.1,1.1-10.5,2-15.6,1.1l-.2,1.1h0Z"/>
            <path class="st14" d="M514.6,273.9c-4.6-1.1-9.2-3-13.4-5.2-4.3-2.2-8.3-5-11.9-8.2-1.9-1.5-3.5-3.4-5.2-5.1-1.5-1.9-3.1-3.7-4.4-5.8-2.8-4-4.7-8.5-6.4-13,1.6,4.6,3.4,9.1,6.2,13.2,1.2,2.1,2.8,4,4.3,5.9,1.7,1.8,3.2,3.6,5.1,5.2,3.6,3.3,7.6,6.1,11.9,8.5,4.3,2.3,8.8,4.3,13.6,5.6l.2-1.1h0Z"/>
            <path class="st14" d="M511.9,282.1c5.6.8,11.1,1.1,16.7,1.1,5.6,0,11.2-.4,16.7-1.1,5.5-.8,11-2,16.3-3.7,5.3-1.8,10.3-4.2,15-7.1-4.8,2.9-9.8,5.2-15.1,6.9-5.3,1.6-10.8,2.8-16.3,3.4-5.5.6-11.1.9-16.6.8-5.5-.1-11.1-.5-16.5-1.4l-.2,1.1h0Z"/>
          </g>
        </g>
        <g>
          <path class="st16" d="M487.9,373.4s-24.3-36.7,5.4-66.1c-2.3,7.1-6.1,12.4-3.7,22.2s8,8,7.6-6.5.7-24.1,11.7-36.2c-1.5,12.2-1.4,19.5,2.9,19.2,4.2-.3.4-7.4,0-13.8s13.9-18,22.9-21c-3.8,8.3-1.7,17.5,2.4,16.2,5-1.6-3.6-15.7,11.5-21.3,10.7-4,22.1,2.2,35.8-3.5-11.5,16.8-11.6,19.4-14.9,22.2-9.3.5-18.6,3.9-17.6,3.6,1-.3,13.9.4,15.9,1.9-3.7,12.2-4.2,13.8-14.4,19s-19.7,1.7-23.8,7.7c-3.5,5.6,14.4.6,23.6-6.6-10.8,18.8-19.9,31.9-24.5,37.1-5.3,5.6-19.5,4.8-25.1,5.3-5.6.5-1.9,4.8,2.7,4.9s12.9-1,14.9-2.2c-6.4,8.8-20.3,16-33.4,17.8h0Z"/>
          <path class="st15" d="M584.5,262.6c-13.6,5.7-25.1-.4-35.8,3.5-15.1,5.6-6.4,19.7-11.5,21.3-4.1,1.3-6.1-7.9-2.4-16.2-9.1,2.9-23.3,14.6-22.9,21s4.2,13.5,0,13.8c-4.2.3-4.4-7-2.9-19.2-11.1,12.1-12.1,21.8-11.7,36.2s-5.2,16.4-7.6,6.5,1.4-15.1,3.7-22.2c-28,27.7-8,61.9-5.6,65.7,3.5-15.8,20.8-70.9,96.7-110.4,0,0,0,0,0,0h0Z"/>
          <path class="st14" d="M483.9,386.3c.5-3.5,1.3-6.8,2.1-10.2l.6-2.5c.2-.8.5-1.7.7-2.5.2-.8.5-1.7.7-2.5l.8-2.5c2.1-6.6,4.6-13,7.6-19.2l1.1-2.3c.4-.8.7-1.6,1.2-2.3l2.5-4.6c.9-1.5,1.8-3,2.7-4.4.9-1.5,1.9-2.9,2.8-4.3,1.9-2.9,4-5.6,6.1-8.3,1.1-1.3,2.2-2.6,3.3-4,.6-.6,1.1-1.3,1.7-2l1.7-1.9,1.7-1.9.9-1c.3-.3.6-.6.9-.9l3.6-3.7c1.2-1.2,2.5-2.4,3.7-3.6,1.2-1.2,2.5-2.4,3.8-3.5,5.1-4.6,10.4-9,15.9-13.2,11-8.3,22.6-15.7,34.6-22.4-11.9,6.8-23.5,14.3-34.3,22.7-5.4,4.2-10.6,8.7-15.7,13.3-1.3,1.2-2.5,2.3-3.7,3.5-1.2,1.2-2.5,2.4-3.6,3.6l-3.5,3.7c-.3.3-.6.6-.9.9l-.9,1-1.7,1.9-1.7,1.9c-.6.6-1.1,1.3-1.6,2-1.1,1.3-2.2,2.6-3.3,4-2,2.8-4.2,5.4-6,8.3-.9,1.4-1.9,2.8-2.8,4.3-.9,1.5-1.8,2.9-2.6,4.4l-2.4,4.5c-.4.8-.8,1.5-1.1,2.3l-1.1,2.3c-2.9,6.2-5.3,12.6-7.3,19.1l-.7,2.5c-.2.8-.5,1.6-.7,2.5-.2.8-.5,1.6-.7,2.5l-.6,2.5c-.8,3.3-1.5,6.7-1.9,10l-1.8-.2h0Z"/>
        </g>
        <g>
          <path class="st5" d="M482.3,420.7s-19.5-39.4,13.5-64.9c-3.2,6.8-7.6,11.5-6.4,21.6s6.9,8.9,8.4-5.5c1.5-14.4,3.6-23.9,16.1-34.5-3,11.9-3.8,19.2.5,19.4s1.3-7.3,1.8-13.7c.4-6.4,16-16.2,25.4-18-4.8,7.7-3.9,17.1.3,16.3,5.2-1-1.6-16,14-19.7,11.1-2.6,21.7,4.9,35.9.9-13.5,15.2-13.9,17.8-17.5,20.2-9.3-.7-18.9,1.5-17.9,1.4s13.7,2.1,15.6,3.9c-5.2,11.7-5.9,13.2-16.6,17.1s-19.7-.7-24.6,4.7c-4.2,5.1,14.2,2.4,24.2-3.7-13.1,17.3-23.7,29.1-28.9,33.8-6,4.9-20,2.3-25.6,2.2-5.6-.2-2.5,4.5,2.1,5.2,4.6.7,12.9.5,15-.4-7.4,8-22.1,13.4-35.3,13.5h0Z"/>
          <path class="st15" d="M591.8,322.7c-14.2,4-24.8-3.5-35.9-.9-15.6,3.7-8.8,18.7-14,19.7-4.2.8-5.1-8.6-.3-16.3-9.4,1.8-24.9,11.6-25.4,18-.4,6.4,2.5,13.9-1.8,13.7-4.3-.2-3.5-7.5-.5-19.4-12.5,10.6-14.7,20.1-16.1,34.5-1.5,14.4-7.2,15.6-8.4,5.5-1.2-10.1,3.3-14.9,6.4-21.6-31.2,24-15.6,60.4-13.7,64.5,5.4-15.2,29.4-67.8,109.6-97.6h0Z"/>
          <path class="st14" d="M476.7,433.1c1-3.4,2.1-6.6,3.3-9.8l.9-2.4c.3-.8.7-1.6,1-2.4.3-.8.7-1.6,1-2.4l1.1-2.3c2.9-6.3,6.2-12.3,9.9-18.2l1.4-2.2c.5-.7.9-1.5,1.4-2.1l3-4.2c1-1.4,2.1-2.7,3.2-4.1,1-1.4,2.2-2.6,3.3-4,2.2-2.6,4.7-5,7.1-7.5,1.2-1.2,2.5-2.3,3.8-3.5.6-.6,1.3-1.2,1.9-1.7l2-1.7,2-1.7,1-.8c.3-.3.7-.5,1-.8l4-3.2c1.4-1.1,2.8-2.1,4.1-3.1,1.4-1,2.8-2,4.2-3,5.6-4,11.4-7.7,17.4-11.1,11.9-6.9,24.3-12.8,37.1-17.9-12.7,5.3-25.1,11.3-36.9,18.3-5.9,3.5-11.6,7.3-17.2,11.3-1.4,1-2.8,2-4.1,3.1-1.4,1-2.7,2.1-4.1,3.1l-4,3.3c-.3.3-.7.5-1,.8l-1,.9-1.9,1.7-1.9,1.7c-.6.6-1.2,1.2-1.9,1.8-1.2,1.2-2.5,2.3-3.7,3.5-2.4,2.5-4.8,4.9-7,7.5-1.1,1.3-2.2,2.6-3.3,4-1,1.4-2.1,2.7-3.1,4.1l-2.9,4.2c-.5.7-1,1.4-1.4,2.1l-1.4,2.2c-3.6,5.8-6.8,11.9-9.6,18.1l-1,2.3c-.4.8-.6,1.6-1,2.4-.3.8-.7,1.6-1,2.4l-.9,2.4c-1.2,3.2-2.3,6.5-3.1,9.7l-1.8-.5h0Z"/>
        </g>
        <g>
          <g>
            <path class="st16" d="M404.9,210.6c1.7,9.7-.6,20.9,0,30.6,4.1-7.6,6.3-16.1,8.7-24.2,12.2,9.5,22.8,20,31.9,30.9-2.5,9.4-5.7,18.7-9.8,27.4,6-6.8,10.2-14.9,12.7-23.8,9,11.3,16.4,22.9,22.3,34.2-5.5,13.6-16.4,25.9-9,41,4.7-10.6,9.6-20.9,13.6-31.5,6.3,13.9,10.3,27.1,12.1,38.2-5,7.9-7.9,17-13.7,24.5,4.9-4.5,10.7-9.4,14.6-15.2,0,.6,0,1.3,0,1.9.8,46.8-11.4,80.3-11.4,80.3-9-6.2-18.2-14-27.2-23.1,5.8-1.9,12.2-2.3,18.1-3.1-8-3.4-16.6-5.9-25.3-4.4-9.4-10.2-18.5-21.6-26.9-33.6,12.7-8.2,30.8-6.8,45.3-4.1-16.3-7.8-35.9-15.6-53.4-7.8-11.1-17.2-20.6-35-27.3-51.6,16-2.9,32.6-2.7,48.2,0-14.8-9.6-33.9-11.8-51.3-8.1-1.2-3.5-2.4-7-3.3-10.3-4-13.8-8.8-25.2-14.3-35.1,10.9-.5,22.2.3,32.9,3-10.4-6.5-22.5-7-34.7-6.3-5.2-9.1-11-17-17.1-24.9,8.4-2.7,17.6-3,25.5-.5-8.7-5.9-19.4-6.6-29.4-4.5-8.5-10.7-17.6-21.5-26.6-34.7,38,4.1,69.4,17.3,94.8,34.9h0Z"/>
            <path class="st15" d="M404.9,210.6c1.7,9.7-.6,20.9,0,30.6,4.1-7.6,6.3-16.1,8.7-24.2,12.2,9.5,22.8,20,31.9,30.9-2.5,9.4-5.7,18.7-9.8,27.4,6-6.8,10.2-14.9,12.7-23.8,9,11.3,16.4,22.9,22.3,34.2-5.5,13.6-16.4,25.9-9,41,4.7-10.6,9.6-20.9,13.6-31.5,6.3,13.9,10.3,27.1,12.1,38.2-5,7.9-7.9,17-13.7,24.5,4.9-4.5,10.7-9.4,14.6-15.2,0,.6,0,1.3,0,1.9.8,46.8-11.4,80.3-11.4,80.3-.5-.3-1-.7-1.5-1.1-.9-53.7-19-180.3-160.7-246.7,0,0-2-.6-4.5-1.2,0,0,0,0,0-.1,38,4.1,69.4,17.3,94.8,34.9h0Z"/>
          </g>
          <path class="st14" d="M476.2,449c.7-7.1.9-14.1.9-21.2,0-7-.4-14.1-.9-21.1-1.2-14-3.3-28-6.4-41.7-3.1-13.7-7.2-27.2-12.3-40.4-5.1-13.1-11.2-25.8-18.3-38-14.2-24.3-32.5-46.1-53.7-64.5-21.2-18.4-45.3-33.3-70.7-45.1,25.3,12,49.2,27.2,70.2,45.8,21,18.5,38.9,40.5,52.8,64.7,7,12.1,12.9,24.8,17.8,37.9,5,13.1,8.9,26.5,11.8,40.1s4.9,27.5,5.9,41.4c.5,7,.7,13.9.7,20.9,0,7-.3,14-1,20.8l3.3.4h0Z"/>
        </g>
        <g>
          <g>
            <path class="st5" d="M307.1,285c6.3,6.3,11,16.4,16.7,23.5-1.6-8.5-4.8-16.4-7.8-24.2,12.7-.5,25.1.7,36.7,3.2,3.6,8.8,6.6,18,8.8,27.3,0-9.1-1.8-18-5.1-26.4,11.8,2.9,22.7,7,32.6,11.9,4,14,3.9,30.4,16.8,37.2-2.8-11.1-5.4-22.2-8.7-32.9,11.5,6.6,21.2,14.1,28.3,21.5,1.2,9.3,4.3,18.1,4.9,27.6.6-6.6,1.5-14.1.8-21.1.4.5.7,1,1.1,1.4,26,35.4,36.6,68.9,36.6,68.9-9,1.1-19,.9-29.6-.2,2.6-5.2,6.4-9.6,9.6-14-6.8,2.5-13.6,6.2-18.1,12.9-11.4-1.8-23.3-4.7-35.1-8.4,3.5-14.5,15.5-25,26-32.2-14.4,4.5-30.9,11.1-37.5,28.3-16.3-6-31.9-13.6-45.1-22,8.4-12.5,18.9-23,30-31-14.4,2.1-27.6,12.8-36.4,26.7-2.7-1.9-5.3-3.8-7.7-5.8-10-8.1-19.2-13.6-28.1-17.8,6.5-7.4,14-14,22.1-18.8-10,1.7-17.9,9.1-25.1,17.5-8.2-3.6-16.2-6-24.2-8.1,3.8-7.5,9.4-13.6,15.6-16.8-8.7,1.1-15.7,7.4-20.8,15.5-11.2-2.7-22.7-5.2-35.5-9.5,25.9-21.3,52.7-31.4,78.1-34.1h0Z"/>
            <path class="st15" d="M307.1,285c6.3,6.3,11,16.4,16.7,23.5-1.6-8.5-4.8-16.4-7.8-24.2,12.7-.5,25.1.7,36.7,3.2,3.6,8.8,6.6,18,8.8,27.3,0-9.1-1.8-18-5.1-26.4,11.8,2.9,22.7,7,32.6,11.9,4,14,3.9,30.4,16.8,37.2-2.8-11.1-5.4-22.2-8.7-32.9,11.5,6.6,21.2,14.1,28.3,21.5,1.2,9.3,4.3,18.1,4.9,27.6.6-6.6,1.5-14.1.8-21.1.4.5.7,1,1.1,1.4,26,35.4,36.6,68.9,36.6,68.9-.5,0-1,.1-1.5.2-29.9-40.6-110.1-126.1-234.7-85.9,0,0-1.6.8-3.5,1.9,0,0,0,0-.1,0,25.9-21.3,52.7-31.4,78.1-34.1h0Z"/>
          </g>
          <path class="st14" d="M481.5,422.1c-3.4-5.9-7.1-11.4-11-16.8-3.9-5.4-7.9-10.6-12.1-15.6-8.4-10-17.3-19.4-26.7-27.9-9.4-8.5-19.3-16.3-29.7-23-10.3-6.8-21.1-12.6-32.1-17.3-22.1-9.5-45.4-14.5-68.6-15-23.3-.5-46.4,3.5-68.7,10.8,22.3-7,45.5-10.8,68.7-10,23.2.8,46.3,6,68.2,15.7,10.9,4.8,21.6,10.8,31.8,17.6,10.2,6.8,20,14.6,29.2,23.2,9.3,8.6,18.1,17.9,26.3,28,4.1,5,8.1,10.2,11.8,15.6,3.8,5.3,7.4,10.9,10.7,16.6l2.3-1.8Z"/>
        </g>
        <g>
          <path class="st6" d="M511.4,469.4c-4.4-2.3-9-5.1-9.4-6.6-.7-3,19.7-19.9,8-41.6-9.8-3.7-22.8-1.3-27.1-.3-4.3-1-17.4-3.3-27.1.3-11.7,21.7,8.7,38.6,8,41.6-.4,1.6-5,4.3-9.4,6.6-2.2,1.1-1.1,3.8,1.5,3.8h54c2.6,0,3.6-2.7,1.5-3.8h0Z"/>
          <path class="st6" d="M510.1,421.2c-9.8-3.7-22.8-1.3-27.1-.3-4.3-1-17.4-3.3-27.1.3-11.5,21.3,8,38,8,41.4h34.6c1.6-.7,3.1-1.4,4.5-2.2,3.8-6,16.9-20.9,7-39.3h0Z"/>
          <path class="st2" d="M498.5,462.6h-34.6c0,0,0,.1,0,.2-.4,1.6-5,4.3-9.4,6.6-.5.3-.9.7-1,1,15.3,1.9,31.5-1.9,45-7.9h0Z"/>
          <path class="st2" d="M512.3,426.3c-.5-1.7-1.3-3.4-2.2-5.1-9.8-3.7-22.8-1.3-27.1-.3-4.3-1-17.4-3.3-27.1.3-8.7,16.2.4,29.7,5.3,36.8.6-21.1,27.2-32.2,51.1-31.6h0Z"/>
          <rect class="st6" x="449.6" y="410.9" width="67" height="13.5" rx="4.2" ry="4.2"/>
          <path class="st10" d="M511.8,410.9h-57.4c-.4,0-.7,0-1,0v1.6c0,2.1,2.1,3.8,4.8,3.8h57.4c.4,0,.7,0,1,0v-1.6c0-2.1-2.1-3.8-4.8-3.8Z"/>
        </g>
        <g>
          <path class="st5" d="M455,275.8s-2.5-20.9-10.4-31.3c-7.9-10.4-21.4-37-23.7-51.2.4,22,2.6,35.4,10,47.2s22,27,24.2,35.3h0Z"/>
          <path class="st5" d="M455,275.8s-2.5-20.9-10.4-31.3c-7.9-10.4-21.4-37-23.7-51.2.4,22,7.4,33.7,14.8,45.5s17.2,28.6,19.3,36.9Z"/>
          <path class="st5" d="M453.1,255.9s0-14-5.6-28.9c-5.6-14.9-13.9-22.8-17.7-31.3-3.8-8.5-5.5-20.2-5.5-20.2,0,0-1.8,17.1,6.3,36.2,8.1,19.1,20.4,34.7,22.5,44.2h0Z"/>
          <path class="st5" d="M453.1,255.9s0-14-5.6-28.9c-5.6-14.9-13.9-22.8-17.7-31.3-3.8-8.5-5.5-20.2-5.5-20.2,0,0-.9,18,9.6,35.9,13.9,23.5,17,35,19.1,44.5h0Z"/>
          <path class="st5" d="M455.5,235.7s4-11.8-.3-29.2-21-46.5-20.8-55.5c-2.4,11.5.9,32.6,8.4,49.6,7.5,17,12.7,35.2,12.7,35.2Z"/>
          <path class="st5" d="M455.5,235.7s4-11.8-.3-29.2-21-46.5-20.8-55.5c-2.4,11.5,6.5,30.9,14,47.8,7.5,17,7.1,36.9,7.1,36.9Z"/>
          <path class="st5" d="M460.1,215s4.5-19.4-.4-36c-5-16.6-9-38.1-8.5-43.9-4,10.7-6.2,34.1-1.1,46.1,5.1,11.9,10.9,24.8,10,33.9Z"/>
          <path class="st5" d="M460.1,215s4.5-19.4-.4-36c-5-16.6-9-38.1-8.5-43.9-4,10.7-.3,32.6,4.8,44.5s5,26.4,4.1,35.4Z"/>
          <path class="st5" d="M464.8,197.9s8.2-16.4,6-31.1c-2.2-14.7-1.2-45.6,1.2-49.7-6.9,15.7-12,35.2-10.3,45.7,1.7,10.4,6.4,26.1,3,35.2h0Z"/>
          <path class="st5" d="M464.8,197.9s8.2-16.4,6-31.1c-2.2-14.7-1.2-45.6,1.2-49.7-6.9,15.7-7.2,34.4-5.5,44.8,1.7,10.4,1.7,27-1.7,36.1Z"/>
          <path class="st5" d="M474.1,178.6s13.3-28,11.8-44.2-2.2-31.6-.3-33.3c-4.6,11.7-7.9,30.4-8.6,45.9-.7,15.5-3,31.6-3,31.6Z"/>
          <path class="st5" d="M474.1,178.6s13.3-28,11.8-44.2-2.2-31.6-.3-33.3c-4.6,11.7-1.9,27.1-2.6,42.6-.7,15.5-8.9,34.9-8.9,34.9h0Z"/>
          <path class="st5" d="M486.1,157.2s4.1-41,27.6-64.1c-9,16.9-12.5,26.8-14.2,35.2-1.7,8.4-8,21.3-13.5,28.9h0Z"/>
          <path class="st5" d="M486.1,157.2s11.9-41.4,27.6-64.1c-9,16.9-12.5,26.8-14.2,35.2-1.7,8.4-8,21.3-13.5,28.9h0Z"/>
          <path class="st5" d="M492,148.6s18.6-43.6,53.7-52.9c-14.2,11.2-45.7,41.8-53.7,52.9h0Z"/>
          <path class="st5" d="M492,148.6s24.1-37.8,53.7-52.9c-14.2,11.2-45.7,41.8-53.7,52.9h0Z"/>
          <path class="st5" d="M483.6,161.8s7.7-15.9,22-19.4c14.4-3.5,28-2.6,35.5-11.1-11.7,14.4-24.6,17.5-34.7,20s-18.2,6.9-22.8,10.5h0Z"/>
          <path class="st5" d="M483.6,161.8s9.5-12,23.9-15.5c14.4-3.5,26.1-6.5,33.6-14.9-11.7,14.4-24.6,17.5-34.7,20s-18.2,6.9-22.8,10.5h0Z"/>
          <path class="st5" d="M476.5,174s4.2-11.9,24.7-17.2c20.5-5.3,26.7-5.8,35.5-14.7-9.1,12.6-18.5,17.6-31.6,20.8-13.1,3.2-21.4,6.3-28.7,11h0Z"/>
          <path class="st5" d="M476.5,174s6-8.9,26.5-14.2,24.9-8.8,33.7-17.7c-9.1,12.6-18.5,17.6-31.6,20.8-13.1,3.2-21.4,6.3-28.7,11Z"/>
          <path class="st5" d="M467.8,193.2s2-13.7,19.5-19.4c17.5-5.7,30.7-7.9,36.1-13-6.2,8.6-16.5,13.4-30.4,18-13.9,4.6-22.4,10.4-25.2,14.5h0Z"/>
          <path class="st5" d="M467.8,193.2s3-11.4,20.5-17.2,29.7-10.2,35.1-15.3c-6.2,8.6-16.5,13.4-30.4,18-13.9,4.6-22.4,10.4-25.2,14.5h0Z"/>
          <path class="st5" d="M460.8,211.3s6.3-10,21-14.8c14.7-4.7,26.4-11.6,33.8-22.5-4.9,3.8-10.6,7.3-22.5,11.1s-28.3,10-32.2,26.1Z"/>
          <path class="st5" d="M460.8,211.3s6.3-10,21-14.8c14.7-4.7,26.4-11.6,33.8-22.5-4.9,3.8-9.9,10.5-21.8,14.4s-29,6.8-32.9,22.9h0Z"/>
          <path class="st5" d="M455.1,236s3.1-12,19.2-18.9c16-6.8,28.6-9.7,34.8-26.1-7.7,8.3-18.2,11.9-28.5,15.3-10.3,3.4-25.2,13.6-25.5,29.6Z"/>
          <path class="st5" d="M455.1,236s3.1-12,19.2-18.9c16-6.8,28.6-9.7,34.8-26.1-7.7,8.3-17,14.9-27.3,18.3s-26.3,10.6-26.6,26.6h0Z"/>
          <path class="st5" d="M453.5,249.5s1.5-15.2,16.4-25.4c14.8-10.2,30.4-11.1,37.7-20.7-4.6,11.2-17.9,17.8-27.9,22.2-10,4.4-25,16.5-26.1,23.9h0Z"/>
          <path class="st5" d="M453.5,249.5s1.7-13,16.5-23.2,31.3-11,37.5-22.9c-4.6,11.2-17.9,17.8-27.9,22.2-10,4.4-25,16.5-26.1,23.9h0Z"/>
          <path class="st5" d="M453.4,261.2s-1.5-16.2,18.1-27.2,21.7-5.4,35-20.2c-8,16.9-19.2,20.3-31.7,26.4-12.5,6.1-18.7,13.7-21.4,20.9h0Z"/>
          <path class="st5" d="M453.4,261.2s-1.2-13,18.4-24c19.6-11,21.4-8.6,34.8-23.3-8,16.9-19.2,20.3-31.7,26.4-12.5,6.1-18.7,13.7-21.4,20.9h0Z"/>
          <path class="st5" d="M455.8,284c-1-3.3-1.6-6.6-2.1-9.9-.5-3.3-.8-6.7-1-10-.3-6.7,0-13.4.6-20.1.7-6.7,1.8-13.3,3.3-19.8.4-1.6.7-3.3,1.2-4.9l1.3-4.8c1-3.2,1.9-6.4,3.1-9.5,4.4-12.6,10.2-24.7,16.8-36.3l1.2-2.2,1.3-2.1,2.6-4.3c1.8-2.8,3.6-5.6,5.4-8.4,1.9-2.8,3.8-5.5,5.7-8.2,2-2.7,4.1-5.3,6.1-7.9-1.9,2.8-3.8,5.5-5.8,8.2l-5.6,8.3c-1.8,2.8-3.6,5.6-5.3,8.4l-2.5,4.3-1.3,2.1-1.2,2.2c-6.5,11.6-12.1,23.7-16.4,36.3-1.1,3.1-2,6.3-3,9.5l-1.3,4.8c-.4,1.6-.8,3.2-1.1,4.9-1.4,6.5-2.5,13-3.1,19.6-.6,6.6-.8,13.2-.4,19.9.2,3.3.5,6.6,1,9.9.5,3.2,1.2,6.5,2.1,9.6l-1.8.6h0Z"/>
        </g>
      </g>
      <g>
        <path class="st10" d="M426.1,396.3s5.1-1.6,9.4,0,5.3-.4,8-.7c2.7-.3,5.9.6,9.1,1.4,3.2.8,3.4-2.8,12.9-.7-16-3.5,6-22,5.5-44.5-.3-13.9-2.2-44-2.2-44l-42.8,5s-4.6,74.1,0,83.7h0Z"/>
        <g>
          <g>
            <rect class="st9" x="444.4" y="300.1" width="3.5" height="161.7"/>
            <g>
              <path class="st9" d="M472.7,475.4c-.1,0-.3,0-.5,0-6.5-.3-14.2-9.8-16.5-12.7h-9.6c-1,0-1.7-.8-1.7-1.7s.8-1.7,1.7-1.7h11.4l.5.7c2.4,3.3,9.6,11.8,14.3,12,1.6,0,2.6-.4,2.9-1.3.3-1-.2-2.2-.6-2.5-.3,0-.5,0-.5,0s-.1.1-.1.2c0,.9-.6,1.7-1.5,1.8-.9.2-1.8-.5-2-1.5-.1-.8.2-2.2,1.2-3.1.5-.5,1.8-1.3,3.8-.8,2.1.5,3.6,3.3,3.3,6-.3,2.3-2.1,4.6-6.1,4.6h0ZM474,468.2h0ZM474.7,468.2h0Z"/>
              <path class="st9" d="M419.6,475.4c-4,0-5.8-2.3-6.1-4.6-.4-2.7,1.2-5.5,3.3-6,2-.5,3.2.3,3.8.8,1,.9,1.3,2.3,1.2,3.1-.1,1-1,1.6-2,1.5-.9-.1-1.5-1-1.5-1.8,0,0,0-.2-.1-.2,0,0-.2,0-.6,0-.3.2-.9,1.4-.6,2.5.3.9,1.2,1.4,2.9,1.3,4.8-.2,12-8.7,14.3-12l.5-.7h11.4c1,0,1.7.8,1.7,1.7s-.8,1.7-1.7,1.7h-9.6c-2.2,2.9-9.9,12.4-16.5,12.7-.2,0-.3,0-.5,0h0ZM418.3,468.2h0Z"/>
            </g>
          </g>
          <path class="st10" d="M463.1,251.1c-.8-6.5,4.7-19.4,7.6-26.7,2.9-7.3,3-18.4,3-18.4,0,0-11.9-4-16-5.2-4-1.2-4-14.2-4-14.2h-15.1s0,13.1-4,14.2-15.6,5.5-15.6,5.5c0,0-3.1,11.5-.3,18.8,2.9,7.3,11.2,19.3,10.4,25.9-.8,6.5-1.5,22.6-.4,33.2,1.2,10.6-10.8,46.7-10.8,46.7h56.3s-13.1-35.9-12-46.4,1.6-26.9.8-33.5h0Z"/>
          <path class="st10" d="M434.6,200.7s.8,6,2.7,17.1c2,12.1,15.8,39.6,15.8,48.5s-8.6,121.7-3.7,137.6c-9,5.2-17.9-1-21.1-.6-3.3.5-6,4.6-11.8-.8,3.3-6.9,4.6-51.8-1.3-100.3-1.5-12.5,3.7-20.6,8.9-32.7,7.5-17.4-3.7-34-5.3-40.2-1.6-6.1-1.5-23.8-1.4-24.4,5.5-2,17.3-4.3,17.3-4.3h0Z"/>
          <path class="st10" d="M457.8,200.7s-.8,7.3-2.6,17.8c-2,11-15.9,36.9-15.9,45.8s10,122.3,5.1,138.2c9,5.2,19-.7,22.3-.2,3.3.5,6,4.6,11.8-.8-3.3-6.9-6.9-50.7-1-99.2,1.5-12.5-6-24.6-11.2-36.7-7.5-17.4,7.3-33,8.9-39.2,1.6-6.1-.8-20.8-.9-21.4-5.6-2.6-16.5-4.3-16.5-4.3h0Z"/>
        </g>
        <g>
          <g>
            <path class="st10" d="M417.3,205s-5.7,11.8-7,45c-.5,12.6-4.9,39.1-2.8,59,9.2-.2,9.9,0,9.9,0,0,0,.4-20.4,2.9-35.2s4.4-27.9,5.4-34-8.5-34.8-8.5-34.8h0Z"/>
            <path class="st10" d="M474.3,205s5.7,11.8,7,45c.5,12.6,4.9,39.1,2.8,59-9.2-.2-10,0-10,0,0,0-.4-20.4-2.9-35.2s-4.4-27.9-5.4-34,8.5-34.8,8.5-34.8Z"/>
            <path class="st12" d="M434.6,200.7s1.3,6.3,1.4,17.5,17,39.2,17,48.1-8.6,121.7-3.7,137.6c-9,5.2-17.9-1-21.1-.6-3.3.5-6,4.6-11.8-.8,3.3-6.9,4.6-51.8-1.3-100.3-1.5-12.5,3.7-20.6,8.9-32.7,7.5-17.4-3.7-34-5.3-40.2-1.6-6.1-1.5-23.8-1.4-24.4,5.5-2,17.3-4.3,17.3-4.3h0Z"/>
          </g>
          <path class="st12" d="M457.8,200.7s0,6.8-.2,18-18.2,36.7-18.2,45.6,10,122.3,5.1,138.2c9,5.2,19-.7,22.3-.2,3.3.5,6,4.6,11.8-.8-3.3-6.9-6.9-50.7-1-99.2,1.5-12.5-6-24.6-11.2-36.7-7.5-17.4,7.3-33,8.9-39.2,1.6-6.1-.8-20.8-.9-21.4-5.6-2.6-16.5-4.3-16.5-4.3h0Z"/>
          <g>
            <path class="st19" d="M469.2,294.3c-.1,0-.2,0-.2-.2-.8-4.9-4-11.5-6.9-17.4-2.8-5.7-5.5-11.1-5.5-14.1,0-6,4.6-22.2,4.8-22.9,0-.1.2-.2.3-.2.1,0,.2.2.2.3,0,.2-4.7,16.9-4.8,22.8,0,2.9,2.6,8.2,5.4,13.9,2.9,5.9,6.2,12.5,7,17.5,0,.1,0,.3-.2.3h0,0Z"/>
            <path class="st19" d="M457.1,287.2c-.1,0-.2,0-.2-.2,0-.1-5.5-15-6.6-22-1.2-7,3.6-19.5,3.9-20,0-.1.2-.2.3-.1s.2.2.1.3-5,12.9-3.8,19.8c1.1,6.9,6.5,21.7,6.6,21.9,0,.1,0,.3-.1.3,0,0,0,0,0,0h0Z"/>
          </g>
          <g>
            <path class="st19" d="M423.1,294.3h0c-.1,0-.2-.1-.2-.3.8-5,4.1-11.6,7-17.5,2.8-5.7,5.5-11,5.4-13.9,0-5.9-4.8-22.6-4.8-22.8,0-.1,0-.3.2-.3.1,0,.3,0,.3.2.2.7,4.7,17,4.8,22.9,0,3-2.6,8.4-5.5,14.1-2.9,5.9-6.2,12.5-6.9,17.4,0,.1-.1.2-.2.2h0Z"/>
            <path class="st19" d="M435.2,287.2s0,0,0,0c-.1,0-.2-.2-.1-.3,0-.1,5.4-15,6.6-21.9,1.1-6.9-3.8-19.6-3.8-19.8s0-.3.1-.3c.1,0,.3,0,.3.1.2.5,5,13,3.9,20-1.2,6.9-6.6,21.8-6.6,22,0,.1-.1.2-.2.2h0Z"/>
          </g>
          <path class="st10" d="M426.6,253.9s6.2,7.3,19.6,6.3,18.1-6.3,18.1-6.3c0,0,1.5,7.6,1.5,10.2,0,2.6-20.7,11-39.9,1.5-1.3-3,.7-11.7.7-11.7h0Z"/>
        </g>
      </g>
      <g>
        <g>
          <g>
            <path class="st10" d="M351.9,460.7s.5,4.9,0,8-.6,5.8-.4,7.3,2.2,1.2,4.9,1.4,28.3.2,32.5,0,1.4-6.6-7.2-7.8-17.3-7.1-19.2-10.8-10.5,1.8-10.5,1.8Z"/>
            <path class="st7" d="M381.7,469.7c-5.1-.7-10.1-3-13.9-5.5-4.8,3.2-9.8,5.5-15.7,2.5,0,.3-.1,1.8-.2,2.1-.5,3.1-.6,5.8-.4,7.3s2.2,1.2,4.9,1.4,28.3.2,32.5,0,1.4-6.6-7.2-7.8h0Z"/>
            <path class="st3" d="M351.5,473.9c0,.9,0,1.6,0,2.2.2,1.6,2.2,1.2,4.9,1.4s28.3.2,32.5,0c2.1,0,2.4-1.8,1.1-3.6h-38.6Z"/>
            <path class="st10" d="M291.8,459.1s-.6,6.5,0,9.6c.5,3.1.6,5.8.4,7.3s-2.2,1.2-4.9,1.4-28.3.2-32.5,0-1.4-6.6,7.2-7.8,17.3-7.1,19.2-10.8,10.6.2,10.6.2Z"/>
            <path class="st7" d="M291.5,465.6c-5.2.9-10.6,1.2-14.2-2.5-3.8,2.9-9.5,5.8-15.3,6.6-8.7,1.2-11.4,7.6-7.2,7.8s29.8.2,32.5,0,4.8.2,4.9-1.4c.2-1.6,0-4.2-.4-7.3-.1-.8-.2-2-.2-3.1Z"/>
            <path class="st3" d="M253.6,473.9c-1.3,1.8-1,3.5,1.1,3.6,4.2.2,29.8.2,32.5,0s4.8.2,4.9-1.4c0-.6,0-1.3,0-2.2,0,0-38.6,0-38.6,0Z"/>
            <g>
              <path class="st7" d="M294.6,291.7s-4.3,25-6.2,44.3-4.6,39.2-4.8,53.1c-.2,13.9-1.4,49.2-5.2,69.4,9.2,1.9,14.9,3.2,14.9,3.2,0,0,6.8-37.2,8.6-60.9,1.8-22.6,7.4-28,10.7-45.2s5.1-17.8,5.1-17.8c0,0,2.9.4,3.4.8,3.1,9,9.2,26.7,11.6,32.2s5.6,26.2,7.3,37.1c1.7,10.5,9.1,49.5,10.5,55.1,7-.8,13.9-3.1,13.9-3.1,0,0-3.4-25.3-6-53.9-1.4-15-5.2-41.1-6.5-47.7-1.3-6.6-1.3-42.3-13.7-70.6-18.8,1.4-43.6,4-43.6,4h0Z"/>
              <path class="st10" d="M313.4,218.3s-10.5,1.4-20.5,3.6c-.3,6.7-2.8,14.4-2.5,22,.9,19.5,2,55.4-1.4,66.7,23.3,9.7,58.4,1.8,58.4,1.8,0,0-.9-46.2-.3-64.5-.7-7.6-.7-23.2-.7-23.2,0,0-18.8-5.8-22.1-6.2-3.3-.4-11,0-11,0h0Z"/>
            </g>
          </g>
          <g>
            <path class="st10" d="M311.4,212.2s-.4,5.9-2.2,10.5c2.1,6.8,8.8,5.6,11.7,5.2,2.9-.4,5.9-4.4,6.5-6-1.1-2.4-2-10.2-2-10.2l-13.9.5h0Z"/>
            <path class="st10" d="M304.3,193s-1.3,7.9,1.3,14.3c2.6,6.4,10.1,10.2,14.1,9.9,4.1-.4,11.2-6.6,10.9-19.3s-8.8-15.9-13.4-16.1-13.5,5.5-12.9,11.2h0Z"/>
            <path class="st10" d="M304.6,198.1s-1.5-3.3-3.3-2.8,0,6.1.7,7.9,2.9,2.2,3.1.8-.6-5.9-.5-5.9Z"/>
            <path class="st10" d="M330.8,197.2s1.5-3.3,3.3-2.8c1.8.5-.1,6.1-.8,7.9-.6,1.9-2.9,2.2-3.1.8-.2-1.4.6-5.9.6-5.9Z"/>
            <path class="st13" d="M302.6,196.7s-2.4-4.8,1.1-13.6c5.4-13.4,14.4-8.8,19.6-6.9,4.8,1.7,14.4,8.8,7.3,24.6-1.4-8.8-2.7-12.7-8.8-14.8-6.2-2.1-12.3-1.9-14.7,2.2-2.4,4-2,15-2,15l-2.4-6.5h0Z"/>
            <path class="st13" d="M309.5,185.8s15.9,4.8,23-2.6c7.1-7.4,2.6-15.1-1.8-12.1.2-3-6.6-1.8-9.1.3.6-2.9-4-2.2-7.1.5-1.7-1.5-7.8,2.9-7.7,4.8-3,.6-6.6,7-5,16.5,3.3-5.7,7.7-7.3,7.7-7.3h0Z"/>
          </g>
          <g>
            <g>
              <g>
                <path class="st10" d="M303.5,239.7s16.4,1.9,24.9,0c.2,7.6-11.8,11.2-16.3,10.1s-10.8-7.4-8.6-10.1Z"/>
                <path class="st10" d="M361,272.6s-16.6-25.7-17.3-26.3-15.2-6.6-15.2-6.6c0,0-2.2,7-12.8,6.3-10.6-.7-12.1-6.3-12.1-6.3l-15.2,6-15.4,27.7,14.3,5.5-3.8,62.4,62.2-.4-1.3-61.1,16.8-7.2h0Z"/>
              </g>
              <g>
                <g>
                  <path class="st4" d="M312,271.9s4.9,6.1,5.8,9.8c-2.3,1.6-3.2,2.3-3.2,2.3l9.4.3,4.9-7.8-3.4.9s-1.9-4.2-3.5-5.3c-1.6-1.1-10-.2-10-.2h0Z"/>
                  <path class="st4" d="M310.6,272.6s2.8,3,3.8,5.6c-2.1,4.7-3.8,7.3-3.8,7.3l-7-3.2s3-6.7,3.9-8.1c.9-1.4,3.1-1.6,3.1-1.6Z"/>
                </g>
                <g>
                  <path class="st4" d="M333.8,295.7s-7.5,2.2-11.3,1.6c-.6-2.7-.9-3.9-.9-3.9l-3.9,8.6,5.3,7.5.5-3.5s4.6-.1,6.3-1.2c1.6-1.1,4-9.1,4-9.1h0Z"/>
                  <path class="st4" d="M333.6,294.1s-3.8,1.5-6.6,1.3c-3.5-3.7-5.3-6.3-5.3-6.3l5.6-5.2s5.1,5.3,6,6.7c.9,1.4.3,3.5.3,3.5h0Z"/>
                </g>
                <g>
                  <path class="st4" d="M302.6,303.9s2.6-7.4,5.3-10.1c2.5,1.1,3.6,1.5,3.6,1.5l-4.7-8.2h-9.2c0-.1,2.5,2.3,2.5,2.3,0,0-2.6,3.8-2.7,5.8,0,2,5.1,8.6,5.1,8.6h0Z"/>
                  <path class="st4" d="M303.9,304.7s1-4,2.8-6.2c5.1-.7,8.2-.6,8.2-.6l.9,7.6s-7.3,1-8.9,1c-1.7,0-3-1.8-3-1.8h0Z"/>
                </g>
              </g>
            </g>
            <g>
              <path class="st10" d="M314.4,258.9s1.6,0,3.2-1.2c1.6-1.3,4.3-5.2,5.3-6.4,1-1.2,1.2-1.5,1.9-.8.7.7-.1,2.6-1.2,4.5-1,1.9,1.2.7,3.6-.2,2.4-.9,6.6-1.2,7.8-.6,1.1.5.1,1.5-1.1,1.6-1.3,0-5.8,1-7.9,2.5,6.3-1.4,9.9-1.5,11.4-.9,1.5.7,0,1.9-1.8,1.9s-6.1.2-8.3,1.4c5-.4,7.9.8,8.7,1.7s-.7,1.6-1.6,1.2-5.2-1-7.7-.1c3.9.3,6.5,1.9,6.8,2.8s-.9,1-1.9.7c-1.1-.3-3.3-1.8-7-1.1s-8.4-.2-8.4-.2l-1.8-6.7h0Z"/>
              <path class="st10" d="M292.9,221.9s-4.4,3-10.5,12.1c-6.1,9.1-16.3,30.7-16.7,35.6-.3,4.9,1.2,13.5,21.2,7.1,14.7-4.7,31.6-9.1,31.6-9.1l-2.9-10.6s-28.7,5.8-31.4,5.7c-2.7-.2,3.9-11.2,8.8-19.9s-.2-20.9-.2-20.9h0Z"/>
            </g>
            <g>
              <path class="st10" d="M331.5,289.3s-1.4.8-3.4.4c-2-.4-6.2-2.6-7.7-3.2s-1.8-.7-2,.2c-.3.9,1.3,2.2,3.1,3.4,1.8,1.2-.8,1.2-3.3,1.5s-6.4,2-7.2,3c-.8,1,.6,1.4,1.8.9,1.2-.5,5.6-1.8,8.1-1.5-6.3,1.7-9.5,3.3-10.5,4.5-1,1.3.9,1.6,2.4.9,1.6-.8,5.5-2.6,8-2.6-4.6,1.9-6.7,4.4-6.9,5.6-.3,1.2,1.4,1,2,.3s4.2-3.3,6.7-3.7c-3.3,2.1-4.9,4.7-4.8,5.6.1,1,1.2.5,2-.3s2.1-3.1,5.7-4.2c3.6-1.1,7.3-4.1,7.3-4.1l-1.5-6.8h0Z"/>
              <path class="st10" d="M346.4,224.6s4.3,2.8,10.4,11.9c6.1,9.1,16.4,30.7,16.7,35.6.3,4.9,0,11.5-19.7,19.1-14.4,5.5-21.7,7.3-21.7,7.3l-4.7-9.9s27.8-13.8,29-16.2c1.7-3.3-9.9-18.8-14.7-27.4s4.8-20.3,4.8-20.3h0Z"/>
              <path class="st16" d="M291.8,244.7s0,0,0,0c0,0,0-.1,0-.2,5.3-12.5,1.6-21.6,1.5-21.7,0,0,0-.1,0-.2,0,0,.1,0,.2,0,0,0,3.9,9.4-1.5,21.9,0,0,0,0-.1,0h0Z"/>
              <path class="st16" d="M343.1,247.2s-.1,0-.1,0c-4.3-10.3,2.1-21.1,2.2-21.2,0,0,.1,0,.2,0,0,0,0,.1,0,.2,0,.1-6.5,10.8-2.2,21,0,0,0,.1,0,.2h0,0Z"/>
              <path class="st16" d="M294.3,226.3c0,0-.1,0-.1-.1,0,0,0-.1,0-.1l14.9-3.5c0,0,.1,0,.2,0,0,0,0,.1,0,.1l-14.9,3.5h0Z"/>
              <path class="st16" d="M344.4,228h0l-14.4-4.1c0,0-.1,0,0-.1,0,0,0-.1.1,0l14.4,4.1c0,0,.1,0,0,.1,0,0,0,0-.1,0Z"/>
            </g>
          </g>
        </g>
        <g>
          <g>
            <g>
              <path class="st10" d="M357.4,401l-21.7,83.3c-.5,1.8.8,3.6,2.7,3.6h0c1.2,0,2.3-.8,2.7-1.9l24.4-79.7-8-5.4h0Z"/>
              <path class="st10" d="M367.8,407.6l-13,73.5c-.4,1.8,1,3.4,2.8,3.4h.1c1.3,0,2.4-.9,2.7-2.1l15.7-72-8.3-2.8Z"/>
              <path class="st10" d="M403.6,401l21.7,83.3c.5,1.8-.8,3.6-2.7,3.6h0c-1.2,0-2.3-.8-2.6-1.9l-24.4-79.7,8-5.4h0Z"/>
              <path class="st10" d="M393.3,407.6l13,73.5c.4,1.8-1,3.5-2.8,3.5h0c-1.3,0-2.5-.9-2.8-2.2l-15.7-72,8.3-2.8h0Z"/>
              <g>
                <path class="st13" d="M388.3,368.5s-.7-45.8-23.8-52.4-37.4,9-41,29.8c-3.6,20.8,7.7,66.1,53.1,67.3s51.1-18,50-21.3c-1.1-3.3-38.4-23.4-38.4-23.4h0Z"/>
                <path class="st7" d="M388.3,368.5s-.7-45.8-23.8-52.4c-2-.6-3.9-1-5.7-1.2-15.6-.1-25.4,12.5-28.2,28.5-3.3,18.9,5.9,54.1,47.2,55.2,31.8.9,43.3-3.3,46-9.4-8.9-6.4-35.6-20.8-35.6-20.8h0Z"/>
              </g>
            </g>
            <g>
              <g>
                <path class="st13" d="M364,311.3s9.1,1.3.4-3.5c-13.9-7.7-12.9-25.5-11-36.3,1.6-9.2,5.5-14.1,9.3-15.6,5-2,5.2-.9,12.5-3.5,10.1-3.6,14.1,8.5,18.5,14.5s7.6,4.2,9.6,6.7c2.2,2.8,2,6.4,0,13s-1.3,9.6,4.1,10.6c5.4.9,8.4,5.5,5.5,11.2-2.8,5.8,4.6,3.2,7.2,5.6,2.6,2.5,6,6.3,5.6,11.6s-1.8,10.2-15.4,14-24,3-24,3l-22.3-31.5h0Z"/>
                <path class="st10" d="M464.7,305.1c-1.6.3-4.9,2.7-8.1,4.6.4-.4,6.5-5,6.9-5.8.6-1.1,0-2-2-.6-1.7,1.2-6.6,5.1-6.6,5.1,0,0,1.6-2.4,5.1-4.8,1.3-.9.6-2.3-.8-1.3-3.5,1.8-8.1,7.1-8.1,7.1,0,0-.3-1.5.1-3,.4-1.5-.3-2.9-1.2-2-.9.8-1.9,4.8-2.6,6.4-.7,1.6-1.8,3.5-1.9,3.8-.9,1-12,12-22.8,18.3-1.1.4-2.8.8-3.7,0-1.6-1.1-12.6-10.1-12.9-10.4l-6.7,8.2s13.2,11.3,18.9,14.1c.4.3,1,.5,1.5.6h0c4.4.9,8.1-3.7,8.1-3.7h0c7.1-6.1,17-18.3,18.6-19.8,2-1.8,3.3-2.5,3.3-2.5,0,0,2.3-1,4.5-2s3.7-4.5,9.2-5.7c1.8-.4,1.1-1.6.4-1.6-1.9,0-3.8.5-5.9,1.7,2-1.8,7.2-4.6,7.6-5.6.4-1-.3-1.4-1-1.3h0Z"/>
                <path class="st18" d="M407.5,322.7s-10.9-12.3-13-14.3-9-4.1-13-4.3c-4-.1-20.4.8-20.4.8,0,0-4.1.8-8.8,5.5-4.7,4.7-11,18.8-11,18.8l12.2,7.6,1.3-1.5,7.8,28.6h28.3l4.6-33.4,3.5,2.5,8.7-10.3h0Z"/>
                <path class="st16" d="M372,338.4c-4.8,0-9.6-2.5-9.7-2.6,0,0,0-.1,0-.2,0,0,.1,0,.2,0,.1,0,12.1,6.5,17.2-1.3,0,0,.1,0,.2,0,0,0,0,.1,0,.2-2,3-4.9,3.9-7.9,3.9h0Z"/>
                <path class="st16" d="M388.9,337.8c-2.5,0-4.8-1.3-4.8-1.3,0,0,0-.1,0-.2,0,0,.1,0,.2,0,0,0,3.9,2.3,7.1.8,2-.9,3.3-3.1,3.9-6.4,0,0,0-.1.1-.1,0,0,.1,0,.1.1-.6,3.4-1.9,5.6-4,6.6-.8.4-1.7.5-2.5.5h0Z"/>
                <path class="st16" d="M356.2,332.4h0c0,0-.1,0,0-.2,3.1-10.2-3.7-19.1-3.8-19.2,0,0,0-.1,0-.2,0,0,.1,0,.2,0,0,0,7,9.1,3.9,19.4,0,0,0,0-.1,0h0Z"/>
                <path class="st10" d="M379.8,267s4.1,2.7,3.3,9c-.5,4.4.5,8.2.1,11.1s-4.7,5-5.8,5.3c.2,3.9.6,10.2.6,10.2l9.1,2.4s12.9,16.3-4.5,17.5c-17.4,1.2-21.7-17.6-21.7-17.6l5.3-1.8.5-18.6c-1.7-.2-3.2-1.5-3.2-4.1s2-2.7,2.2-1.7c1.2.5,1.9-.8,1.9-.8,0,0,8.2-5,12-11h0Z"/>
                <path class="st10" d="M366.7,287.4l-.9-2.9c-2.8.3-4.2-.9-4.2-5s4-1.6,4.2-.7c.5-.5,1.6-1.4,1.6-1.4,0,0,8.5-4.5,12.3-10.5,0,0,4.1,2.7,3.3,9-.5,4.4.5,8.2.1,11.1s-3.8,7.1-4.9,7.5c0,0-1.8,1-3.8.3-1.9-.6-6.1-4.4-7.7-7.5h0Z"/>
                <path class="st7" d="M364.1,283c0,.4.3.7.7.7s.7-.3.7-.7-.3-.7-.7-.7-.7.3-.7.7Z"/>
              </g>
              <g>
                <path class="st10" d="M427,462.7s1.2,4,2,6.1c.7,2.1-.4,5.4.9,9.7s1.5,6.8,1.5,6.8h2.9s-.3-6,0-9.2c3.2,6.4,6.6,10.4,9.9,12.1,3.2,1.7,15.2,3.5,16.7,2.3,1.5-1.1-9.1-10.9-14.4-15.8-5.2-5-11.7-14.4-11.7-14.4l-7.8,2.4h0Z"/>
                <path class="st7" d="M453.6,481.5c-1.7,2.7-5.2,4.3-9.1,3.2-8.4-2.8-8-13.5-15.4-15.6.5,2.2-2.1,2.9-.8,7,1.3,4.3,3.1,9.2,3.1,9.2h2.9s-.3-6,0-9.2c3.2,6.4,6.6,10.4,9.9,12.1,3.2,1.7,15.2,3.5,16.7,2.3.9-.7-2.9-4.8-7.2-9h0Z"/>
              </g>
              <path class="st11" d="M361.5,361.3s24.1.9,29.8-1.4c14.1,7.5,28.7,25.5,28.7,38.4s16.1,62,16.1,62l-10.4,3.7s-24.1-43.3-22.6-61.8c-14.6-16.1-41.6-40.8-41.6-40.8h0Z"/>
              <g>
                <path class="st10" d="M419.4,448.8s-1.4,3.9-2.1,6.1c-.7,2.2-3.6,4.1-5.2,8.3-1.5,4.2-2.9,6.3-2.9,6.3l2.3,1.8s3.4-5,5.6-7.3c-1.3,7.1-1,12.3.5,15.6,1.5,3.3,10,12,11.9,12,1.9,0-.7-14.2-1.9-21.3-1.1-7.1-.6-18.5-.6-18.5l-7.6-2.8h0Z"/>
                <path class="st7" d="M429.2,479.8c-3,1.1-4.7,1-7.1-2.2-5-7.3-.3-16.3-5-22.4-.9,2-3.4,1-4.9,5-1.5,4.2-3.1,9.2-3.1,9.2l2.3,1.8s3.4-5,5.6-7.3c-1.3,7.1-1,12.3.5,15.6,1.5,3.3,10,12,11.9,12,1.2,0,.6-5.6-.3-11.6h0Z"/>
              </g>
              <path class="st17" d="M361.5,361.3s-8,10.4,0,25c8,14.6,58.6,9.7,58.6,9.7l-1.5,53.9,9.8,2.2s9.2-58.8,8.6-67.4c-.7-8.6-67.6-22.5-75.4-23.5h0Z"/>
            </g>
          </g>
          <g>
            <path class="st4" d="M463.2,296.8l-30.8-13.4-12.6,5.6-40.9,93.9,48.1,21,40.5-92.8-4.2-14.3h0ZM444.4,300.1c-1.4-.6-2-2.2-1.4-3.6s2.2-2,3.6-1.4c1.4.6,2,2.2,1.4,3.6s-2.2,2-3.6,1.4Z"/>
            <path class="st8" d="M434.3,363.7c0,0-.1,0-.2,0l-30.4-12.8c-.2-.1-.4-.4-.3-.7.1-.3.4-.4.7-.3l30.4,12.8c.2.1.4.4.3.7,0,.2-.3.3-.5.3h0Z"/>
            <path class="st8" d="M430.7,370.9c0,0-.1,0-.2,0l-30.4-12.8c-.2-.1-.4-.4-.3-.7.1-.3.4-.4.7-.3l30.4,12.8c.2.1.4.4.3.7,0,.2-.3.3-.5.3h0Z"/>
            <path class="st8" d="M427.1,378.2c0,0-.1,0-.2,0l-30.4-12.8c-.2-.1-.4-.4-.3-.7.1-.3.4-.4.7-.3l30.4,12.8c.2.1.4.4.3.7,0,.2-.3.3-.5.3h0Z"/>
            <path class="st8" d="M423.5,385.4c0,0-.1,0-.2,0l-30.4-12.8c-.2-.1-.4-.4-.3-.7.1-.3.4-.4.7-.3l30.4,12.8c.2.1.4.4.3.7,0,.2-.3.3-.5.3h0Z"/>
            <g>
              <polygon class="st8" points="461.1 299.1 460.9 298.2 460.1 297.9 460.3 297.4 461.3 297.8 461.6 298.9 461.1 299.1"/>
              <path class="st8" d="M458.3,297.1l-1.7-.8.2-.5,1.7.8-.2.5ZM454.9,295.6l-1.7-.8.2-.5,1.7.8-.2.5ZM451.4,294.1l-1.7-.8.2-.5,1.7.8-.2.5ZM447.9,292.6l-1.7-.8.2-.5,1.7.8-.2.5ZM444.5,291.1l-1.7-.8.2-.5,1.7.8-.2.5ZM441,289.5l-1.7-.8.2-.5,1.7.8-.2.5ZM437.6,288l-1.7-.8.2-.5,1.7.8-.2.5Z"/>
              <polygon class="st8" points="432.5 286.6 432.3 286.1 433.3 285.6 434.3 286.1 434.1 286.5 433.3 286.2 432.5 286.6"/>
              <path class="st8" d="M383.6,379.5l-.5-.2.8-1.8.5.2-.8,1.8ZM385.2,375.9l-.5-.2.8-1.8.5.2-.8,1.8ZM386.8,372.2l-.5-.2.8-1.8.5.2-.8,1.8ZM388.3,368.6l-.5-.2.8-1.8.5.2-.8,1.8ZM389.9,364.9l-.5-.2.8-1.8.5.2-.8,1.8ZM391.5,361.2l-.5-.2.8-1.8.5.2-.8,1.8ZM393.1,357.6l-.5-.2.8-1.8.5.2-.8,1.8ZM394.7,353.9l-.5-.2.8-1.8.5.2-.8,1.8ZM396.3,350.3l-.5-.2.8-1.8.5.2-.8,1.8ZM397.9,346.6l-.5-.2.8-1.8.5.2-.8,1.8ZM399.5,342.9l-.5-.2.8-1.8.5.2-.8,1.8ZM401.1,339.3l-.5-.2.8-1.8.5.2-.8,1.8ZM402.7,335.6l-.5-.2.8-1.8.5.2-.8,1.8ZM404.3,332l-.5-.2.8-1.8.5.2-.8,1.8ZM405.9,328.3l-.5-.2.8-1.8.5.2-.8,1.8ZM407.5,324.6l-.5-.2.8-1.8.5.2-.8,1.8ZM409.1,321l-.5-.2.8-1.8.5.2-.8,1.8ZM410.7,317.3l-.5-.2.8-1.8.5.2-.8,1.8ZM412.3,313.7l-.5-.2.8-1.8.5.2-.8,1.8ZM413.9,310l-.5-.2.8-1.8.5.2-.8,1.8ZM415.5,306.3l-.5-.2.8-1.8.5.2-.8,1.8ZM417.1,302.7l-.5-.2.8-1.8.5.2-.8,1.8ZM418.7,299l-.5-.2.8-1.8.5.2-.8,1.8ZM420.3,295.4l-.5-.2.8-1.8.5.2-.8,1.8ZM421.7,291.8v-.2c-.1,0-.4,0-.4,0h0c0,0,.1-.2.1-.2l1.8-.9.2.5-1.8.9h0ZM425.3,290.1l-.2-.5,1.8-.9.2.5-1.8.9ZM428.9,288.3l-.2-.5,1.8-.9.2.5-1.8.9Z"/>
              <polygon class="st8" points="383 382.8 381.8 382.3 382.3 381.2 382.8 381.4 382.5 382.1 383.2 382.4 383 382.8"/>
              <path class="st8" d="M422.8,400.2l-1.8-.8.2-.5,1.8.8-.2.5ZM419.2,398.6l-1.8-.8.2-.5,1.8.8-.2.5ZM415.5,397l-1.8-.8.2-.5,1.8.8-.2.5ZM411.9,395.4l-1.8-.8.2-.5,1.8.8-.2.5ZM408.3,393.9l-1.8-.8.2-.5,1.8.8-.2.5ZM404.7,392.3l-1.8-.8.2-.5,1.8.8-.2.5ZM401.1,390.7l-1.8-.8.2-.5,1.8.8-.2.5ZM397.4,389.1l-1.8-.8.2-.5,1.8.8-.2.5ZM393.8,387.5l-1.8-.8.2-.5,1.8.8-.2.5ZM390.2,386l-1.8-.8.2-.5,1.8.8-.2.5ZM386.6,384.4l-1.8-.8.2-.5,1.8.8-.2.5Z"/>
              <polygon class="st8" points="425.7 401.5 424.6 401 424.8 400.5 425.5 400.8 425.8 400.1 426.2 400.3 425.7 401.5"/>
              <path class="st8" d="M427,398.5l-.5-.2.8-1.8.5.2-.8,1.8ZM428.6,394.8l-.5-.2.8-1.8.5.2-.8,1.8ZM430.2,391.2l-.5-.2.8-1.8.5.2-.8,1.8ZM431.8,387.5l-.5-.2.8-1.8.5.2-.8,1.8ZM433.4,383.9l-.5-.2.8-1.8.5.2-.8,1.8ZM435,380.2l-.5-.2.8-1.8.5.2-.8,1.8ZM436.6,376.5l-.5-.2.8-1.8.5.2-.8,1.8ZM438.2,372.9l-.5-.2.8-1.8.5.2-.8,1.8ZM439.8,369.2l-.5-.2.8-1.8.5.2-.8,1.8ZM441.4,365.6l-.5-.2.8-1.8.5.2-.8,1.8ZM443,361.9l-.5-.2.8-1.8.5.2-.8,1.8ZM444.6,358.3l-.5-.2.8-1.8.5.2-.8,1.8ZM446.2,354.6l-.5-.2.8-1.8.5.2-.8,1.8ZM447.8,350.9l-.5-.2.8-1.8.5.2-.8,1.8ZM449.3,347.3l-.5-.2.8-1.8.5.2-.8,1.8ZM450.9,343.6l-.5-.2.8-1.8.5.2-.8,1.8ZM452.5,340l-.5-.2.8-1.8.5.2-.8,1.8ZM454.1,336.3l-.5-.2.8-1.8.5.2-.8,1.8ZM455.7,332.7l-.5-.2.8-1.8.5.2-.8,1.8ZM457.3,329l-.5-.2.8-1.8.5.2-.8,1.8ZM458.9,325.3l-.5-.2.8-1.8.5.2-.8,1.8ZM460.5,321.7l-.5-.2.8-1.8.5.2-.8,1.8ZM462.1,318l-.5-.2.8-1.8.5.2-.8,1.8ZM463.7,314.4l-.5-.2.8-1.8.5.2-.8,1.8ZM464.1,310.6l-.5-1.9h.5c0-.1.5,1.8.5,1.8h-.5ZM463.1,306.8l-.5-1.9h.5c0-.1.5,1.8.5,1.8h-.5ZM462.1,302.9l-.5-1.9h.5c0-.1.5,1.8.5,1.8h-.5Z"/>
            </g>
            <g>
              <path class="st15" d="M419.6,346.6s-1.5-9.7,9.5-13.1c11-3.4,15-4.9,17-8.3-7.1,18.4-11.8,25.1-25.3,22.9,11.1-4.9,19.3-16.1,19.3-16.1,0,0-12.8,13.4-20.5,14.6h0Z"/>
              <path class="st15" d="M422.3,334.4s7.4-1.8,6.7-10.7c-.6-8.8-.7-12.1,1.2-14.6-11.2,10.5-14.7,15.8-9.3,24.8.4-9.3,6.1-18.5,6.1-18.5,0,0-6,13.1-4.7,18.9Z"/>
              <path class="st15" d="M431.7,325.9s-1.4-7.5,6.8-10.6c8.3-3.1,11.3-4.5,12.7-7.2-4.8,14.6-8.2,20-18.6,18.9,8.3-4.3,14.2-13.4,14.2-13.4,0,0-9.4,11-15.2,12.2h0Z"/>
            </g>
          </g>
          <path class="st10" d="M393.9,380.3c-1-1.3-4.5-3.4-7.5-5.6.5.2,7.2,3.9,8.1,4,1.2.1,1.9-.8-.3-2.1-1.8-1.1-7.3-4-7.3-4,0,0,2.9.5,6.5,2.8,1.4.9,2.4-.4.9-1.2-3-2.4-9.8-4.5-9.8-4.5,0,0,1.2-.9,2.8-1.1s2.5-1.4,1.4-1.9-5.1.2-7,.2c-1.7,0-3.9-.2-4.2-.2-1.2-.5-15.8-6.1-26-13.5-.8-.9-1.8-2.2-1.6-3.4.4-1.9,3.1-12.6,3.2-12.9l-9.3-5.8s-4.9,16.5-5.2,22.9c0,.5,0,1.1,0,1.6h0s0,0,0,0c1,4.3,6.6,5.9,6.6,5.9h0c8.5,4,23.6,8.1,25.6,9,2.4,1.1,3.6,2,3.6,2,0,0,1.8,1.7,3.7,3.3,1.9,1.5,5.6,1.6,9,6.1,1.1,1.5,1.9.3,1.6-.3-.8-1.7-2-3.3-3.9-4.7,2.5,1.1,7.1,4.8,8.2,4.7s1.1-.9.8-1.4h0Z"/>
        </g>
      </g>
    </g>
  </g>
</svg>