<svg width="559" height="559" viewBox="0 0 559 559" fill="none" xmlns="http://www.w3.org/2000/svg">
<path d="M350.079 122.522C338.139 108.122 323.829 96.942 300.183 95.2091C258.057 92.1234 235.496 129.275 204.929 150.986C166.806 178.064 116.876 171.445 81.5022 203.789C42.8642 239.118 56.1125 272.233 82.6202 290.993C109.128 309.753 114.629 339.57 133.4 377.079C152.171 414.588 197.428 451.035 234.959 454.344C259.667 456.524 285.124 445.344 307.629 436.456C343.863 422.202 380.545 414.979 417.864 404.884C448.631 396.555 480.863 382.714 494.413 351.645C513.173 308.591 498.829 247.872 466.81 221.387C434.79 194.901 407.198 191.581 385.117 168.393C371.277 153.982 361.83 136.687 350.079 122.522Z" fill="#077857"/>
<path opacity="0.7" d="M350.079 122.522C338.139 108.122 323.829 96.942 300.183 95.2091C258.057 92.1234 235.496 129.275 204.929 150.986C166.806 178.064 116.876 171.445 81.5022 203.789C42.8642 239.118 56.1125 272.233 82.6202 290.993C109.128 309.753 114.629 339.57 133.4 377.079C152.171 414.588 197.428 451.035 234.959 454.344C259.667 456.524 285.124 445.344 307.629 436.456C343.863 422.202 380.545 414.979 417.864 404.884C448.631 396.555 480.863 382.714 494.413 351.645C513.173 308.591 498.829 247.872 466.81 221.387C434.79 194.901 407.198 191.581 385.117 168.393C371.277 153.982 361.83 136.687 350.079 122.522Z" fill="white"/>
<path d="M109.665 335.624L95.5778 325.193C91.9841 322.534 88.6184 319.579 85.5158 316.361C83.0657 313.885 80.7589 311.273 78.6066 308.535L76.3706 305.326L96.9865 296.494C96.9865 296.494 97.8921 323.102 109.665 335.624Z" fill="#263238"/>
<path d="M79.4786 294.671C79.4786 294.671 83.9506 317.859 115.914 340.509C147.878 363.16 307.987 459.174 316.819 461.935C325.651 464.697 330.056 461.935 333.924 459.174C337.793 456.413 484.597 334.416 484.597 334.416C484.597 334.416 418.367 300.742 368.146 271.495C317.926 242.248 281.49 221.823 271.003 212.42C260.516 203.018 248.375 193.66 248.375 193.66C248.375 193.66 163.932 249.951 133.567 265.961C103.203 281.971 79.4786 294.671 79.4786 294.671Z" fill="#077857" stroke="#263238" stroke-linecap="round" stroke-linejoin="round"/>
<path d="M195.203 264.541L254.658 224.226" stroke="white" stroke-linecap="round" stroke-linejoin="round"/>
<path d="M137.436 303.716L188.495 269.092" stroke="white" stroke-linecap="round" stroke-linejoin="round"/>
<path d="M183.263 294.738L270.344 235.697" stroke="white" stroke-linecap="round" stroke-linejoin="round"/>
<path d="M153.11 315.187L174.33 300.798" stroke="white" stroke-linecap="round" stroke-linejoin="round"/>
<path d="M168.796 326.646L286.018 247.156" stroke="white" stroke-linecap="round" stroke-linejoin="round"/>
<path d="M199.217 328.111L301.704 258.627" stroke="white" stroke-linecap="round" stroke-linejoin="round"/>
<path d="M184.47 338.117L193.828 331.767" stroke="white" stroke-linecap="round" stroke-linejoin="round"/>
<path d="M200.156 349.576L317.378 270.086" stroke="white" stroke-linecap="round" stroke-linejoin="round"/>
<path d="M215.83 361.047L333.052 281.557" stroke="white" stroke-linecap="round" stroke-linejoin="round"/>
<path d="M290.367 332.594L348.738 293.017" stroke="white" stroke-linecap="round" stroke-linejoin="round"/>
<path d="M231.515 372.507L281.702 338.475" stroke="white" stroke-linecap="round" stroke-linejoin="round"/>
<path d="M323.259 332.393L364.412 304.477" stroke="white" stroke-linecap="round" stroke-linejoin="round"/>
<path d="M277.521 363.406L316.551 336.943" stroke="white" stroke-linecap="round" stroke-linejoin="round"/>
<path d="M247.19 383.966L270.813 367.957" stroke="white" stroke-linecap="round" stroke-linejoin="round"/>
<path d="M371.646 321.682L380.098 315.947" stroke="white" stroke-linecap="round" stroke-linejoin="round"/>
<path d="M262.875 395.437L364.412 326.579" stroke="white" stroke-linecap="round" stroke-linejoin="round"/>
<path d="M293.196 396.969L395.772 327.407" stroke="white" stroke-linecap="round" stroke-linejoin="round"/>
<path d="M278.55 406.896L287.024 401.161" stroke="white" stroke-linecap="round" stroke-linejoin="round"/>
<path d="M315.712 424.382C314.089 425.845 312.803 427.644 311.944 429.654C311.085 431.663 310.673 433.835 310.737 436.02C310.737 443.757 319.569 448.173 323.437 447.066C327.306 445.959 339.447 432.163 339.447 432.163C339.447 432.163 336.093 421.676 329.508 421.128C322.923 420.58 315.712 424.382 315.712 424.382Z" fill="#263238" stroke="#263238" stroke-linecap="round" stroke-linejoin="round"/>
<path d="M324.041 463.132C324.041 463.132 333.377 459.7 334.472 451.952C335.568 444.204 329.508 433.192 324.544 429.324C321.914 427.165 318.924 425.484 315.712 424.36C315.712 424.36 392.429 372.473 412.296 354.809C432.163 337.144 469.146 309.552 469.146 309.552C469.146 309.552 476.872 305.695 482.943 309.552C489.013 313.409 493.005 317.3 493.429 326.11C493.687 331.107 483.502 338.251 483.502 338.251L345.518 452.533C345.518 452.533 329.072 463.892 324.041 463.132Z" fill="white"/>
<mask id="mask0_9_1231" style="mask-type:luminance" maskUnits="userSpaceOnUse" x="315" y="307" width="179" height="157">
<path d="M324.041 463.132C324.041 463.132 333.377 459.7 334.472 451.952C335.568 444.204 329.508 433.192 324.544 429.324C321.914 427.165 318.924 425.484 315.712 424.36C315.712 424.36 392.429 372.473 412.296 354.809C432.163 337.144 469.146 309.552 469.146 309.552C469.146 309.552 476.872 305.695 482.943 309.552C489.013 313.409 493.005 317.3 493.429 326.11C493.687 331.107 483.502 338.251 483.502 338.251L345.518 452.533C345.518 452.533 329.072 463.892 324.041 463.132Z" fill="white"/>
</mask>
<g mask="url(#mask0_9_1231)">
<path d="M493.429 326.132C493.372 324.839 493.211 323.553 492.949 322.286C488.566 326.087 480.651 332.784 466.206 344.534C436.4 368.817 412.665 386.482 412.665 386.482C412.665 386.482 438.603 367.163 429.223 371.579C419.843 375.995 399.417 393.659 381.238 408.562C369.7 417.998 349.319 436.948 334.506 451.974C333.388 459.7 324.075 463.154 324.075 463.154C329.106 463.914 345.551 452.556 345.551 452.556L483.535 338.296C483.535 338.296 493.687 331.13 493.429 326.132Z" fill="#077857"/>
<path opacity="0.5" d="M493.429 326.132C493.372 324.839 493.211 323.553 492.949 322.286C488.566 326.087 480.651 332.784 466.206 344.534C436.4 368.817 412.665 386.482 412.665 386.482C412.665 386.482 438.603 367.163 429.223 371.579C419.843 375.995 399.417 393.659 381.238 408.562C369.7 417.998 349.319 436.948 334.506 451.974C333.388 459.7 324.075 463.154 324.075 463.154C329.106 463.914 345.551 452.556 345.551 452.556L483.535 338.296C483.535 338.296 493.687 331.13 493.429 326.132Z" fill="white"/>
</g>
<path d="M324.041 463.132C324.041 463.132 333.377 459.7 334.472 451.952C335.568 444.204 329.508 433.192 324.544 429.324C321.914 427.165 318.924 425.484 315.712 424.36C315.712 424.36 392.429 372.473 412.296 354.809C432.163 337.144 469.146 309.552 469.146 309.552C469.146 309.552 476.872 305.695 482.943 309.552C489.013 313.409 493.005 317.3 493.429 326.11C493.687 331.107 483.502 338.251 483.502 338.251L345.518 452.533C345.518 452.533 329.072 463.892 324.041 463.132Z" stroke="#263238" stroke-linecap="round" stroke-linejoin="round"/>
<path d="M384.111 171.154C384.111 171.154 389.489 167.029 390.897 164.346C392.094 162.11 392.977 158.834 391.814 156.363C391.559 155.775 391.183 155.246 390.71 154.813C390.237 154.379 389.678 154.05 389.07 153.847C388.461 153.643 387.817 153.57 387.178 153.632C386.54 153.694 385.921 153.889 385.363 154.206C382.065 156.196 381.618 163.15 382.401 166.504C382.468 166.783 384.055 171.199 384.111 171.154Z" fill="#263238"/>
<path d="M334.394 205.488C334.617 205.689 338.374 208.496 338.396 208.429C338.419 208.361 340.632 202.011 340.297 199.015C340.04 196.444 338.989 193.257 336.663 191.849C336.127 191.496 335.522 191.26 334.889 191.157C334.255 191.054 333.607 191.086 332.986 191.25C332.366 191.415 331.787 191.709 331.288 192.112C330.789 192.516 330.38 193.02 330.089 193.593C328.435 197.081 331.889 203.118 334.394 205.488Z" fill="#263238"/>
<path d="M446.35 178.41C446.35 178.41 426.573 198.243 426.327 222.962C426.081 247.681 445.467 267.895 445.467 267.895C445.467 267.895 465.245 248.05 465.479 223.343C465.714 198.635 446.35 178.41 446.35 178.41Z" fill="#263238"/>
<path d="M417.718 237.642C417.981 237.368 418.22 237.072 418.434 236.759C419.887 234.634 421.139 231.515 420.267 228.933C420.081 228.319 419.768 227.751 419.348 227.266C418.928 226.781 418.411 226.389 417.83 226.117C417.249 225.845 416.617 225.699 415.976 225.687C415.335 225.675 414.698 225.798 414.107 226.048C411.446 227.256 410.094 231.482 409.758 234.992C408.707 234.735 407.757 234.534 406.941 234.388L405.923 231.996C405.543 231.169 405.297 230.341 404.962 229.503C404.515 228.262 404.112 226.954 403.71 225.657C405.264 224.997 409.78 222.951 411.48 221.129C413.179 219.307 414.946 216.355 414.476 213.672C414.386 213.037 414.163 212.428 413.822 211.885C413.481 211.342 413.03 210.876 412.498 210.519C411.965 210.162 411.363 209.92 410.732 209.81C410.1 209.701 409.452 209.725 408.83 209.882C405.118 210.933 402.849 217.507 402.726 220.961C402.726 221.073 402.726 221.8 402.827 222.661C402.48 221.386 402.122 220.112 401.798 218.804C400.904 215.092 400.099 211.279 399.282 207.456C399.115 206.662 398.936 205.879 398.757 205.086C400.065 204.527 404.984 202.369 406.762 200.446C408.539 198.523 410.228 195.683 409.747 192.989C409.657 192.359 409.437 191.755 409.1 191.216C408.763 190.677 408.317 190.213 407.791 189.857C407.264 189.5 406.669 189.257 406.043 189.144C405.418 189.03 404.775 189.049 404.157 189.199C400.445 190.25 398.176 196.835 398.041 200.278C398.041 200.401 398.097 201.273 398.176 202.246C397.706 200.178 397.203 198.132 396.644 196.108C395.711 192.632 394.545 189.221 393.156 185.901C393.614 185.711 399.428 183.285 401.407 181.16C403.162 179.271 404.872 176.387 404.403 173.703C404.313 173.069 404.09 172.46 403.749 171.917C403.408 171.373 402.957 170.908 402.424 170.551C401.892 170.193 401.29 169.952 400.658 169.842C400.027 169.732 399.379 169.757 398.757 169.913C395.045 170.964 392.776 177.538 392.642 180.993C392.642 181.228 392.876 184.347 392.999 185.465C393.002 185.424 393.002 185.383 392.999 185.342C391.552 182.118 389.823 179.028 387.834 176.107C386.061 173.49 384.139 170.978 382.076 168.583C380.187 166.347 378.32 164.413 376.654 162.713C375.749 161.797 374.899 160.981 374.105 160.232H374.183C374.25 160.232 372.439 155.905 372.294 155.637C370.606 152.629 365.586 147.811 361.796 148.582C361.172 148.727 360.585 149.001 360.075 149.388C359.564 149.774 359.14 150.264 358.831 150.825C358.522 151.386 358.335 152.006 358.281 152.644C358.227 153.283 358.309 153.925 358.52 154.53C359.325 157.135 362.165 158.923 364.58 159.796C366.995 160.668 372.518 160.355 373.87 160.254C374.686 161.059 375.547 161.92 376.475 162.892C378.108 164.625 379.919 166.593 381.752 168.862C382.244 169.466 382.747 170.137 383.239 170.785C382.177 169.88 380.701 168.661 380.545 168.549C377.66 166.66 370.986 164.704 367.978 167.13C367.491 167.546 367.096 168.06 366.819 168.638C366.543 169.217 366.392 169.847 366.375 170.488C366.358 171.129 366.476 171.767 366.721 172.359C366.967 172.952 367.334 173.486 367.8 173.927C369.723 175.861 373.065 176.163 375.626 175.794C378.186 175.425 383.083 172.541 384.122 171.892C385.24 173.334 386.28 174.833 387.32 176.465C389.226 179.392 390.868 182.482 392.228 185.7C392.306 185.878 392.362 186.08 392.429 186.27C391.982 185.733 389.31 182.916 389.075 182.782C386.414 180.546 379.986 177.907 376.777 179.987C376.253 180.348 375.81 180.816 375.476 181.358C375.142 181.901 374.926 182.507 374.839 183.138C374.753 183.77 374.799 184.412 374.975 185.024C375.151 185.636 375.452 186.205 375.86 186.695C377.56 188.83 380.847 189.467 383.418 189.411C386.392 189.344 392.273 186.482 392.496 186.37C393.756 189.617 394.809 192.941 395.649 196.321C396.275 198.814 396.767 201.374 397.326 203.945C396.733 203.263 394.251 200.681 394.05 200.513C391.389 198.277 384.961 195.639 381.752 197.718C381.227 198.079 380.782 198.546 380.447 199.088C380.113 199.631 379.895 200.237 379.809 200.869C379.723 201.501 379.769 202.144 379.946 202.756C380.123 203.369 380.426 203.938 380.835 204.426C382.535 206.561 385.822 207.21 388.393 207.154C391.289 207.087 396.946 204.37 397.415 204.135C397.65 205.309 397.885 206.472 398.109 207.646C398.846 211.469 399.562 215.304 400.345 219.072C400.635 220.38 400.959 221.654 401.284 222.94C400.356 221.934 398.623 220.145 398.455 220.011C395.805 217.775 389.377 215.125 386.157 217.205C385.633 217.567 385.19 218.034 384.856 218.577C384.522 219.119 384.306 219.725 384.219 220.357C384.133 220.988 384.179 221.63 384.355 222.242C384.531 222.855 384.832 223.424 385.24 223.913C386.929 226.048 390.227 226.685 392.798 226.63C395.369 226.574 400.188 224.394 401.53 223.756C402.089 225.88 402.648 227.971 403.374 230.006C403.687 230.878 403.956 231.795 404.302 232.611C404.481 233.047 404.649 233.483 404.828 233.908L404.079 233.829C404.079 233.829 404.012 235.037 404.079 237.005C401.272 234.936 397.203 233.136 394.531 234.321C393.952 234.597 393.438 234.991 393.021 235.478C392.604 235.965 392.294 236.535 392.112 237.15C391.93 237.764 391.879 238.41 391.962 239.046C392.046 239.682 392.262 240.293 392.597 240.839C392.765 241.135 392.963 241.412 393.189 241.667C393.641 244.666 394.862 247.497 396.733 249.884C396.879 250.063 398.779 251.863 399.774 252.768C398.813 252.221 397.851 251.65 396.856 251.114C395.414 250.286 393.927 249.37 392.474 248.498L390.182 247.078C389.422 246.597 388.74 246.049 388.013 245.524C386.951 244.741 385.9 243.88 384.849 243.019C385.766 241.6 388.416 237.429 388.829 234.947C389.243 232.466 389.086 229.056 387.208 227.121C386.779 226.645 386.255 226.264 385.67 226.003C385.084 225.743 384.45 225.608 383.809 225.608C383.168 225.608 382.535 225.743 381.949 226.003C381.364 226.264 380.839 226.645 380.411 227.121C377.884 230.039 379.628 236.781 381.428 239.733C381.484 239.822 381.92 240.403 382.457 241.096C381.462 240.224 380.455 239.352 379.472 238.436C376.665 235.831 373.882 233.103 371.109 230.364L369.365 228.675C370.147 227.49 373.054 222.974 373.479 220.402C373.904 217.831 373.736 214.51 371.858 212.576C371.43 212.098 370.906 211.716 370.321 211.454C369.735 211.192 369.101 211.057 368.459 211.057C367.818 211.057 367.183 211.192 366.598 211.454C366.012 211.716 365.488 212.098 365.06 212.576C362.545 215.505 364.278 222.247 366.078 225.187C366.145 225.288 366.67 225.981 367.274 226.753C365.742 225.299 364.188 223.857 362.612 222.482C359.911 220.095 357.054 217.891 354.059 215.886C354.35 215.472 357.861 210.296 358.341 207.389C358.755 204.851 358.587 201.497 356.72 199.563C356.295 199.083 355.774 198.698 355.191 198.432C354.608 198.166 353.975 198.026 353.334 198.021C352.693 198.016 352.058 198.145 351.47 198.401C350.883 198.657 350.355 199.034 349.923 199.507C347.396 202.436 349.14 209.178 350.929 212.118C351.063 212.33 353.008 214.823 353.724 215.696L353.623 215.617C350.634 213.727 347.484 212.103 344.21 210.765C341.292 209.559 338.305 208.525 335.266 207.668C332.448 206.841 329.832 206.26 327.507 205.756C326.244 205.499 325.081 205.287 323.996 205.097H324.063C324.119 205.097 320.218 202.447 319.96 202.313C316.897 200.737 310.044 199.496 307.305 202.212C306.864 202.679 306.527 203.233 306.314 203.839C306.101 204.444 306.018 205.088 306.069 205.727C306.121 206.367 306.306 206.989 306.613 207.552C306.921 208.116 307.343 208.609 307.852 208.999C309.965 210.72 313.319 210.642 315.824 210.038C318.328 209.435 322.744 206.125 323.817 205.298C324.935 205.511 326.132 205.756 327.451 206.058C329.754 206.606 332.359 207.243 335.143 208.127C335.881 208.361 336.674 208.641 337.446 208.898C336.06 208.73 334.148 208.529 333.958 208.529C330.514 208.529 323.896 210.597 322.688 214.276C322.513 214.893 322.468 215.54 322.559 216.175C322.649 216.81 322.871 217.419 323.212 217.963C323.552 218.507 324.003 218.973 324.535 219.331C325.066 219.69 325.668 219.933 326.299 220.045C328.96 220.604 331.889 218.927 333.846 217.294C335.802 215.662 338.318 210.463 338.776 209.356C340.476 209.96 342.197 210.609 343.964 211.402C347.168 212.79 350.243 214.459 353.154 216.389C353.321 216.512 353.478 216.646 353.646 216.758C352.975 216.556 349.174 215.718 348.939 215.64C345.518 215.282 338.676 216.59 337.11 220.112C336.867 220.705 336.751 221.343 336.77 221.984C336.789 222.625 336.943 223.255 337.221 223.833C337.499 224.41 337.896 224.923 338.386 225.338C338.875 225.752 339.446 226.059 340.062 226.238C342.656 227.088 345.753 225.802 347.888 224.338C350.325 222.649 353.657 217.015 353.78 216.802C356.625 218.807 359.337 220.995 361.897 223.354C363.808 225.087 365.664 226.931 367.487 228.787C366.603 228.541 363.115 227.77 362.858 227.736C359.426 227.367 352.595 228.675 351.018 232.208C350.775 232.802 350.659 233.44 350.678 234.081C350.697 234.722 350.851 235.352 351.129 235.929C351.407 236.507 351.804 237.02 352.294 237.434C352.783 237.849 353.354 238.156 353.97 238.335C356.564 239.185 359.661 237.899 361.796 236.434C364.166 234.78 367.386 229.402 367.654 228.944C368.493 229.793 369.331 230.632 370.159 231.482C372.886 234.266 375.603 237.072 378.376 239.766C379.326 240.694 380.31 241.577 381.283 242.46C379.952 242.136 377.526 241.6 377.314 241.577C373.881 241.208 367.051 242.516 365.485 246.049C365.242 246.642 365.125 247.279 365.143 247.919C365.162 248.56 365.315 249.189 365.592 249.767C365.869 250.345 366.265 250.858 366.753 251.273C367.241 251.688 367.811 251.995 368.426 252.176C371.019 253.026 374.127 251.74 376.252 250.275C378.376 248.811 381.171 244.327 381.942 243.064C383.575 244.529 385.229 245.949 386.929 247.257C387.666 247.816 388.393 248.375 389.165 248.911L391.401 250.432C392.932 251.404 394.363 252.321 395.873 253.204C396.599 253.652 397.304 254.054 398.019 254.479C396.711 253.953 394.665 253.149 394.453 253.104C391.099 252.221 384.156 252.478 382.076 255.72C381.745 256.27 381.533 256.883 381.455 257.52C381.376 258.157 381.433 258.803 381.62 259.417C381.808 260.031 382.123 260.598 382.544 261.082C382.966 261.566 383.484 261.956 384.066 262.227C386.493 263.456 389.757 262.663 392.071 261.534C394.62 260.281 398.5 255.619 398.969 255.049C400.725 256.078 402.446 257.073 404.068 257.967C408.417 260.371 412.207 262.294 415.147 263.725C424.65 272.188 438.189 273.295 438.189 273.295C438.189 273.295 439.128 257.073 429.726 246.262C426.416 242.529 422.314 239.583 417.718 237.642ZM400.311 253.216C400.624 252.556 402.994 247.436 403.195 244.529C403.732 244.439 404.313 244.327 404.794 244.216C405.699 249.358 407.668 254.255 410.574 258.593C408.83 257.729 406.967 256.775 404.984 255.731C403.464 254.96 401.91 254.11 400.311 253.216Z" fill="#263238"/>
<path d="M488.745 235.54C488.745 235.54 472.512 235.808 462.427 245.993C452.343 256.178 452.242 272.412 452.242 272.412C452.242 272.412 468.476 272.143 478.56 261.958C488.644 251.773 488.745 235.54 488.745 235.54Z" fill="#263238"/>
<path d="M446.205 245.401L462.349 231.292L461.678 230.52L446.216 244.026L446.395 225.243L446.484 225.299L460.247 205.768L459.409 205.186L446.417 223.622L446.853 178.41L445.836 178.399L445.534 209.088L435.506 200.155L434.824 200.915L445.523 210.441L445.299 232.376L430.106 218.546L429.424 219.307L445.288 233.751L445.098 253.73L433.661 244.495L433.013 245.289L445.087 255.027L444.953 267.895H445.981L446.205 245.389V245.401Z" fill="white"/>
<path d="M431.436 250.722L430.419 250.588L428.977 261.925L422.235 254.177H422.246L420.703 240.414L419.697 240.526L421.072 252.835L404.325 233.572L403.553 234.243L414.912 247.312L407.6 247.301V248.319L415.807 248.341L423.778 257.497L412.341 257.352L412.33 258.381L424.672 258.537L431.917 266.866L423.845 267.246L423.89 268.264L432.778 267.85L437.596 273.407L438.368 272.736L429.871 262.964L431.436 250.722Z" fill="white"/>
<path d="M469.907 255.317L483.513 252.746L483.323 251.74L471.148 254.032L489.114 235.898L488.387 235.182L476.201 247.491L475.664 240.191L474.647 240.269L475.239 248.453L466.698 257.084L465.994 245.669L464.976 245.736L465.736 258.056L457.966 265.905L456.994 257.878L455.976 258.001L457.05 266.822L451.873 272.054L452.6 272.769L461.712 263.568L474.032 264.217L474.088 263.188L462.673 262.595L469.895 255.295L469.907 255.317Z" fill="white"/>
<path d="M156.084 174.229C156.084 174.229 151.925 171.993 150.662 170.35C149.544 168.919 148.604 166.806 149.119 164.983C149.224 164.551 149.419 164.145 149.692 163.793C149.964 163.44 150.308 163.149 150.7 162.939C151.092 162.728 151.524 162.602 151.969 162.569C152.413 162.536 152.859 162.597 153.278 162.747C155.771 163.731 156.878 168.438 156.721 170.83C156.71 171.054 156.129 174.251 156.084 174.229Z" fill="#263238"/>
<path d="M194.051 192.016C193.928 192.184 191.681 194.532 191.659 194.498C191.636 194.464 189.423 190.361 189.277 188.26C189.154 186.482 189.512 184.179 190.943 182.938C191.27 182.636 191.657 182.406 192.079 182.263C192.501 182.121 192.948 182.069 193.391 182.111C193.834 182.154 194.263 182.289 194.651 182.508C195.038 182.728 195.375 183.027 195.639 183.385C197.17 185.588 195.505 190.115 194.051 192.016Z" fill="#263238"/>
<path d="M114.315 186.326C114.315 186.326 130.124 197.64 133.131 214.533C136.139 231.426 125.216 247.491 125.216 247.491C125.216 247.491 109.407 236.177 106.4 219.284C103.393 202.391 114.315 186.326 114.315 186.326Z" fill="#263238"/>
<path d="M140.711 223.6C140.497 223.445 140.299 223.269 140.119 223.074C138.878 221.789 137.659 219.799 137.961 217.932C138.016 217.49 138.164 217.065 138.395 216.684C138.626 216.303 138.935 215.976 139.301 215.722C139.667 215.469 140.082 215.296 140.52 215.214C140.958 215.133 141.408 215.144 141.841 215.248C143.808 215.774 145.195 218.502 145.843 220.838C146.536 220.548 147.162 220.302 147.699 220.1L148.135 218.345C148.291 217.742 148.37 217.138 148.493 216.534C148.66 215.628 148.783 214.689 148.918 213.761C147.8 213.482 144.446 212.643 143.082 211.525C141.718 210.407 140.164 208.652 140.175 206.763C140.162 206.318 140.244 205.876 140.414 205.465C140.584 205.054 140.838 204.683 141.161 204.377C141.484 204.072 141.868 203.837 142.287 203.689C142.707 203.542 143.153 203.484 143.596 203.521C146.268 203.811 148.571 208.06 149.052 210.396C149.052 210.475 149.119 210.978 149.175 211.581C149.275 210.665 149.365 209.748 149.432 208.82C149.622 206.17 149.734 203.476 149.857 200.77C149.857 200.2 149.913 199.652 149.946 199.082C148.985 198.847 145.374 197.964 143.931 196.846C142.489 195.728 141.013 193.984 141.036 192.083C141.023 191.639 141.105 191.197 141.275 190.786C141.444 190.375 141.699 190.004 142.022 189.698C142.345 189.392 142.728 189.158 143.148 189.01C143.568 188.862 144.013 188.805 144.457 188.841C147.118 189.132 149.432 193.38 149.913 195.728C149.913 195.806 149.991 196.41 150.047 197.092C150.136 195.616 150.237 194.152 150.393 192.709C150.633 190.222 151.04 187.753 151.612 185.32C151.277 185.241 147.017 184.257 145.418 183.084C143.998 181.966 142.5 180.21 142.511 178.321C142.499 177.875 142.58 177.432 142.751 177.02C142.922 176.608 143.177 176.237 143.501 175.931C143.825 175.625 144.211 175.391 144.631 175.244C145.052 175.097 145.5 175.041 145.944 175.079C148.605 175.369 150.908 179.551 151.388 181.954C151.388 182.122 151.623 184.313 151.668 185.096C151.668 185.096 151.668 185.096 151.668 185.006C152.285 182.63 153.115 180.313 154.15 178.086C155.06 176.09 156.087 174.149 157.224 172.272C158.253 170.528 159.315 168.986 160.254 167.633C160.768 166.906 161.26 166.246 161.719 165.643C161.719 165.643 162.412 162.479 162.49 162.289C163.295 160.053 166.179 156.162 168.863 156.252C169.307 156.28 169.74 156.401 170.134 156.607C170.529 156.814 170.875 157.101 171.151 157.45C171.427 157.799 171.627 158.202 171.737 158.633C171.848 159.064 171.866 159.513 171.792 159.952C171.535 161.819 169.802 163.373 168.237 164.245C166.671 165.117 162.87 165.542 161.931 165.632C161.473 166.269 160.981 166.962 160.455 167.733C159.539 169.109 158.521 170.663 157.526 172.429C157.258 172.899 157.001 173.413 156.732 173.905C157.358 173.167 158.219 172.161 158.32 172.071C160.075 170.45 164.424 168.337 166.761 169.656C167.143 169.885 167.472 170.191 167.727 170.556C167.982 170.92 168.158 171.334 168.242 171.771C168.327 172.208 168.318 172.657 168.217 173.09C168.116 173.524 167.924 173.931 167.655 174.285C166.537 175.828 164.301 176.409 162.524 176.465C160.746 176.521 157.045 175.09 156.263 174.766C155.681 175.884 155.145 177.002 154.597 178.265C153.629 180.489 152.859 182.793 152.294 185.152L152.227 185.565C152.473 185.141 153.982 182.938 154.105 182.793C155.67 180.993 159.762 178.41 162.222 179.439C162.622 179.625 162.979 179.892 163.27 180.223C163.561 180.555 163.78 180.944 163.912 181.364C164.045 181.785 164.088 182.229 164.04 182.667C163.991 183.106 163.852 183.529 163.63 183.911C162.714 185.577 160.534 186.393 158.767 186.65C156.721 186.941 152.372 185.655 152.204 185.61C151.712 187.975 151.373 190.368 151.187 192.777C151.042 194.565 150.964 196.377 150.908 198.188C151.243 197.651 152.652 195.605 152.763 195.471C154.329 193.66 158.421 191.088 160.891 192.117C161.292 192.303 161.649 192.57 161.939 192.902C162.23 193.233 162.449 193.622 162.58 194.044C162.712 194.465 162.754 194.909 162.704 195.347C162.654 195.785 162.512 196.208 162.289 196.589C161.372 198.244 159.192 199.06 157.426 199.317C155.436 199.608 151.254 198.389 150.908 198.288C150.908 199.116 150.908 199.943 150.829 200.77C150.829 203.476 150.718 206.181 150.583 208.853C150.583 209.781 150.46 210.687 150.382 211.604C150.908 210.81 151.88 209.368 151.981 209.278C153.546 207.467 157.638 204.896 160.109 205.924C160.509 206.11 160.866 206.377 161.157 206.709C161.448 207.041 161.666 207.43 161.798 207.851C161.929 208.272 161.971 208.716 161.921 209.154C161.871 209.593 161.73 210.016 161.506 210.396C160.589 212.051 158.409 212.867 156.643 213.124C154.877 213.381 151.332 212.442 150.337 212.163C150.203 213.672 150.036 215.181 149.801 216.635C149.678 217.261 149.6 217.909 149.454 218.513C149.387 218.837 149.32 219.15 149.242 219.463L149.745 219.329C149.745 219.329 149.935 220.145 150.103 221.498C151.78 219.765 154.362 218.066 156.33 218.569C156.758 218.691 157.156 218.903 157.498 219.189C157.839 219.476 158.117 219.831 158.312 220.232C158.507 220.632 158.615 221.07 158.63 221.515C158.645 221.961 158.566 222.404 158.398 222.817C158.314 223.033 158.213 223.243 158.096 223.443C158.121 225.549 157.609 227.627 156.609 229.481C156.531 229.615 155.435 231.068 154.854 231.795C155.458 231.314 156.05 230.844 156.665 230.33C157.549 229.604 158.465 228.799 159.36 228.094L160.712 226.831C161.182 226.417 161.585 225.959 162.021 225.512C162.658 224.852 163.284 224.148 163.899 223.432C163.105 222.571 160.813 220.011 160.254 218.368C159.695 216.724 159.404 214.365 160.455 212.778C160.691 212.4 161.004 212.076 161.373 211.827C161.743 211.579 162.16 211.41 162.599 211.333C163.038 211.256 163.487 211.272 163.919 211.381C164.351 211.489 164.756 211.687 165.106 211.961C167.163 213.672 166.75 218.491 165.855 220.704C165.855 220.782 165.587 221.23 165.307 221.755C165.889 221.051 166.425 220.335 167.052 219.597C168.661 217.496 170.249 215.304 171.848 213.113C172.172 212.655 172.519 212.207 172.843 211.749C172.172 211.034 169.668 208.272 169.075 206.562C168.483 204.851 168.225 202.559 169.276 200.972C169.511 200.593 169.823 200.267 170.193 200.018C170.562 199.768 170.98 199.599 171.419 199.522C171.858 199.445 172.309 199.461 172.741 199.57C173.173 199.68 173.577 199.879 173.927 200.155C175.996 201.866 175.571 206.673 174.687 208.898C174.687 208.976 174.363 209.513 174.039 210.117C174.922 208.932 175.817 207.769 176.745 206.651C178.316 204.706 180.019 202.872 181.843 201.162C181.597 200.904 178.6 197.729 177.941 195.829C177.359 194.141 177.091 191.826 178.142 190.239C178.379 189.862 178.693 189.54 179.062 189.292C179.431 189.044 179.849 188.877 180.287 188.8C180.725 188.723 181.174 188.739 181.606 188.846C182.037 188.953 182.442 189.15 182.793 189.423C184.85 191.144 184.436 195.952 183.542 198.177C183.542 198.333 182.424 200.267 182.044 200.938H182.111C183.936 199.297 185.904 197.823 187.992 196.533C189.852 195.371 191.778 194.319 193.761 193.38C195.594 192.497 197.316 191.793 198.859 191.144C199.686 190.82 200.457 190.541 201.173 190.283C201.173 190.283 203.498 188.047 203.666 187.902C205.578 186.471 210.128 184.828 212.308 186.382C212.665 186.649 212.961 186.989 213.177 187.378C213.394 187.768 213.526 188.199 213.565 188.643C213.604 189.087 213.549 189.534 213.404 189.955C213.258 190.377 213.026 190.763 212.722 191.088C211.47 192.508 209.167 192.844 207.378 192.709C205.589 192.575 202.19 190.831 201.363 190.384C200.625 190.664 199.831 190.965 198.959 191.323C197.45 191.96 195.739 192.698 193.939 193.626L192.452 194.42C193.38 194.141 194.688 193.783 194.789 193.772C197.148 193.38 201.944 194.018 203.163 196.399C203.356 196.8 203.463 197.237 203.476 197.682C203.489 198.127 203.408 198.57 203.238 198.982C203.068 199.393 202.813 199.764 202.49 200.07C202.167 200.377 201.783 200.611 201.363 200.759C199.597 201.452 197.394 200.681 195.874 199.753C194.353 198.825 192.061 195.583 191.58 194.878C190.462 195.493 189.344 196.131 188.226 196.88C186.191 198.194 184.279 199.691 182.513 201.352L182.212 201.653C182.648 201.441 185.13 200.435 185.308 200.379C187.612 199.742 192.441 199.854 193.928 202.09C194.164 202.467 194.317 202.89 194.378 203.331C194.438 203.772 194.406 204.221 194.281 204.648C194.156 205.076 193.943 205.472 193.655 205.811C193.367 206.151 193.011 206.425 192.609 206.617C190.932 207.501 188.662 206.975 187.019 206.215C185.163 205.332 182.234 201.855 182.122 201.743C180.409 203.442 178.807 205.249 177.326 207.154C176.208 208.563 175.157 210.038 174.106 211.525C174.676 211.257 176.979 210.318 177.158 210.273C179.461 209.625 184.291 209.737 185.767 211.973C185.993 212.348 186.138 212.767 186.194 213.202C186.25 213.636 186.214 214.078 186.09 214.499C185.966 214.919 185.756 215.309 185.473 215.644C185.191 215.979 184.841 216.252 184.448 216.445C182.771 217.328 180.501 216.802 178.858 216.042C177.035 215.192 174.218 211.872 173.983 211.57C173.502 212.241 173.022 212.912 172.552 213.594C171.009 215.83 169.466 218.066 167.89 220.201C167.331 220.95 166.772 221.666 166.202 222.437C167.074 222.057 168.673 221.409 168.818 221.375C171.121 220.727 175.951 220.838 177.427 223.074C177.662 223.451 177.816 223.874 177.878 224.314C177.939 224.755 177.907 225.203 177.784 225.631C177.66 226.058 177.448 226.454 177.161 226.794C176.874 227.134 176.519 227.409 176.119 227.602C174.442 228.486 172.172 227.96 170.529 227.2C168.885 226.44 166.481 223.7 165.799 222.918C164.849 224.103 163.888 225.266 162.87 226.361C162.423 226.831 161.998 227.334 161.551 227.748L160.265 229.19C159.326 230.04 158.454 230.833 157.56 231.594L156.24 232.712C157.068 232.197 158.398 231.415 158.476 231.359C160.712 230.364 165.453 229.749 167.253 231.728C167.543 232.066 167.758 232.462 167.885 232.889C168.012 233.316 168.048 233.765 167.99 234.207C167.932 234.649 167.782 235.074 167.549 235.453C167.316 235.833 167.005 236.16 166.638 236.412C165.106 237.53 162.792 237.362 161.048 236.848C159.158 236.289 155.972 233.494 155.581 233.203C154.463 234.12 153.434 234.992 152.428 235.797C149.734 237.933 147.352 239.688 145.508 241.007C139.918 247.883 130.828 250.197 130.828 250.197C130.828 250.197 128.324 239.207 133.523 230.722C135.362 227.844 137.817 225.412 140.711 223.6ZM154.418 232.264C153.175 230.544 152.171 228.664 151.433 226.674C151.064 226.674 150.684 226.674 150.315 226.674C150.291 230.296 149.506 233.873 148.012 237.172C149.13 236.39 150.248 235.518 151.534 234.579C152.45 233.818 153.423 233.058 154.418 232.264Z" fill="#263238"/>
<path d="M91.8436 230.308C91.8436 230.308 103.024 228.631 111.062 234.445C119.1 240.258 121.124 251.36 121.124 251.36C121.124 251.36 109.944 253.048 101.906 247.234C93.8672 241.421 91.8436 230.308 91.8436 230.308Z" fill="#263238"/>
<path d="M122.097 232.175L109.43 224.371L109.799 223.767L121.929 231.235L119.648 218.401L119.604 218.446L107.943 206.662L108.446 206.159L119.458 217.294L113.958 186.393L114.662 186.27L118.385 207.243L124.221 199.976L124.78 200.423L118.553 208.171L121.214 223.164L130.035 211.95L130.594 212.386L121.381 224.091L123.807 237.753L130.582 230.117L131.108 230.587L123.975 238.637L125.529 247.424L124.836 247.558L122.097 232.175Z" fill="white"/>
<path d="M132.818 234.12L133.5 233.919L135.792 241.51L139.515 235.439H139.504L138.979 225.836L139.683 225.802L140.152 234.388L149.409 219.273L150.013 219.642L143.741 229.894L148.739 229.044L148.862 229.749L143.249 230.699L138.844 237.888L146.648 236.479L146.771 237.172L138.341 238.704L134.339 245.233L139.906 244.562L139.996 245.266L133.869 246.004L131.197 250.365L130.594 249.984L135.289 242.326L132.818 234.12Z" fill="white"/>
<path d="M107.015 241.689L97.4001 241.488L97.4113 240.783L106.009 240.951L91.6312 230.598L92.0449 230.017L101.805 237.049L101.335 231.996L102.04 231.929L102.565 237.597L109.407 242.527L108.58 234.634L109.284 234.556L110.179 243.086L116.395 247.558L116.149 241.957L116.853 241.924L117.133 248.095L121.269 251.069L120.856 251.65L113.566 246.396L105.204 248.252L105.047 247.558L112.795 245.837L107.015 241.678V241.689Z" fill="white"/>
<path d="M297.153 236.591C297.153 236.591 293.385 239.173 292.905 239.52C292.424 239.867 291.485 248.464 291.485 248.878C291.485 249.291 298.193 248.755 299.423 247.458C300.652 246.161 300.72 242.125 300.72 242.125C300.563 240.999 300.163 239.92 299.547 238.965C298.931 238.009 298.114 237.199 297.153 236.591Z" fill="white" stroke="#263238" stroke-linecap="round" stroke-linejoin="round"/>
<path d="M307.45 195.818L306.824 224.047L297.108 236.591C297.108 236.591 300.865 239.408 300.552 242.539L311.218 235.954C311.218 235.954 311.218 207.735 310.591 200.524C309.965 193.313 308.121 193.313 307.45 195.818Z" fill="white" stroke="#263238" stroke-linecap="round" stroke-linejoin="round"/>
<path d="M290.881 249.124C290.881 249.124 292.759 243.176 293.117 242.226C293.475 241.275 303.179 241.287 303.179 241.287C303.38 242.111 303.489 242.954 303.503 243.802C303.503 245.054 301.267 246.306 301.267 246.306C301.306 247.088 301.156 247.867 300.829 248.577C300.502 249.288 300.008 249.909 299.389 250.387C297.632 251.739 295.722 252.88 293.699 253.786L289.931 252.534L290.881 249.124Z" fill="white" stroke="#263238" stroke-linecap="round" stroke-linejoin="round"/>
<path d="M296.337 237.508C296.337 237.508 294.213 237.508 293.855 238.1C293.497 238.693 294.09 244.026 294.805 244.026C295.521 244.026 296.93 244.495 297.164 243.075C297.399 241.655 297.88 237.273 296.337 237.508Z" fill="white" stroke="#263238" stroke-linecap="round" stroke-linejoin="round"/>
<path d="M242.673 389.969C242.673 389.969 240.001 396.141 240.739 398.343C241.477 400.546 242.606 401.954 247.637 400.277C252.668 398.6 264.407 389.612 264.407 387.398C264.407 385.184 250.421 388.136 250.421 388.136C250.421 388.136 249.661 390.338 242.673 389.969Z" fill="white" stroke="#263238" stroke-linecap="round" stroke-linejoin="round"/>
<path d="M211.626 369.275C211.626 369.275 210.911 374.697 211.391 375.536C211.83 376.147 212.41 376.642 213.082 376.979C213.753 377.316 214.497 377.484 215.249 377.47C216.937 377.347 218.021 377.347 218.379 376.017C218.737 374.686 218.983 373.367 219.34 372.282C219.663 371.441 219.788 370.536 219.704 369.638C219.621 368.741 219.332 367.874 218.86 367.106C217.529 364.814 212.823 365.507 211.324 369.745" fill="white"/>
<path d="M211.626 369.275C211.626 369.275 210.911 374.697 211.391 375.536C211.83 376.147 212.41 376.642 213.082 376.979C213.753 377.316 214.497 377.484 215.249 377.47C216.937 377.347 218.021 377.347 218.379 376.017C218.737 374.686 218.983 373.367 219.34 372.282C219.663 371.441 219.788 370.536 219.704 369.638C219.621 368.741 219.332 367.874 218.86 367.106C217.529 364.814 212.823 365.507 211.324 369.745" stroke="#263238" stroke-linecap="round" stroke-linejoin="round"/>
<path d="M222.795 298.349C222.795 298.349 223.164 314.538 223.164 316.383C223.164 318.228 216.546 331.107 216.546 334.416C216.546 337.725 211.324 369.745 211.324 369.745C211.737 370.364 212.28 370.885 212.915 371.271C213.551 371.658 214.263 371.9 215.003 371.981C216.313 371.984 217.594 371.594 218.681 370.863C218.681 370.863 228.743 338.117 231.627 334.807C234.512 331.498 239.722 318.25 239.722 318.25C239.722 318.25 243.076 338.117 242.673 340.688C242.271 343.26 238.995 354.305 239.319 359.828C239.643 365.351 242.26 391.468 242.26 391.468C242.855 392.232 243.656 392.812 244.569 393.139C245.481 393.465 246.468 393.525 247.414 393.312C249.577 392.661 251.415 391.216 252.556 389.265C252.556 389.265 256.972 353.936 257.341 350.258C257.71 346.58 261.757 324.131 262.126 316.405C262.495 308.68 262.495 298.003 262.495 298.003C255.156 299.458 247.57 299.074 240.415 296.885C234.542 295.054 228.882 292.599 223.533 289.562L222.795 298.349Z" fill="#263238" stroke="#263238" stroke-linecap="round" stroke-linejoin="round"/>
<path d="M252.556 191.032C253.102 192.909 253.535 194.817 253.853 196.745C253.818 197.7 253.732 198.651 253.596 199.596C253.596 199.596 255.675 200.636 255.675 201.933C255.675 203.23 253.853 205.566 253.853 205.566L253.082 211.794C252.813 213.862 251.259 216.199 249.728 216.713C248.283 217.033 246.796 217.124 245.323 216.981L244.54 225.534L229.749 220.089L230.789 212.263C230.789 212.263 227.435 203.185 228.978 197.998C230.52 192.81 237.016 191.513 240.907 190.172C244.797 188.83 252.556 191.032 252.556 191.032Z" fill="white" stroke="#263238" stroke-linecap="round" stroke-linejoin="round"/>
<path d="M229.995 214.656C229.995 214.656 222.169 205.578 221.688 197.014C221.207 188.45 224.282 183.005 229.514 181.194C234.746 179.383 237.553 179.886 237.553 179.886C237.553 179.886 233.662 179.114 237.821 177.292C241.98 175.47 246.642 178.589 246.642 178.589C246.642 178.589 244.048 176.521 247.156 176.778C250.264 177.035 251.561 178.589 254.423 185.085C257.285 191.58 249.493 193.894 248.196 194.42C246.899 194.945 250.533 196.499 250.007 197.774C249.482 199.048 246.653 201.128 246.653 201.128L247.424 206.841C247.424 206.841 246.128 208.909 245.356 207.612C244.585 206.315 244.316 203.722 242.002 205.276C239.688 206.83 242.516 211.984 243.299 211.984C244.082 211.984 241.477 214.835 238.112 215.874C236.367 216.519 234.465 216.609 232.667 216.131C232.143 216.088 231.634 215.933 231.173 215.679C230.713 215.425 230.311 215.076 229.995 214.656Z" fill="#263238" stroke="#263238" stroke-linecap="round" stroke-linejoin="round"/>
<path d="M226.619 220.089C227.067 219.21 227.794 218.504 228.686 218.082C229.578 217.659 230.584 217.543 231.549 217.752C234.903 218.535 241.924 221.386 243.478 223.465C245.032 225.545 246.832 231.761 246.832 231.761L227.636 223.197C227.636 223.197 224.796 221.9 226.619 220.089Z" fill="white" stroke="#263238" stroke-linecap="round" stroke-linejoin="round"/>
<path d="M212.006 289.987L212.554 292.726V298.506L211.727 300.742L210.363 301.29V299.914L211.179 305.136L209.536 306.499C209.536 306.499 205.969 300.742 205.142 299.098C204.315 297.455 205.142 289.942 205.142 289.942C205.142 289.942 206.517 291.362 212.006 289.987Z" fill="white" stroke="#263238" stroke-linecap="round" stroke-linejoin="round"/>
<path d="M261.064 239.118C261.064 239.118 253.708 235.428 245.982 230.655C238.257 225.881 227.211 220.716 224.271 218.871C221.33 217.026 218.882 214.555 213.605 218.144C203.409 225.053 209.189 244.976 209.189 247.57C209.189 250.164 203.666 267.079 204.035 270.388C204.404 273.698 205.153 289.886 205.153 289.886C205.153 289.886 206.618 292.838 212.141 291.362C212.141 291.362 215.819 274.435 216.188 269.65C216.739 265.302 217.599 260.998 218.759 256.771L222.448 277.745L218.759 295.04C218.759 295.04 221.342 303.503 229.805 306.444C238.268 309.384 247.078 311.922 257.386 308.288C261.433 306.846 268.063 301.301 268.063 301.301C268.063 301.301 264.709 263.77 264.709 261.925C264.709 260.08 264.016 247.212 261.064 239.118Z" fill="white"/>
<mask id="mask1_9_1231" style="mask-type:luminance" maskUnits="userSpaceOnUse" x="204" y="216" width="65" height="95">
<path d="M261.064 239.118C261.064 239.118 253.708 235.428 245.982 230.655C238.257 225.881 227.211 220.716 224.271 218.871C221.33 217.026 218.882 214.555 213.605 218.144C203.409 225.053 209.189 244.976 209.189 247.57C209.189 250.164 203.666 267.079 204.035 270.388C204.404 273.698 205.153 289.886 205.153 289.886C205.153 289.886 206.618 292.838 212.141 291.362C212.141 291.362 215.819 274.435 216.188 269.65C216.739 265.302 217.599 260.998 218.759 256.771L222.448 277.745L218.759 295.04C218.759 295.04 221.342 303.503 229.805 306.444C238.268 309.384 247.078 311.922 257.386 308.288C261.433 306.846 268.063 301.301 268.063 301.301C268.063 301.301 264.709 263.77 264.709 261.925C264.709 260.08 264.016 247.212 261.064 239.118Z" fill="white"/>
</mask>
<g mask="url(#mask1_9_1231)">
<path d="M257.386 308.289C261.433 306.846 268.063 301.301 268.063 301.301C268.063 301.301 266.632 285.09 265.648 273.463C265.407 273.362 265.143 273.331 264.886 273.375C264.628 273.418 264.389 273.534 264.195 273.709C261.657 275.822 262.506 294.459 260.841 293.621C259.175 292.782 251.103 269.885 244.741 260.572C238.38 251.259 246.866 266.073 245.166 271.16C243.467 276.247 226.16 241.924 216.78 237.687C207.4 233.45 215.081 245.312 215.081 245.312L216.791 265.503C217.574 261.243 218.782 256.771 218.782 256.771L222.471 277.745L218.782 295.04C218.782 295.04 221.364 303.504 229.827 306.444C238.291 309.384 247.078 311.922 257.386 308.289Z" fill="#077857"/>
<path opacity="0.5" d="M257.386 308.289C261.433 306.846 268.063 301.301 268.063 301.301C268.063 301.301 266.632 285.09 265.648 273.463C265.407 273.362 265.143 273.331 264.886 273.375C264.628 273.418 264.389 273.534 264.195 273.709C261.657 275.822 262.506 294.459 260.841 293.621C259.175 292.782 251.103 269.885 244.741 260.572C238.38 251.259 246.866 266.073 245.166 271.16C243.467 276.247 226.16 241.924 216.78 237.687C207.4 233.45 215.081 245.312 215.081 245.312L216.791 265.503C217.574 261.243 218.782 256.771 218.782 256.771L222.471 277.745L218.782 295.04C218.782 295.04 221.364 303.504 229.827 306.444C238.291 309.384 247.078 311.922 257.386 308.289Z" fill="white"/>
</g>
<path d="M261.064 239.118C261.064 239.118 253.708 235.428 245.982 230.655C238.257 225.881 227.211 220.716 224.271 218.871C221.33 217.026 218.882 214.555 213.605 218.144C203.409 225.053 209.189 244.976 209.189 247.57C209.189 250.164 203.666 267.079 204.035 270.388C204.404 273.698 205.153 289.886 205.153 289.886C205.153 289.886 206.618 292.838 212.141 291.362C212.141 291.362 215.819 274.435 216.188 269.65C216.739 265.302 217.599 260.998 218.759 256.771L222.448 277.745L218.759 295.04C218.759 295.04 221.342 303.503 229.805 306.444C238.268 309.384 247.078 311.922 257.386 308.288C261.433 306.846 268.063 301.301 268.063 301.301C268.063 301.301 264.709 263.77 264.709 261.925C264.709 260.08 264.016 247.212 261.064 239.118Z" stroke="#263238" stroke-linecap="round" stroke-linejoin="round"/>
<path d="M218.748 256.771C218.748 256.771 215.394 247.614 212.744 240.292" stroke="#263238" stroke-linecap="round" stroke-linejoin="round"/>
<path d="M253.339 239.844C253.339 239.844 258.862 238.38 261.064 239.117C263.267 239.855 274.312 269.303 274.312 269.303L289.036 251.281C289.036 251.281 291.272 248.33 295.655 254.635L276.895 289.953C276.895 289.953 274.659 293.307 271.003 290.322C267.347 287.337 248.923 258.258 248.923 258.258" fill="white"/>
<path d="M253.339 239.844C253.339 239.844 258.862 238.38 261.064 239.117C263.267 239.855 274.312 269.303 274.312 269.303L289.036 251.281C289.036 251.281 291.272 248.33 295.655 254.635L276.895 289.953C276.895 289.953 274.659 293.307 271.003 290.322C267.347 287.337 248.923 258.258 248.923 258.258" stroke="#263238" stroke-linecap="round" stroke-linejoin="round"/>
<path d="M350.772 340.621C350.772 340.621 350.459 353.288 353.288 357.1C356.117 360.912 359.56 359.85 359.56 355.736C359.56 351.622 357.995 343.024 355.792 339.257C353.59 335.489 350.772 340.621 350.772 340.621Z" fill="white" stroke="#263238" stroke-linecap="round" stroke-linejoin="round"/>
<path d="M314.393 318.115C314.393 318.115 304.677 324.387 304.051 327.518C303.425 330.648 315.332 327.205 318.787 322.811C322.241 318.417 318.787 316.863 314.393 318.115Z" fill="white" stroke="#263238" stroke-linecap="round" stroke-linejoin="round"/>
<path d="M310.636 253.786C310.636 253.786 309.373 276.045 310.949 283.894C312.526 291.742 312.201 319.949 312.201 319.949C312.201 319.949 314.438 320.575 316.271 321.201C318.105 321.827 320.978 318.697 320.978 318.697L325.685 283.58L328.815 270.097L336.339 299.881L350.772 342.208C350.772 342.208 351.712 343.159 354.842 343.472C355.235 343.547 355.64 343.54 356.031 343.452C356.422 343.365 356.79 343.198 357.114 342.962C357.438 342.726 357.71 342.427 357.913 342.082C358.117 341.737 358.247 341.354 358.297 340.956L353.903 294.861L350.772 255.664C350.772 255.664 338.229 255.664 330.391 254.725C324.841 253.85 319.451 252.163 314.393 249.716L310.323 248.196L310.636 253.786Z" fill="#263238" stroke="#263238" stroke-linecap="round" stroke-linejoin="round"/>
<path d="M326.624 178.88L310.636 184.213C307.808 185.152 307.495 188.908 307.495 193.302C307.495 197.696 309.999 234.378 309.373 238.771C308.747 243.165 308.121 256.022 308.121 256.022C310.599 258.367 313.212 260.566 315.947 262.607C318.071 263.865 320.41 264.718 322.845 265.123L325.081 258.538L327.898 266.688C327.898 266.688 336.048 269.192 342.633 268.253C349.218 267.314 354.551 256.972 354.551 256.972L351.052 235.954C351.052 235.954 361.114 197.081 358.576 192.352C356.038 187.623 346.345 181.999 339.76 179.808C335.508 178.507 331.016 178.19 326.624 178.88Z" fill="white"/>
<mask id="mask2_9_1231" style="mask-type:luminance" maskUnits="userSpaceOnUse" x="307" y="178" width="52" height="91">
<path d="M326.624 178.88L310.636 184.213C307.808 185.152 307.495 188.908 307.495 193.302C307.495 197.696 309.999 234.378 309.373 238.771C308.747 243.165 308.121 256.022 308.121 256.022C310.599 258.367 313.212 260.566 315.947 262.607C318.071 263.865 320.41 264.718 322.845 265.123L325.081 258.538L327.898 266.688C327.898 266.688 336.048 269.192 342.633 268.253C349.218 267.314 354.551 256.972 354.551 256.972L351.052 235.954C351.052 235.954 361.114 197.081 358.576 192.352C356.038 187.623 346.345 181.999 339.76 179.808C335.508 178.507 331.016 178.19 326.624 178.88Z" fill="white"/>
</mask>
<g mask="url(#mask2_9_1231)">
<path d="M352.327 209.301C352.327 209.301 349.353 217.775 346.815 227.524C344.277 237.273 335.802 254.636 334.953 255.91C334.103 257.185 317.154 234.299 318.429 237.687C319.471 240.882 320.318 244.138 320.967 247.436L308.669 215.137C309.239 225.702 309.787 236.524 309.418 238.782C308.792 243.176 308.166 256.022 308.166 256.022C310.644 258.367 313.257 260.566 315.992 262.607C318.115 263.865 320.454 264.718 322.89 265.123L325.126 258.537L327.943 266.688C327.943 266.688 336.093 269.192 342.678 268.253C349.263 267.314 354.596 256.972 354.596 256.972L351.052 235.954C351.052 235.954 353.869 225.031 356.139 214.063L352.327 209.301Z" fill="#077857"/>
<path opacity="0.5" d="M352.327 209.301C352.327 209.301 349.353 217.775 346.815 227.524C344.277 237.273 335.802 254.636 334.953 255.91C334.103 257.185 317.154 234.299 318.429 237.687C319.471 240.882 320.318 244.138 320.967 247.436L308.669 215.137C309.239 225.702 309.787 236.524 309.418 238.782C308.792 243.176 308.166 256.022 308.166 256.022C310.644 258.367 313.257 260.566 315.992 262.607C318.115 263.865 320.454 264.718 322.89 265.123L325.126 258.537L327.943 266.688C327.943 266.688 336.093 269.192 342.678 268.253C349.263 267.314 354.596 256.972 354.596 256.972L351.052 235.954C351.052 235.954 353.869 225.031 356.139 214.063L352.327 209.301Z" fill="white"/>
</g>
<path d="M326.624 178.88L310.636 184.213C307.808 185.152 307.495 188.908 307.495 193.302C307.495 197.696 309.999 234.378 309.373 238.771C308.747 243.165 308.121 256.022 308.121 256.022C310.599 258.367 313.212 260.566 315.947 262.607C318.071 263.865 320.41 264.718 322.845 265.123L325.081 258.538L327.898 266.688C327.898 266.688 336.048 269.192 342.633 268.253C349.218 267.314 354.551 256.972 354.551 256.972L351.052 235.954C351.052 235.954 361.114 197.081 358.576 192.352C356.038 187.623 346.345 181.999 339.76 179.808C335.508 178.507 331.016 178.19 326.624 178.88Z" stroke="#263238" stroke-linecap="round" stroke-linejoin="round"/>
<path d="M320.978 180.769L316.271 190.809L321.291 197.707L315.332 202.402L323.493 214.007" fill="white"/>
<path d="M320.978 180.769L316.271 190.809L321.291 197.707L315.332 202.402L323.493 214.007" stroke="#263238" stroke-linecap="round" stroke-linejoin="round"/>
<path d="M343.561 181.396L346.692 195.505L339.168 197.394L342.611 202.403C342.611 202.403 337.915 207.736 333.522 210.229C329.128 212.722 321.291 217.44 321.291 217.44L323.527 251.93" fill="white"/>
<path d="M343.561 181.396L346.692 195.505L339.168 197.394L342.611 202.403C342.611 202.403 337.915 207.736 333.522 210.229C329.128 212.722 321.291 217.44 321.291 217.44L323.527 251.93" stroke="#263238" stroke-linecap="round" stroke-linejoin="round"/>
<path d="M324.746 178.88C324.746 178.88 323.806 189.858 323.806 196.13C323.985 200.986 324.613 205.814 325.685 210.553C325.685 210.553 334.774 197.696 337.603 192.363C340.431 187.03 341.672 182.301 339.839 179.819C338.005 177.337 336.384 177.583 336.384 177.583C336.384 177.583 327.574 175.123 324.746 178.88Z" fill="white" stroke="#263238" stroke-linecap="round" stroke-linejoin="round"/>
<path d="M325.998 194.252L326.624 196.768L324.432 203.666L325.685 210.564L329.754 204.605L329.128 197.394L331.33 194.878L329.754 190.183L325.998 194.252Z" fill="#263238"/>
<path d="M324.119 194.878L329.128 192.061L334.148 197.081" stroke="#263238" stroke-linecap="round" stroke-linejoin="round"/>
<path d="M354.529 261.354L352.651 267.94L353.277 272.959H354.529L355.155 270.142L355.468 277.353L358.61 277.666L362.053 269.192V261.981L354.529 261.354Z" fill="white" stroke="#263238" stroke-linecap="round" stroke-linejoin="round"/>
<path d="M355.524 195.504C355.524 195.504 350.191 203.33 349.878 207.109C349.565 210.888 350.828 215.26 351.455 218.401C352.081 221.543 351.768 236.591 353.02 241.879C354.272 247.167 354.585 261.321 354.585 261.321C354.585 261.321 356.821 264.463 362.109 261.947C362.109 261.947 364.345 237.81 363.685 225.266C363.284 217.624 362.02 210.051 359.918 202.693C359.918 202.693 361.483 194.219 358.353 191.088" fill="white"/>
<path d="M355.524 195.504C355.524 195.504 350.191 203.33 349.878 207.109C349.565 210.888 350.828 215.26 351.455 218.401C352.081 221.543 351.768 236.591 353.02 241.879C354.272 247.167 354.585 261.321 354.585 261.321C354.585 261.321 356.821 264.463 362.109 261.947C362.109 261.947 364.345 237.81 363.685 225.266C363.284 217.624 362.02 210.051 359.918 202.693C359.918 202.693 361.483 194.219 358.353 191.088" stroke="#263238" stroke-linecap="round" stroke-linejoin="round"/>
<path d="M327.574 180.769C327.574 180.769 327.261 192.061 329.139 192.061C331.017 192.061 335.724 179.83 336.35 177.639C336.976 175.447 327.574 180.769 327.574 180.769Z" fill="white" stroke="#263238" stroke-linecap="round" stroke-linejoin="round"/>
<path d="M321.134 158.756C321.134 158.756 320.285 169.712 322.252 174.207C324.22 178.701 325.606 184.269 328.714 184.593C331.822 184.917 338.542 176.174 338.542 176.174L339.38 173.938C341.522 170.786 342.689 167.073 342.734 163.261C342.757 157.034 326.456 153.099 321.134 158.756Z" fill="white" stroke="#263238" stroke-linecap="round" stroke-linejoin="round"/>
<path d="M326.154 168.136L325.461 174.665L328.211 175.347" fill="white"/>
<path d="M326.154 168.136L325.461 174.665L328.211 175.347" stroke="#263238" stroke-width="0.75" stroke-linecap="round" stroke-linejoin="round"/>
<path d="M324.309 168.158C324.309 168.885 324.119 169.477 323.885 169.477C323.65 169.477 323.471 168.885 323.471 168.158C323.471 167.431 323.661 166.828 323.885 166.828C324.108 166.828 324.309 167.42 324.309 168.158Z" fill="#263238"/>
<path d="M330.291 169.824C330.291 170.562 330.112 171.155 329.877 171.155C329.642 171.155 329.463 170.562 329.463 169.824C329.463 169.086 329.642 168.505 329.877 168.505C330.112 168.505 330.291 169.097 330.291 169.824Z" fill="#263238"/>
<path d="M328.345 166.761C328.345 166.761 331.543 165.922 332.94 168.292L328.345 166.761Z" fill="white"/>
<path d="M328.345 166.761C328.345 166.761 331.543 165.922 332.94 168.292" stroke="#263238" stroke-width="0.75" stroke-linecap="round" stroke-linejoin="round"/>
<path d="M322.498 165.374C322.998 165.145 323.567 165.118 324.086 165.299C324.606 165.48 325.034 165.856 325.282 166.347" fill="white"/>
<path d="M322.498 165.374C322.998 165.145 323.567 165.118 324.086 165.299C324.606 165.48 325.034 165.856 325.282 166.347" stroke="#263238" stroke-width="0.75" stroke-linecap="round" stroke-linejoin="round"/>
<path d="M325.562 177.482C325.996 177.95 326.574 178.259 327.204 178.36C327.834 178.461 328.48 178.349 329.038 178.041" fill="white"/>
<path d="M325.562 177.482C325.996 177.95 326.574 178.259 327.204 178.36C327.834 178.461 328.48 178.349 329.038 178.041" stroke="#263238" stroke-width="0.75" stroke-linecap="round" stroke-linejoin="round"/>
<path d="M325.908 147.207C325.908 147.207 316.36 149.163 317.478 155.033C318.596 160.902 328.144 162.613 330.962 162.613C333.042 162.545 335.11 162.264 337.133 161.774C337.133 161.774 334.327 164.86 336.015 166.246C337.703 167.633 338.542 168.482 338.542 168.482C338.542 168.482 340.509 169.891 340.509 168.203C340.612 166.772 340.894 165.36 341.348 163.999L343.874 163.709C343.874 163.709 347.228 157.537 346.11 153.322C344.992 149.107 336.853 140.745 325.908 147.207Z" fill="#263238" stroke="#263238" stroke-linecap="round" stroke-linejoin="round"/>
<path d="M338.542 168.538C338.542 168.538 340.509 160.958 343.874 163.764C347.24 166.571 341.068 172.194 339.66 171.915" fill="white"/>
<path d="M338.542 168.538C338.542 168.538 340.509 160.958 343.874 163.764C347.24 166.571 341.068 172.194 339.66 171.915" stroke="#263238" stroke-linecap="round" stroke-linejoin="round"/>
</svg>
