<svg width="461" height="461" viewBox="0 0 461 461" fill="none" xmlns="http://www.w3.org/2000/svg">
<path d="M385.756 217.869C470.746 267.657 470.746 348.424 385.756 398.23C300.766 448.037 162.973 448.018 77.9829 398.23C-7.00709 348.442 -17.5732 267.675 67.4167 217.869C152.407 168.062 300.766 168.062 385.756 217.869Z" fill="#F5F5F5"/>
<path d="M122.93 390.006C117.542 390.096 112.222 388.791 107.487 386.217C101.789 382.925 98.2668 378.343 97.0405 372.599C95.1412 363.702 99.3086 353.855 103.495 348.12L104.675 346.488C111.986 336.41 116.006 330.814 114.577 325.097C112.871 318.201 90.1716 319.132 66.3103 320.976L59.8563 321.474C44.4957 322.626 21.7223 319.925 19.5464 312.89C18.7258 310.207 20.7635 307.423 25.6224 304.592C44.3482 293.777 78.0566 274.268 78.0566 274.268L78.9785 275.863C78.9785 275.863 45.2702 295.372 26.5444 306.187C23.7784 307.782 20.6344 310.133 21.3074 312.319C22.8287 317.251 42.2184 320.921 59.718 319.602L66.172 319.114C91.066 317.187 114.282 316.219 116.375 324.646C118.007 331.238 113.802 337.037 106.168 347.557L104.988 349.189C101.06 354.62 97.1143 363.895 98.8845 372.239C100 377.458 103.218 381.625 108.446 384.649C117.85 390.08 130.841 388.393 136.613 385.092C144.911 380.344 178.029 361.433 178.029 361.433L178.951 363.029C178.951 363.029 145.814 381.948 137.535 386.687C133.865 388.697 128.536 390.006 122.93 390.006Z" fill="#E0E0E0"/>
<path d="M91.5086 283.441L39.0745 253.163L84.0127 227.218L136.447 257.487L91.5086 283.441Z" fill="#E0E0E0"/>
<path d="M296.063 382.492L425.226 307.948C436.567 301.393 436.567 290.679 425.226 284.133L363.664 248.59C328.527 228.306 271.04 228.306 235.903 248.59L150.286 298.018C106.187 323.484 117.269 352.675 157.533 376.001C197.797 399.328 251.964 407.948 296.063 382.492Z" fill="#E0E0E0"/>
<path d="M71.7317 241.564C71.7317 241.564 70.4686 228.656 64.2267 218.606C57.9847 208.557 49.2995 202.149 41.1029 201.374C32.9063 200.6 26.1665 208.04 34.861 213.36C43.5554 218.68 59.0635 224.212 65.9324 243.703L71.7317 241.564Z" fill="#077857"/>
<g opacity="0.15">
<path d="M71.7317 241.564C71.7317 241.564 70.4686 228.656 64.2267 218.606C57.9847 208.557 49.2995 202.149 41.1029 201.374C32.9063 200.6 26.1665 208.04 34.861 213.36C43.5554 218.68 59.0635 224.212 65.9324 243.703L71.7317 241.564Z" fill="black"/>
</g>
<path d="M69.3806 238.199H69.4636C69.517 238.178 69.5658 238.148 69.6073 238.108C69.6487 238.069 69.682 238.022 69.7051 237.969C69.7282 237.917 69.7408 237.861 69.7421 237.804C69.7434 237.747 69.7333 237.69 69.7125 237.636C61.4145 216.181 45.0582 207.026 37.5808 205.182C37.5251 205.168 37.4672 205.165 37.4104 205.174C37.3536 205.182 37.2991 205.202 37.2498 205.231C37.2006 205.261 37.1577 205.3 37.1235 205.346C37.0893 205.392 37.0646 205.444 37.0507 205.5C37.0367 205.556 37.0339 205.614 37.0424 205.67C37.0508 205.727 37.0704 205.782 37.0999 205.831C37.1294 205.88 37.1684 205.923 37.2145 205.957C37.2606 205.992 37.313 206.016 37.3687 206.03C44.6894 207.874 60.7046 216.836 68.9011 237.95C68.9397 238.041 69.0086 238.115 69.0961 238.161C69.1836 238.206 69.2842 238.22 69.3806 238.199Z" fill="white"/>
<path d="M28.9324 233.589C29.587 235.193 31.2927 236.06 32.8786 236.742C34.4644 237.425 36.1886 238.172 37.0184 239.693C38.678 242.754 35.6999 246.912 37.4978 249.899C37.9198 250.5 38.4595 251.008 39.084 251.393C39.7085 251.778 40.4047 252.032 41.1305 252.14C42.3199 252.389 43.5369 252.426 44.7447 252.555C45.3207 252.557 45.8964 252.526 46.4689 252.463C48.1565 252.137 49.9043 252.37 51.4477 253.126C53.808 254.537 54.4626 257.589 55.864 259.958C56.7272 261.359 57.8839 262.556 59.2544 263.467C60.6249 264.377 62.1766 264.979 63.8025 265.232C66.5131 265.666 70.5976 265.158 71.3352 263.978C71.8884 263.056 70.4132 260.29 70.3671 259.221C70.3511 256.503 70.0795 253.793 69.5558 251.126C69.2624 249.919 69.12 248.68 69.1316 247.438C69.1316 246.045 69.2146 244.672 69.2423 243.27C69.2699 241.869 69.6572 240.596 69.1501 239.066C68.6049 237.643 67.8497 236.31 66.9096 235.11C66.0337 233.875 65.1486 232.658 64.245 231.422C63.2471 229.943 62.0634 228.599 60.723 227.421C59.5203 226.443 58.1302 225.72 56.6383 225.299C55.1463 224.877 53.5839 224.765 52.047 224.968C49.5023 225.328 46.9944 226.683 44.3944 226.49C41.7943 226.296 39.3971 225.568 36.8063 225.678C35.4354 225.681 34.0829 225.995 32.8513 226.597C31.6197 227.199 30.5412 228.074 29.6977 229.154C29.214 229.773 28.891 230.502 28.7575 231.276C28.624 232.049 28.6841 232.844 28.9324 233.589Z" fill="#077857"/>
<path d="M69.2792 257.183C69.3296 257.172 69.3773 257.151 69.4193 257.121C69.4613 257.091 69.4968 257.053 69.5236 257.009C69.5503 256.965 69.5678 256.916 69.5749 256.865C69.5821 256.814 69.5787 256.762 69.565 256.712C63.8947 232.925 39.0929 228.859 33.2658 229.126C33.1623 229.131 33.0648 229.176 32.9941 229.252C32.9234 229.328 32.8853 229.428 32.8878 229.532C32.8902 229.583 32.9026 229.633 32.9242 229.679C32.9459 229.725 32.9765 229.766 33.0142 229.8C33.0518 229.835 33.0959 229.861 33.1438 229.878C33.1918 229.896 33.2426 229.903 33.2935 229.901C39.0007 229.643 63.2585 233.589 68.8089 256.897C68.837 256.995 68.901 257.079 68.9882 257.132C69.0753 257.185 69.1792 257.203 69.2792 257.183Z" fill="white"/>
<path d="M41.9418 244.487C42.0195 244.473 42.0906 244.434 42.1446 244.376C44.4982 242.448 47.247 241.061 50.1963 240.314C53.1456 239.567 56.2232 239.477 59.2109 240.052C59.2611 240.061 59.3127 240.061 59.3627 240.05C59.4127 240.039 59.46 240.019 59.502 239.99C59.5441 239.96 59.5799 239.923 59.6074 239.88C59.635 239.837 59.6538 239.789 59.6626 239.739C59.6789 239.637 59.6554 239.534 59.5969 239.45C59.5385 239.365 59.4497 239.307 59.3492 239.287C56.2407 238.69 53.0388 238.787 49.9723 239.571C46.9057 240.356 44.0502 241.807 41.6099 243.823C41.5733 243.858 41.5443 243.901 41.5245 243.947C41.5046 243.994 41.4944 244.044 41.4944 244.095C41.4944 244.146 41.5046 244.196 41.5245 244.243C41.5443 244.29 41.5733 244.332 41.6099 244.367C41.6526 244.411 41.7046 244.444 41.7621 244.465C41.8196 244.486 41.881 244.493 41.9418 244.487Z" fill="white"/>
<path d="M90.1071 145.114L82.6112 123.493L68.3479 115.259L68.3571 132.556V266.615L90.1071 279.172V145.114Z" fill="#077857"/>
<g opacity="0.5">
<path d="M90.1071 145.114L82.6112 123.493L68.3479 115.259L68.3571 132.556V266.615L90.1071 279.172V145.114Z" fill="black"/>
</g>
<path d="M123.815 99.7051L131.302 121.326L90.107 145.114L82.6204 123.493L123.815 99.7051Z" fill="#077857"/>
<path opacity="0.2" d="M123.815 99.7051L131.302 121.326L90.107 145.114L82.6204 123.493L123.815 99.7051Z" fill="black"/>
<path d="M123.815 99.7051L109.552 91.4717L68.3572 115.259L82.6205 123.493L123.815 99.7051Z" fill="#077857"/>
<path opacity="0.1" d="M123.815 99.7051L109.552 91.4717L68.3572 115.259L82.6205 123.493L123.815 99.7051Z" fill="black"/>
<path d="M90.1072 145.114C90.3008 156.288 90.3838 167.454 90.4575 178.628L90.5682 212.143L90.4575 245.658L90.3561 262.411L90.1348 279.173L89.9043 262.411L89.7752 245.658L89.6738 212.143L89.7845 178.628C89.8306 167.454 89.9135 156.288 90.1072 145.114Z" fill="white"/>
<path d="M131.302 121.326C128.14 123.373 124.922 125.337 121.704 127.282C118.486 129.228 115.25 131.109 111.977 133.017C108.704 134.926 105.44 136.76 102.139 138.549L97.1881 141.26C95.5193 142.136 93.8689 143.039 92.1816 143.888C93.7675 142.855 95.3718 141.878 96.9668 140.863L101.789 137.931C105.007 135.986 108.243 134.105 111.516 132.197C114.789 130.288 118.053 128.453 121.344 126.665C124.636 124.876 127.946 123.041 131.302 121.326Z" fill="white"/>
<path d="M123.548 99.8433C120.386 101.89 117.168 103.845 113.95 105.79C110.732 107.736 107.496 109.616 104.223 111.534C100.95 113.452 97.6859 115.222 94.3944 117.066L89.434 119.795C87.7652 120.671 86.1148 121.575 84.4368 122.423C86.0134 121.39 87.6177 120.413 89.2127 119.408L94.0348 116.467C97.2618 114.522 100.489 112.65 103.762 110.732C107.035 108.814 110.299 107.044 113.6 105.2C116.9 103.356 120.229 101.558 123.548 99.8433Z" fill="white"/>
<path d="M90.1072 145.114L131.302 121.326L131.311 255.394L90.1072 279.173V145.114Z" fill="#077857"/>
<path opacity="0.3" d="M90.1072 145.114L131.302 121.326L131.311 255.394L90.1072 279.173V145.114Z" fill="black"/>
<path d="M93.7952 147.243L127.614 127.715L127.623 253.264L93.7952 272.792V147.243Z" fill="#455A64"/>
<path d="M123.815 134.299V186.198L97.5938 201.328V149.438L121.944 135.378L123.815 134.299Z" fill="#37474F"/>
<path d="M123.816 134.299L121.944 135.378L121.953 185.119L123.816 186.198V134.299Z" fill="#263238"/>
<path d="M121.953 185.119L97.5938 199.171V149.438L121.944 135.377L121.953 185.119Z" fill="#077857"/>
<path d="M112.585 146.211L105.597 159.183L110.437 160.419L108.031 171.308L114.429 157.671L109.543 156.611L112.585 146.211Z" fill="#FAFAFA"/>
<path opacity="0.15" d="M102.342 179.265L118.136 170.146C118.689 169.823 119.141 170.054 119.141 170.653C119.115 170.988 119.011 171.312 118.836 171.599C118.662 171.886 118.422 172.127 118.136 172.304L102.342 181.431C101.798 181.745 101.346 181.524 101.346 180.924C101.37 180.589 101.473 180.264 101.646 179.975C101.819 179.687 102.057 179.444 102.342 179.265Z" fill="black"/>
<path opacity="0.15" d="M102.342 183.598L118.136 174.47C118.689 174.157 119.141 174.378 119.141 174.977C119.116 175.312 119.012 175.637 118.837 175.924C118.662 176.211 118.422 176.452 118.136 176.628L102.342 185.755C101.798 186.069 101.346 185.848 101.346 185.248C101.37 184.914 101.473 184.59 101.646 184.303C101.819 184.017 102.057 183.775 102.342 183.598Z" fill="black"/>
<path opacity="0.15" d="M102.342 187.922L118.136 178.804C118.689 178.481 119.141 178.702 119.141 179.301C119.115 179.637 119.011 179.963 118.836 180.251C118.662 180.539 118.422 180.783 118.136 180.961L102.342 190.08C101.798 190.402 101.346 190.172 101.346 189.582C101.369 189.246 101.472 188.921 101.645 188.632C101.818 188.344 102.057 188.1 102.342 187.922Z" fill="black"/>
<path d="M70.9387 168.726C70.9387 166.393 71.7685 164.771 73.0685 164.116C73.2437 164.024 73.9905 163.618 74.1288 163.508C75.2813 162.844 76.8395 162.917 78.5452 163.904C82.1041 165.96 84.9992 171.179 84.9992 175.558V185.746C84.9992 187.95 84.2708 189.508 83.0907 190.264C82.851 190.421 81.9751 190.909 81.7722 191.02C80.6289 191.665 79.0892 191.582 77.4019 190.605C73.8338 188.549 70.9479 183.331 70.9479 178.951L70.9387 168.726Z" fill="#077857"/>
<path d="M77.3927 164.467C73.8246 162.41 70.9387 164.301 70.9387 168.68V178.868C70.9387 183.248 73.8246 188.466 77.3927 190.522C80.9609 192.578 83.8467 190.688 83.8467 186.309V176.102C83.8375 171.741 80.9516 166.523 77.3927 164.467Z" fill="#077857"/>
<path opacity="0.7" d="M77.3927 164.467C73.8246 162.41 70.9387 164.301 70.9387 168.68V178.868C70.9387 183.248 73.8246 188.466 77.3927 190.522C80.9609 192.578 83.8467 190.688 83.8467 186.309V176.102C83.8375 171.741 80.9516 166.523 77.3927 164.467Z" fill="white"/>
<path opacity="0.5" d="M81.8735 190.854C82.1686 190.679 82.8785 190.301 83.0721 190.163C84.2615 189.416 84.9899 187.839 84.9899 185.645V175.475C84.9327 173.351 84.3936 171.267 83.4133 169.381L82.27 170.035C83.2476 171.919 83.7836 174 83.8374 176.121V186.263C83.8374 188.54 83.0814 190.126 81.8735 190.854Z" fill="white"/>
<path opacity="0.7" d="M79.7439 191.324C80.0162 191.361 80.2922 191.361 80.5645 191.324C80.2916 191.352 80.0167 191.352 79.7439 191.324Z" fill="white"/>
<path opacity="0.9" d="M73.2805 163.913C73.959 163.672 74.6854 163.596 75.3991 163.692C76.1128 163.788 76.7931 164.054 77.3834 164.466C79.5001 165.814 81.1938 167.731 82.27 169.998L83.4133 169.344C82.3506 167.074 80.6617 165.154 78.5451 163.812C76.8394 162.825 75.2813 162.751 74.1288 163.415L73.2805 163.913Z" fill="white"/>
<path d="M77.3928 170.57C75.6133 169.537 74.1658 170.376 74.1658 172.414C74.2248 173.534 74.548 174.624 75.1088 175.595C75.6697 176.566 76.4523 177.391 77.3928 178.001C79.1722 179.025 80.6105 178.195 80.6105 176.157C80.5525 175.038 80.2308 173.949 79.6716 172.978C79.1124 172.007 78.3315 171.182 77.3928 170.57Z" fill="#37474F"/>
<path d="M74.9403 172.008C74.8899 171.339 75.1052 170.676 75.5396 170.164C76.1822 170.062 76.8399 170.203 77.3836 170.561C78.3151 171.167 79.0914 171.983 79.6503 172.944C80.2091 173.905 80.5349 174.983 80.6014 176.093C80.6508 176.762 80.4356 177.424 80.0021 177.937C79.3606 178.043 78.7027 177.905 78.1581 177.55C77.2254 176.942 76.4483 176.125 75.8894 175.162C75.3305 174.2 75.0054 173.119 74.9403 172.008Z" fill="#455A64"/>
<path d="M189.72 218.265L188.89 221.723C186.981 225.3 182.759 229.818 181.247 229.44C179.891 229.108 179.061 227.135 178.637 224.701C178.434 223.537 178.317 222.36 178.287 221.179C178.158 217.343 179.864 208.418 185.174 206.039C185.708 205.812 186.3 205.759 186.865 205.886C187.431 206.013 187.943 206.315 188.328 206.749C189.037 207.458 189.566 208.328 189.867 209.285C190.752 211.94 189.84 218.127 189.72 218.265Z" fill="#077857"/>
<path opacity="0.3" d="M189.72 218.265C189.443 219.694 188.89 221.723 188.89 221.723C186.981 225.3 182.759 229.818 181.247 229.44C179.891 229.108 179.061 227.135 178.637 224.701C178.434 223.537 178.317 222.36 178.287 221.179C178.158 217.343 179.864 208.418 185.174 206.039C185.708 205.812 186.3 205.759 186.865 205.886C187.431 206.013 187.943 206.315 188.328 206.749C189.037 207.458 189.566 208.328 189.867 209.285C190.752 211.94 189.84 218.127 189.72 218.265Z" fill="black"/>
<path d="M188.89 221.723C186.981 225.3 182.759 229.818 181.247 229.44C179.891 229.108 179.061 227.135 178.637 224.701C178.434 223.537 178.317 222.36 178.287 221.179C178.158 217.343 179.864 208.418 185.174 206.039C185.708 205.812 186.3 205.759 186.865 205.886C187.431 206.013 187.943 206.315 188.328 206.749L187.599 208.391C183.911 209.986 182.888 215.72 183.229 220.081C183.57 224.443 186.76 223.972 188.89 221.723Z" fill="#077857"/>
<path opacity="0.35" d="M188.89 221.723C186.981 225.3 182.759 229.818 181.247 229.44C179.891 229.108 179.061 227.135 178.637 224.701C178.434 223.537 178.317 222.36 178.287 221.179C178.158 217.343 179.864 208.418 185.174 206.039C185.708 205.812 186.3 205.759 186.865 205.886C187.431 206.013 187.943 206.315 188.328 206.749L187.599 208.391C183.911 209.986 182.888 215.72 183.229 220.081C183.57 224.443 186.76 223.972 188.89 221.723Z" fill="black"/>
<path d="M189.858 209.294C188.512 207.874 185.175 207.8 182.372 211.663C179.569 215.527 178.684 222.137 178.638 224.71C178.436 223.543 178.315 222.363 178.278 221.179C178.149 217.352 179.855 208.418 185.165 206.049C187.387 205.025 189.222 207.293 189.858 209.294Z" fill="#37474F"/>
<path d="M365.462 207.349L312.558 178.167C310.327 176.599 307.827 175.455 305.182 174.793C307.469 161.82 288.586 146.801 271.068 151.798C271.068 151.798 231.422 168.394 221.649 178.859C207.044 194.533 189.379 211.793 184.105 225.282C183.183 227.725 272.35 316.495 272.35 316.495L309.239 337.821L404.675 228.97C397.133 213.784 387.351 201.844 365.462 207.349ZM270.985 157.376C278.315 155.422 283.469 155.366 290.439 161.811C295.141 166.172 296.681 179.163 292.56 181.321L262.825 196.902H262.779L262.457 197.068C259.801 198.461 260.133 195.538 260.613 193.021C261.737 186.65 264.116 173.272 265.444 165.739C265.933 161.802 267.647 158.261 270.985 157.376ZM190.365 226.812C193.528 216.154 213.978 195.464 218.615 191.177C230.223 180.509 239.821 173.382 242.965 171.658C250.812 167.362 254.878 165.278 257.616 163.932C261.027 162.254 262.005 163.056 261.922 164.033C261.876 164.513 261.802 165.103 261.682 165.794L257.994 185.728C257.376 188.623 256.583 189.241 251.761 191.868C233.902 201.568 190.485 226.757 190.365 226.812Z" fill="#077857"/>
<path opacity="0.2" d="M365.462 207.349L312.558 178.167C310.327 176.599 307.827 175.455 305.182 174.793C307.469 161.82 288.586 146.801 271.068 151.798C271.068 151.798 234.271 168.265 224.479 178.776C209.875 194.45 191.204 213.314 185.949 226.803C185.027 229.246 272.35 316.495 272.35 316.495L309.239 337.821L404.675 228.97C397.133 213.784 387.351 201.844 365.462 207.349ZM270.985 157.376C278.315 155.422 283.469 155.366 290.439 161.811C295.141 166.172 296.681 179.163 292.56 181.321L262.825 196.902H262.779L262.456 197.068C259.801 198.461 260.133 195.538 260.612 193.021C261.737 186.65 264.116 173.272 265.444 165.739C265.932 161.802 267.647 158.261 270.985 157.376ZM190.365 226.812C193.528 216.154 213.978 195.464 218.615 191.177C230.223 180.509 239.821 173.382 242.965 171.658C250.812 167.362 254.878 165.278 257.616 163.932C261.027 162.254 262.005 163.056 261.922 164.033C261.876 164.513 261.802 165.103 261.682 165.794L257.994 185.728C257.376 188.623 256.583 189.241 251.761 191.868C233.902 201.568 190.485 226.757 190.365 226.812Z" fill="black"/>
<path d="M299.226 254.278L288.42 254.066L271.99 244.643C270.456 243.873 268.777 243.432 267.062 243.35C265.347 243.267 263.634 243.545 262.032 244.164L242.09 253.154L228.426 252.886V260.861C228.426 261.783 229.062 262.705 230.353 263.425L266.145 284.087C267.596 284.838 269.229 285.167 270.859 285.039C272.488 284.91 274.049 284.328 275.365 283.358L297.594 265.315C298.079 264.961 298.478 264.501 298.761 263.971C299.043 263.441 299.202 262.854 299.226 262.254V254.278Z" fill="#37474F"/>
<path d="M230.343 255.449L266.135 276.121C267.588 276.87 269.22 277.198 270.849 277.069C272.478 276.941 274.039 276.36 275.355 275.392L297.585 257.34C299.982 255.394 299.751 252.564 297.068 251.033L271.99 236.659C270.455 235.891 268.776 235.451 267.062 235.369C265.347 235.286 263.634 235.562 262.032 236.18L230.62 250.351C227.78 251.623 227.669 253.91 230.343 255.449Z" fill="#455A64"/>
<path d="M299.235 254.288V262.244C299.213 262.844 299.054 263.43 298.772 263.959C298.489 264.488 298.089 264.945 297.603 265.296L275.374 283.34C274.114 284.301 272.602 284.878 271.022 284.999V277.024C272.602 276.902 274.114 276.326 275.374 275.365L297.603 257.312C298.083 256.961 298.478 256.507 298.76 255.984C299.043 255.461 299.205 254.881 299.235 254.288Z" fill="#263238"/>
<path d="M302.683 251.918C302.738 252.274 302.695 252.638 302.561 252.972C302.426 253.307 302.204 253.598 301.918 253.817L292.8 259.073C293.098 258.866 293.33 258.578 293.469 258.243C293.608 257.908 293.648 257.54 293.583 257.183L291.601 212.65C291.501 211.635 291.175 210.655 290.647 209.782C290.119 208.91 289.402 208.166 288.549 207.607L267.067 195.215C266.739 194.989 266.358 194.853 265.962 194.821C265.565 194.788 265.167 194.861 264.808 195.031L273.852 189.812C274.217 189.626 274.626 189.542 275.034 189.568C275.443 189.594 275.837 189.729 276.176 189.96L297.64 202.351C298.496 202.909 299.215 203.652 299.745 204.525C300.275 205.398 300.601 206.378 300.701 207.395L302.683 251.918Z" fill="#263238"/>
<path d="M267.076 195.196L288.586 207.597C289.438 208.156 290.154 208.898 290.682 209.769C291.21 210.64 291.536 211.618 291.638 212.631L293.62 257.173C293.703 259.017 292.468 259.783 290.854 258.851L260.29 241.204C259.464 240.674 258.801 239.926 258.375 239.042C257.948 238.159 257.775 237.174 257.874 236.198L263.692 196.838C263.706 196.451 263.826 196.076 264.037 195.753C264.248 195.429 264.543 195.169 264.891 195.001C265.239 194.832 265.626 194.761 266.01 194.796C266.395 194.83 266.764 194.969 267.076 195.196Z" fill="#37474F"/>
<path d="M299.761 204.527L290.661 209.783C290.145 208.893 289.42 208.143 288.549 207.597L267.067 195.206C266.739 194.98 266.358 194.844 265.962 194.811C265.565 194.779 265.167 194.851 264.808 195.021L273.852 189.803C274.217 189.617 274.626 189.533 275.034 189.559C275.443 189.585 275.837 189.72 276.176 189.95L297.64 202.342C298.51 202.893 299.236 203.642 299.761 204.527Z" fill="#455A64"/>
<path d="M296.008 198.055V186.991C296.008 179.016 290.909 169.611 284.631 165.988C281.754 164.319 279.099 164.144 277.126 165.269L270.146 169.252L273.225 175.134V184.917C273.281 185.926 273.572 186.908 274.077 187.784C274.581 188.66 275.285 189.405 276.13 189.96L283.054 193.952L288.263 203.919L295.114 199.936C295.419 199.733 295.663 199.45 295.821 199.119C295.978 198.788 296.043 198.42 296.008 198.055Z" fill="#263238"/>
<path d="M284.631 181.745L293.546 176.6C291.463 172.054 288.245 168.044 284.631 165.96C281.754 164.291 279.099 164.116 277.126 165.241L270.146 169.252L273.225 175.134V177.024L284.631 181.745Z" fill="#455A64"/>
<path d="M289.185 202.02V190.956C289.185 182.98 284.087 173.576 277.808 169.943C271.529 166.311 266.458 169.833 266.458 177.808V188.872C266.513 189.881 266.805 190.864 267.309 191.74C267.814 192.616 268.517 193.361 269.362 193.915L286.29 203.679C287.876 204.629 289.185 203.882 289.185 202.02Z" fill="#37474F"/>
<path d="M267.721 204.684C265.076 214.511 263.81 224.658 263.959 234.833C264.031 235.876 264.312 236.893 264.788 237.823C265.263 238.753 265.922 239.577 266.725 240.246C272.032 244.177 277.774 247.485 283.838 250.102C284.183 250.296 284.574 250.393 284.97 250.382C285.366 250.372 285.751 250.255 286.086 250.043C286.42 249.831 286.691 249.533 286.87 249.18C287.049 248.826 287.129 248.431 287.102 248.036C287.71 237.148 287.743 226.235 287.203 215.342C286.947 213.237 285.898 211.309 284.271 209.949C280.378 207.1 276.19 204.68 271.778 202.729C271.387 202.546 270.961 202.453 270.53 202.455C270.099 202.457 269.674 202.556 269.285 202.743C268.897 202.93 268.555 203.201 268.284 203.537C268.014 203.873 267.821 204.265 267.721 204.684Z" fill="#077857"/>
<path opacity="0.15" d="M286.834 249.014C286.975 248.69 287.057 248.343 287.074 247.99C287.682 237.101 287.716 226.188 287.175 215.296C287.074 214.257 286.76 213.249 286.253 212.336C285.064 210.64 284.64 224.903 284.649 233.598C284.658 242.292 284.769 250.885 286.189 249.889L286.355 249.751C286.538 249.521 286.699 249.274 286.834 249.014Z" fill="black"/>
<g opacity="0.15">
<path d="M265.951 234.05L266.642 234.492C267.076 234.787 267.703 235.175 268.44 235.663C269.925 236.585 271.907 237.876 273.972 239.038C276.038 240.2 278.075 241.287 279.661 242.08C280.454 242.468 281.109 242.827 281.579 243.002C282.049 243.178 282.307 243.38 282.307 243.38L281.505 243.214C280.998 243.085 280.27 242.919 279.421 242.634C278.448 242.322 277.491 241.962 276.554 241.555C276.047 241.315 275.503 241.094 274.987 240.817C274.47 240.541 273.935 240.255 273.41 239.969C272.377 239.361 271.372 238.724 270.459 238.061C269.633 237.461 268.839 236.817 268.081 236.134C267.408 235.543 266.891 234.99 266.532 234.621C266.172 234.253 265.951 234.05 265.951 234.05Z" fill="black"/>
<path d="M265.951 228.426C265.951 228.426 266.209 228.573 266.642 228.859C267.076 229.145 267.703 229.551 268.44 230.03C269.925 230.952 271.907 232.252 273.972 233.405C276.038 234.557 278.075 235.654 279.661 236.447C280.454 236.844 281.109 237.194 281.579 237.415L282.307 237.784C282.307 237.784 282.012 237.784 281.505 237.618C280.998 237.452 280.27 237.323 279.421 237.046C278.573 236.77 277.577 236.401 276.554 235.959C276.047 235.719 275.503 235.498 274.987 235.221C274.47 234.944 273.935 234.668 273.41 234.382C272.377 233.773 271.372 233.128 270.459 232.464C269.633 231.864 268.839 231.221 268.081 230.537C267.408 229.947 266.891 229.394 266.532 229.025C266.172 228.656 265.951 228.426 265.951 228.426Z" fill="black"/>
<path d="M267.113 223.77L267.758 224.166C268.154 224.443 268.744 224.784 269.427 225.236C270.791 226.158 272.626 227.245 274.516 228.26C276.406 229.274 278.361 230.214 279.836 230.924L281.606 231.846C282.04 232.058 282.279 232.197 282.279 232.197L281.533 232.049C281.072 231.938 280.389 231.8 279.606 231.57C278.822 231.339 277.891 231.035 276.932 230.648C276.452 230.445 275.955 230.251 275.466 230.011C274.977 229.772 274.479 229.532 273.991 229.274C273.502 229.016 273.023 228.73 272.562 228.435C272.101 228.14 271.64 227.836 271.234 227.513C270.466 226.963 269.73 226.369 269.03 225.733C268.422 225.18 267.952 224.664 267.62 224.323C267.288 223.982 267.113 223.77 267.113 223.77Z" fill="black"/>
<path d="M267.583 218.514C267.583 218.514 267.813 218.643 268.21 218.901C268.606 219.16 269.132 219.491 269.823 219.925C271.151 220.773 272.921 221.861 274.756 222.82C276.591 223.779 278.444 224.664 279.91 225.337L281.634 226.185L282.279 226.526C282.279 226.526 282.012 226.526 281.56 226.397C281.109 226.268 280.454 226.158 279.716 225.945C278.979 225.733 278.057 225.448 277.125 225.097C276.664 224.904 276.203 224.738 275.696 224.507C275.189 224.277 274.774 224.046 274.258 223.806C273.742 223.567 273.336 223.29 272.875 223.014C272.414 222.737 271.999 222.433 271.584 222.156C270.843 221.625 270.135 221.049 269.464 220.432C268.864 219.897 268.413 219.399 268.099 219.067C267.786 218.735 267.583 218.514 267.583 218.514Z" fill="black"/>
<path d="M268.385 213.508L268.975 213.858L270.496 214.78C272 215.756 273.554 216.651 275.152 217.463C276.886 218.339 278.702 219.104 280.048 219.741C281.394 220.377 282.28 220.865 282.28 220.865C281.454 220.736 280.635 220.564 279.827 220.349C278.038 219.902 276.302 219.269 274.645 218.459C274.203 218.219 273.723 217.989 273.327 217.731C272.93 217.472 272.497 217.187 272.11 216.928C271.408 216.425 270.74 215.877 270.109 215.287C269.492 214.737 268.916 214.142 268.385 213.508Z" fill="black"/>
<path d="M270.247 208.686C270.247 208.686 271.022 209.119 272.091 209.81C273.161 210.502 274.636 211.359 276.139 212.143C277.642 212.927 279.182 213.655 280.343 214.236C281.505 214.817 282.261 215.269 282.261 215.269C281.536 215.176 280.818 215.034 280.113 214.845C278.558 214.438 277.053 213.863 275.623 213.13C275.235 212.918 274.848 212.705 274.479 212.475C274.111 212.244 273.76 212.005 273.419 211.765C272.81 211.322 272.233 210.835 271.695 210.308C271.17 209.807 270.686 209.264 270.247 208.686Z" fill="black"/>
</g>
<path d="M258.556 245.151C252.914 246.165 247.326 249.042 241.785 253.2C241.443 253.426 241.162 253.733 240.968 254.094C240.773 254.456 240.671 254.859 240.671 255.27C240.671 255.68 240.773 256.084 240.968 256.445C241.162 256.806 241.443 257.114 241.785 257.34C248.483 262.261 255.714 266.411 263.342 269.713C264.32 270.088 265.363 270.267 266.41 270.239C267.457 270.21 268.489 269.975 269.445 269.547C274.184 267.135 278.535 264.027 282.353 260.327C282.659 260.029 282.894 259.667 283.041 259.266C283.189 258.866 283.246 258.438 283.207 258.013C283.168 257.588 283.035 257.177 282.817 256.81C282.599 256.443 282.302 256.13 281.948 255.892C276.683 251.984 271.01 248.657 265.029 245.971C262.97 245.175 260.749 244.893 258.556 245.151Z" fill="#077857"/>
<g opacity="0.2">
<path d="M244.8 255.284C244.8 255.284 245.16 255.376 245.722 255.56C246.284 255.745 247.197 256.021 248.221 256.409C250.713 257.361 253.132 258.495 255.458 259.801C257.779 261.119 259.989 262.62 262.069 264.292C263.756 265.684 264.771 266.726 264.771 266.726L261.691 264.817C259.847 263.674 257.404 262.189 254.905 260.779C252.407 259.368 249.871 258.013 247.953 256.999L245.639 255.763L244.8 255.284Z" fill="black"/>
<path d="M250.185 252.186L251.107 252.462C251.706 252.656 252.582 252.923 253.596 253.32C256.091 254.263 258.51 255.394 260.834 256.703C263.157 258.016 265.368 259.518 267.444 261.194C269.132 262.586 270.146 263.628 270.146 263.628L267.076 261.719C265.232 260.576 262.779 259.091 260.28 257.681C257.782 256.27 255.246 254.915 253.338 253.9L251.06 252.628C250.498 252.37 250.185 252.186 250.185 252.186Z" fill="black"/>
<path d="M254.804 249.558L255.726 249.835C256.325 250.038 257.201 250.296 258.224 250.692C260.717 251.637 263.134 252.771 265.453 254.085C267.781 255.394 269.996 256.896 272.073 258.575C273.014 259.337 273.915 260.147 274.774 261C274.774 261 273.539 260.244 271.695 259.092C269.851 257.939 267.407 256.464 264.9 255.053C262.392 253.643 259.875 252.287 257.957 251.273L255.643 250.038C255.117 249.742 254.804 249.558 254.804 249.558Z" fill="black"/>
<path d="M259.847 247.4L260.769 247.649C261.322 247.825 262.125 248.064 263.056 248.415C265.351 249.274 267.577 250.309 269.713 251.513C271.845 252.719 273.871 254.104 275.77 255.652C277.31 256.934 278.241 257.902 278.241 257.902C278.241 257.902 277.946 257.745 277.448 257.432L275.401 256.178C273.705 255.136 271.455 253.781 269.159 252.49C266.864 251.199 264.549 249.945 262.798 249.005L260.686 247.852C260.133 247.576 259.847 247.4 259.847 247.4Z" fill="black"/>
</g>
<path d="M348.571 283.21L337.765 282.998L321.317 273.576C319.782 272.807 318.104 272.367 316.389 272.284C314.674 272.202 312.961 272.478 311.359 273.096L291.426 282.132L277.762 281.864V289.84C277.762 290.762 278.398 291.684 279.698 292.403L315.49 313.074C316.942 313.826 318.576 314.155 320.206 314.025C321.835 313.894 323.396 313.309 324.71 312.336L346.939 294.293C347.425 293.94 347.824 293.483 348.108 292.954C348.392 292.426 348.554 291.84 348.581 291.241L348.571 283.21Z" fill="#37474F"/>
<path d="M279.698 284.391L315.49 305.053C316.941 305.806 318.574 306.137 320.204 306.008C321.834 305.879 323.395 305.296 324.71 304.324L346.939 286.281C349.336 284.326 349.115 281.505 346.432 279.965L321.317 265.6C319.783 264.829 318.104 264.388 316.389 264.306C314.674 264.223 312.96 264.501 311.359 265.121L279.947 279.283C277.135 280.555 277.015 282.842 279.698 284.391Z" fill="#455A64"/>
<path d="M348.58 283.22V291.186C348.558 291.785 348.4 292.371 348.117 292.9C347.834 293.429 347.435 293.886 346.948 294.238L324.719 312.281C323.463 313.244 321.954 313.821 320.376 313.941V305.965C321.954 305.846 323.463 305.269 324.719 304.306L346.948 286.262C347.429 285.908 347.825 285.451 348.107 284.925C348.389 284.398 348.551 283.816 348.58 283.22Z" fill="#263238"/>
<path d="M352.029 280.859C352.084 281.214 352.042 281.577 351.908 281.91C351.773 282.243 351.55 282.533 351.263 282.749L342.154 288.014C342.452 287.805 342.684 287.515 342.823 287.179C342.962 286.842 343.002 286.473 342.938 286.115L340.955 241.564C340.854 240.548 340.526 239.568 339.996 238.695C339.467 237.822 338.749 237.079 337.894 236.52L316.421 224.138C316.091 223.914 315.708 223.78 315.311 223.748C314.914 223.715 314.515 223.786 314.153 223.953L323.207 218.735C323.571 218.554 323.977 218.472 324.384 218.498C324.79 218.524 325.182 218.656 325.521 218.882L346.985 231.283C347.84 231.84 348.558 232.581 349.088 233.452C349.618 234.324 349.945 235.303 350.046 236.317L352.029 280.859Z" fill="#263238"/>
<path d="M316.421 224.138L337.894 236.53C338.747 237.088 339.465 237.829 339.995 238.7C340.524 239.571 340.852 240.55 340.955 241.564L342.929 286.115C343.012 287.959 341.776 288.715 340.163 287.793L309.598 270.146C308.773 269.617 308.111 268.871 307.684 267.988C307.258 267.106 307.084 266.123 307.183 265.148L313.019 225.788C313.026 225.397 313.141 225.015 313.352 224.685C313.563 224.355 313.861 224.09 314.214 223.919C314.566 223.748 314.959 223.678 315.348 223.717C315.738 223.755 316.109 223.901 316.421 224.138Z" fill="#37474F"/>
<path d="M349.106 233.468L340.015 238.715C339.492 237.828 338.765 237.078 337.894 236.529L316.421 224.138C316.091 223.914 315.708 223.78 315.311 223.748C314.914 223.715 314.515 223.786 314.153 223.953L323.207 218.735C323.571 218.554 323.977 218.472 324.384 218.498C324.79 218.524 325.182 218.656 325.521 218.882L346.985 231.283C347.859 231.829 348.587 232.579 349.106 233.468Z" fill="#455A64"/>
<path d="M345.353 226.987V215.923C345.353 207.939 340.264 198.534 333.976 194.911C331.099 193.242 328.444 193.067 326.471 194.192L319.537 198.23L322.608 204.121V213.904C322.661 214.914 322.953 215.896 323.459 216.771C323.966 217.646 324.672 218.389 325.521 218.938L332.436 222.94L337.645 232.906L344.496 228.914C344.8 228.701 345.041 228.409 345.192 228.07C345.343 227.73 345.399 227.356 345.353 226.987Z" fill="#263238"/>
<path d="M333.976 210.677L342.892 205.532C340.808 200.987 337.599 196.976 333.976 194.892C331.099 193.223 328.444 193.048 326.471 194.173L319.537 198.23L322.608 204.121V206.039L333.976 210.677Z" fill="#455A64"/>
<path d="M338.531 230.961V219.897C338.531 211.922 333.441 202.517 327.153 198.894C320.865 195.27 315.785 198.792 315.785 206.768V217.832C315.841 218.842 316.134 219.825 316.64 220.701C317.146 221.577 317.851 222.321 318.698 222.875L335.608 232.639C337.231 233.561 338.531 232.814 338.531 230.961Z" fill="#37474F"/>
<path d="M317.067 233.57C314.427 243.398 313.161 253.544 313.305 263.72C313.379 264.763 313.662 265.78 314.137 266.711C314.612 267.643 315.27 268.469 316.071 269.141C321.38 273.069 327.121 276.376 333.183 278.997C333.529 279.188 333.921 279.283 334.316 279.271C334.712 279.258 335.096 279.14 335.43 278.928C335.764 278.716 336.035 278.418 336.214 278.065C336.392 277.712 336.473 277.317 336.447 276.923C337.055 266.034 337.089 255.121 336.548 244.229C336.296 242.122 335.247 240.192 333.616 238.835C329.725 235.992 325.54 233.574 321.133 231.625C320.742 231.44 320.316 231.345 319.884 231.346C319.452 231.347 319.026 231.444 318.637 231.63C318.247 231.816 317.904 232.087 317.633 232.423C317.361 232.759 317.168 233.151 317.067 233.57Z" fill="#077857"/>
<path opacity="0.15" d="M336.179 277.946C336.321 277.622 336.402 277.275 336.419 276.922C337.027 266.034 337.061 255.121 336.521 244.228C336.417 243.19 336.103 242.183 335.599 241.269C334.409 239.581 333.994 253.836 334.004 262.53C334.013 271.224 334.114 279.827 335.543 278.822C335.6 278.781 335.652 278.734 335.7 278.683C335.885 278.455 336.046 278.208 336.179 277.946Z" fill="black"/>
<g opacity="0.15">
<path d="M315.324 262.982L316.015 263.424C316.449 263.729 317.076 264.116 317.859 264.595C319.335 265.517 321.317 266.817 323.391 267.97C325.466 269.122 327.504 270.22 329.08 271.013C329.873 271.409 330.528 271.759 330.998 271.981L331.726 272.349C331.726 272.349 331.431 272.303 330.924 272.183C330.417 272.064 329.689 271.888 328.84 271.612C327.992 271.335 326.996 270.966 325.973 270.524C325.466 270.284 324.931 270.063 324.415 269.786C323.899 269.51 323.364 269.233 322.838 268.947C321.806 268.339 320.791 267.693 319.888 267.029C319.059 266.43 318.261 265.786 317.5 265.103C316.827 264.512 316.32 263.959 315.951 263.59C315.582 263.222 315.324 262.982 315.324 262.982Z" fill="black"/>
<path d="M315.324 257.358C315.324 257.358 315.582 257.505 316.015 257.8C316.449 258.095 317.076 258.483 317.859 258.971C319.335 259.94 321.317 261.184 323.391 262.346C325.466 263.508 327.504 264.586 329.08 265.379C329.873 265.776 330.528 266.126 330.998 266.347C331.468 266.569 331.726 266.725 331.726 266.725L330.924 266.55C330.417 266.421 329.689 266.264 328.84 265.979C327.992 265.693 326.996 265.333 325.973 264.891C325.466 264.66 324.931 264.439 324.415 264.153C323.899 263.867 323.364 263.6 322.838 263.314C321.806 262.706 320.791 262.069 319.888 261.405C318.984 260.742 318.164 260.078 317.5 259.478C316.836 258.879 316.32 258.335 315.951 257.966C315.582 257.598 315.324 257.358 315.324 257.358Z" fill="black"/>
<path d="M316.458 252.702L317.103 253.098C317.5 253.375 318.09 253.725 318.772 254.168C320.146 255.09 321.972 256.178 323.871 257.201C325.77 258.224 327.706 259.156 329.182 259.866L330.961 260.742C331.385 260.954 331.625 261.092 331.625 261.092C331.625 261.092 331.358 261.092 330.887 260.944C330.417 260.797 329.744 260.705 328.951 260.465C328.158 260.225 327.245 259.93 326.277 259.543C325.807 259.34 325.3 259.156 324.811 258.907C324.323 258.658 323.825 258.427 323.336 258.169C322.847 257.911 322.414 257.625 321.916 257.339C321.418 257.053 320.994 256.74 320.579 256.417C319.814 255.867 319.081 255.273 318.385 254.638C317.767 254.085 317.297 253.578 316.965 253.227L316.458 252.702Z" fill="black"/>
<path d="M316.928 247.446C316.928 247.446 317.168 247.585 317.555 247.834C317.942 248.082 318.477 248.433 319.169 248.857C320.496 249.705 322.267 250.793 324.101 251.752C325.936 252.711 327.835 253.596 329.255 254.278L330.98 255.127C331.394 255.329 331.625 255.468 331.625 255.468L330.906 255.329C330.454 255.228 329.799 255.099 329.062 254.878C328.324 254.656 327.402 254.389 326.471 254.029C326.01 253.845 325.549 253.67 325.042 253.439C324.535 253.209 324.12 252.988 323.604 252.748C323.087 252.508 322.682 252.222 322.221 251.946C321.76 251.669 321.345 251.374 320.93 251.088C320.187 250.56 319.478 249.984 318.809 249.364C318.21 248.829 317.758 248.331 317.445 247.999C317.131 247.668 316.928 247.446 316.928 247.446Z" fill="black"/>
<path d="M317.73 242.486L318.33 242.845L319.851 243.767C321.341 244.737 322.88 245.629 324.461 246.441C326.194 247.363 328.011 248.092 329.357 248.728C330.703 249.364 331.588 249.843 331.588 249.843C330.765 249.715 329.95 249.542 329.145 249.327C327.358 248.895 325.621 248.277 323.963 247.483C323.511 247.243 323.041 247.004 322.645 246.745C322.248 246.487 321.806 246.211 321.418 245.943C320.717 245.443 320.049 244.898 319.418 244.311C318.813 243.743 318.249 243.133 317.73 242.486Z" fill="black"/>
<path d="M319.593 237.618C319.593 237.618 320.367 238.06 321.437 238.743C322.506 239.425 323.981 240.301 325.484 241.075C326.987 241.85 328.536 242.587 329.689 243.177C330.841 243.767 331.606 244.201 331.606 244.201C330.885 244.109 330.17 243.967 329.467 243.777C327.909 243.372 326.4 242.797 324.968 242.062C324.581 241.85 324.194 241.638 323.825 241.407C323.456 241.177 323.106 240.937 322.764 240.697C322.159 240.253 321.583 239.769 321.04 239.25C320.517 238.744 320.033 238.198 319.593 237.618Z" fill="black"/>
</g>
<path d="M307.948 274.083C302.305 275.097 296.718 277.974 291.177 282.141C290.834 282.367 290.553 282.674 290.359 283.036C290.164 283.397 290.063 283.801 290.063 284.211C290.063 284.621 290.164 285.025 290.359 285.386C290.553 285.748 290.834 286.055 291.177 286.281C297.877 291.196 305.108 295.343 312.733 298.645C314.708 299.401 316.903 299.345 318.837 298.488C323.574 296.075 327.925 292.967 331.745 289.268C332.052 288.971 332.288 288.609 332.437 288.208C332.585 287.808 332.642 287.379 332.604 286.954C332.565 286.528 332.431 286.117 332.212 285.75C331.993 285.383 331.695 285.07 331.339 284.833C326.066 280.936 320.387 277.619 314.402 274.94C312.352 274.136 310.137 273.841 307.948 274.083Z" fill="#077857"/>
<g opacity="0.2">
<path d="M294.118 284.216L295.04 284.492C295.639 284.695 296.515 284.963 297.529 285.35C300.026 286.292 302.446 287.427 304.767 288.743C307.118 290.034 309.354 291.524 311.452 293.196C312.394 293.959 313.296 294.772 314.153 295.63L311.083 293.722C309.239 292.569 306.786 291.085 304.288 289.674C301.789 288.263 299.253 286.908 297.345 285.894L295.04 284.695C294.468 284.4 294.118 284.216 294.118 284.216Z" fill="black"/>
<path d="M299.53 281.118C299.53 281.118 299.88 281.21 300.452 281.403C301.024 281.597 301.927 281.865 302.941 282.252C305.438 283.194 307.858 284.329 310.179 285.645C312.506 286.951 314.718 288.453 316.79 290.135C317.734 290.9 318.639 291.712 319.501 292.569L316.421 290.66C314.577 289.508 312.134 288.023 309.626 286.613C307.118 285.202 304.592 283.847 302.683 282.833L300.369 281.597C299.844 281.302 299.53 281.118 299.53 281.118Z" fill="black"/>
<path d="M304.149 278.49C304.149 278.49 304.509 278.582 305.071 278.776C305.634 278.97 306.556 279.237 307.57 279.624C310.065 280.569 312.485 281.703 314.807 283.017C317.13 284.331 319.341 285.833 321.418 287.507C322.361 288.271 323.263 289.083 324.12 289.941L321.04 288.033C319.196 286.89 316.753 285.396 314.254 283.985C311.756 282.575 309.22 281.219 307.302 280.205L304.988 278.97L304.149 278.49Z" fill="black"/>
<path d="M309.193 276.342C309.193 276.342 309.515 276.416 310.115 276.591C310.714 276.766 311.47 276.996 312.41 277.356C314.704 278.21 316.926 279.243 319.058 280.445C321.193 281.652 323.223 283.036 325.125 284.584C325.983 285.295 326.805 286.049 327.587 286.843C327.587 286.843 327.291 286.677 326.803 286.364L324.747 285.11C323.06 284.068 320.801 282.713 318.505 281.422C316.209 280.131 313.895 278.877 312.143 277.937L310.032 276.784L309.193 276.342Z" fill="black"/>
</g>
<path d="M418.422 274.747L381.487 253.421L402.001 241.573L421.981 254.186L418.422 274.747Z" fill="#077857"/>
<path opacity="0.35" d="M418.422 274.747L381.487 253.421L402.001 241.573L421.981 254.186L418.422 274.747Z" fill="black"/>
<path d="M402.849 269.676L408.151 259.146L395.538 251.835C391.527 249.521 386.18 249.788 380.316 253.172C367.85 260.373 365.232 274.608 365.232 290.31C365.232 298.534 360.52 308.658 364.946 311.295L365.121 311.396L378.029 318.864L383.626 307.754C394.256 299.65 402.444 283.69 402.849 269.676Z" fill="#37474F"/>
<path d="M402.849 269.676L408.151 259.146L395.538 251.835C391.527 249.521 386.18 249.788 380.316 253.172C367.85 260.373 365.232 274.608 365.232 290.31C365.232 298.534 360.52 308.658 364.946 311.295L365.121 311.396L378.029 318.864L383.626 307.754C394.256 299.65 402.444 283.69 402.849 269.676Z" fill="#263238"/>
<path d="M416.006 276.157C416.006 289.702 408.492 305.366 398.424 314.033C396.883 315.36 395.226 316.545 393.473 317.574C381.007 324.775 370.893 317.878 370.902 302.176C370.902 290.319 376.674 276.812 384.87 267.823L384.935 267.749C387.408 264.984 390.286 262.612 393.473 260.714C405.901 253.55 416.006 260.465 416.006 276.157Z" fill="#37474F"/>
<path d="M393.436 270.238C401.365 265.628 407.801 270.432 407.801 280.896C407.801 291.361 401.347 303.568 393.436 308.151C385.525 312.733 379.071 307.957 379.071 297.483C379.071 287.009 385.507 274.82 393.436 270.238Z" fill="#455A64"/>
<path d="M399.908 286.244C399.401 291.453 396.091 297.004 392.532 298.627C391.925 298.974 391.228 299.131 390.531 299.076C389.834 299.022 389.169 298.759 388.623 298.322C387.351 297.262 386.696 295.068 386.982 292.136C387.48 286.926 390.78 281.385 394.358 279.763C395.167 279.348 396.093 279.218 396.986 279.394C399.051 279.892 400.268 282.455 399.908 286.244Z" fill="#FAFAFA"/>
<path d="M398.617 285.58C398.11 290.79 394.8 296.34 391.241 297.963C390.435 298.376 389.511 298.503 388.623 298.322C387.351 297.262 386.696 295.068 386.982 292.136C387.48 286.926 390.78 281.385 394.358 279.763C395.167 279.348 396.093 279.218 396.986 279.394C398.239 280.472 398.903 282.667 398.617 285.58Z" fill="#E0E0E0"/>
<path d="M416.006 276.157C416.006 289.702 408.492 305.366 398.424 314.033C405.403 306.134 410.322 296.632 412.742 286.373C414.651 277.319 413.932 264.328 406.168 261.046C398.405 257.764 388.162 264.614 384.898 267.795C387.371 265.03 390.249 262.658 393.436 260.76C405.901 253.55 416.006 260.465 416.006 276.157Z" fill="#455A64"/>
<path d="M404.675 228.969C404.675 215.997 381.081 196.533 363.48 205.182C363.48 205.182 329.772 222.525 321.833 233.035C309.995 248.709 299.447 276.369 296.57 289.886C296.045 292.329 304.481 288.042 307.376 287.35C307.727 287.289 308.088 287.318 308.425 287.434C308.762 287.55 309.064 287.75 309.303 288.014L309.239 337.802L363.683 306.454C363.683 304.998 363.76 303.542 363.913 302.093C365.582 284.824 378.241 264.789 391.813 256.961C406.565 248.451 418.486 256.399 418.486 274.719C420.948 273.576 422.174 272.414 422.783 269.362C423.391 266.31 423.401 261.378 423.401 252.72C423.401 242.753 417.915 232.289 404.675 228.969ZM390.928 230.242L366.264 244.487H366.218L365.932 244.653C363.526 246.045 363.342 243.122 363.342 240.605C363.342 234.234 363.342 227.448 363.342 219.915C363.203 215.932 364.264 212.392 367.472 211.507C374.461 209.552 379.606 209.497 387.71 215.941C393.131 220.358 394.616 228.084 390.928 230.242ZM309.331 277.264C310.612 266.605 319.03 251.337 321.603 246.1C327.457 234.16 339.121 227.513 341.951 225.816C349.041 221.52 352.739 219.436 355.237 218.09C358.354 216.412 359.469 217.168 359.561 218.191C359.561 218.671 359.635 219.261 359.635 219.952V244.699C359.739 245.815 359.509 246.937 358.974 247.922C358.439 248.907 357.623 249.711 356.629 250.231C356.629 250.231 309.441 277.245 309.303 277.301L309.331 277.264Z" fill="#077857"/>
<path opacity="0.5" d="M363.268 252.628C364.001 253.741 364.489 254.999 364.697 256.316C364.697 256.316 389.683 240.642 397.17 236.954C401.042 235.01 405.505 234.595 409.67 235.79C413.834 236.986 417.397 239.706 419.648 243.408C419.648 243.408 417.389 236.834 411.037 233.893C403.661 230.472 399.558 232.602 385.589 239.941C371.621 247.28 363.268 252.628 363.268 252.628Z" fill="white"/>
<path opacity="0.5" d="M314.697 279.661L353.762 257.339C354.275 257.724 354.682 258.231 354.946 258.814C355.21 259.398 355.323 260.038 355.274 260.677L314.697 279.661Z" fill="white"/>
<path d="M347.151 271.797C347.105 271.824 347.053 271.839 346.999 271.84C346.946 271.841 346.893 271.827 346.846 271.801C346.799 271.775 346.76 271.737 346.733 271.691C346.706 271.645 346.691 271.592 346.69 271.538V270.146C346.69 269.058 348.322 267.233 350.323 266.08L353.283 264.365C355.293 263.213 356.925 263.148 356.925 264.236V265.416C356.923 265.658 356.859 265.894 356.737 266.103C356.616 266.312 356.442 266.485 356.233 266.606L347.151 271.797Z" fill="#37474F"/>
<path opacity="0.15" d="M316.864 324.295C314.651 325.475 314.199 320.727 312.936 311.479C311.673 302.232 311.793 286.742 311.793 286.742C310.271 293.676 310.871 310.456 311.793 321.207C312.715 331.957 314.706 330.961 316.864 329.357L355.468 305.247L316.864 324.295Z" fill="black"/>
<path opacity="0.15" d="M357.008 255.32C357.008 255.32 359.875 258.686 359.875 265.979C359.875 274.747 359.967 303.661 359.967 303.661C359.967 303.661 361.59 272.396 362.576 265.121C363.563 257.847 359.875 253.744 359.875 253.744L357.008 255.32Z" fill="black"/>
<path d="M393.002 218.329C391.379 215.783 389.26 213.589 386.772 211.879C384.283 210.168 381.476 208.975 378.518 208.372C368.763 206.454 361.285 210.953 356.574 213.452C356.261 213.618 355.938 213.784 355.652 213.978C351.853 216.236 340.043 222.939 334.446 227.273C329.08 231.431 322.276 239.701 319.344 245.657C312.668 259.239 308.722 270.413 307.837 275.051C307.597 276.323 306.371 280.823 308.169 280.113C308.473 279.993 309.902 279.301 310.234 279.117C317.61 275.079 327.854 269.279 327.854 269.279C327.854 269.279 347.28 257.745 355.634 252.923C357.044 252.111 357.432 251.863 359.137 250.793C360.843 249.724 383.543 236.843 391.002 232.51C395.685 229.808 396.026 223.622 393.002 218.329ZM359.58 243.684C359.675 244.793 359.44 245.905 358.905 246.881C358.37 247.857 357.559 248.653 356.574 249.17L356.436 249.253L356.251 249.364C353.532 251.042 348.341 254.057 344.265 256.288L344.164 256.343L343.943 256.473L343.638 256.648C329.578 264.319 310.566 275.715 310.446 275.77C313.251 265.797 316.996 256.112 321.63 246.847C327.485 234.907 339.148 227.485 341.997 225.779C349.087 221.483 352.785 219.399 355.283 218.053C358.4 216.375 359.515 217.131 359.607 218.154C359.607 218.634 359.681 219.224 359.681 219.915L359.58 243.684ZM389.665 230.066L366.209 243.611H366.163L365.877 243.777C363.471 245.169 363.286 242.246 363.286 239.729C363.286 233.358 363.286 227.448 363.286 219.915C363.148 215.932 364.208 212.392 367.417 211.507C374.406 209.552 379.55 209.497 387.655 215.941C393.131 220.358 393.436 227.909 389.692 230.066H389.665Z" fill="#263238"/>
<path d="M344.164 256.316L344.339 256.224C344.155 256.371 344.127 256.38 344.164 256.316Z" fill="#263238"/>
<path d="M347.207 254.601L346.183 255.191L346.626 254.933L347.207 254.601Z" fill="#263238"/>
<path d="M344.21 256.316L344.551 256.113L344.671 256.049L344.192 256.325L344.21 256.316Z" fill="#263238"/>
<path d="M345.418 255.634L345.732 255.449L345.98 255.311L345.012 255.864L344.607 256.104L344.92 255.92L345.012 255.864L345.418 255.634Z" fill="#263238"/>
<path opacity="0.5" d="M359.58 243.685C359.675 244.794 359.44 245.906 358.905 246.882C358.37 247.857 357.56 248.654 356.574 249.171L356.436 249.254L356.252 249.364C353.532 251.042 348.341 254.057 344.266 256.289L344.164 256.344L343.943 256.473L343.639 256.648C329.578 264.319 310.566 275.715 310.447 275.77C313.251 265.797 316.996 256.113 321.63 246.847C327.485 234.907 339.148 227.485 341.997 225.78C349.088 221.483 352.785 219.399 355.283 218.053C358.4 216.375 359.515 217.131 359.608 218.155C359.608 218.634 359.681 219.224 359.681 219.916L359.58 243.685Z" fill="black"/>
<path opacity="0.5" d="M389.692 230.067L366.237 243.611H366.191L365.905 243.777C363.498 245.169 363.314 242.247 363.314 239.729C363.314 233.358 363.314 227.448 363.314 219.916C363.176 215.933 364.236 212.392 367.445 211.507C374.433 209.552 379.578 209.497 387.683 215.942C393.132 220.358 393.436 227.909 389.692 230.067Z" fill="black"/>
<path d="M397.926 215.13C387.904 201.955 373.53 186.336 333.515 166.264C293.5 146.192 286.299 144.238 264.807 154.49C253.236 159.617 229.015 170.93 221.649 178.831C222.582 178.659 223.537 178.631 224.479 178.748C238.392 182.528 309.478 226.084 321.206 233.902C321.41 233.581 321.635 233.273 321.879 232.98C329.818 222.469 363.526 205.127 363.526 205.127C373.723 200.037 387.95 204.417 398.018 215.14L397.926 215.13Z" fill="#077857"/>
<path opacity="0.5" d="M397.926 215.13C387.904 201.955 373.53 186.336 333.515 166.264C293.5 146.192 286.299 144.238 264.807 154.49C253.236 159.617 229.015 170.93 221.649 178.831C222.582 178.659 223.537 178.631 224.479 178.748C238.392 182.528 309.478 226.084 321.206 233.902C321.41 233.581 321.635 233.273 321.879 232.98C329.818 222.469 363.526 205.127 363.526 205.127C373.723 200.037 387.95 204.417 398.018 215.14L397.926 215.13Z" fill="white"/>
<path d="M244.109 246.764C217.076 230.989 188.494 221.732 188.438 221.723C189.213 224.645 189.702 230.657 194.533 237.028C198.221 241.961 202.932 247.327 208.667 251.171C222.202 260.622 235.875 267.094 240.522 269.87C263.803 282.492 293.076 286.595 296.995 281.948C296.995 281.948 265.628 259.313 244.109 246.764Z" fill="#455A64"/>
<path d="M296.995 281.948C295.888 281.256 259.082 258.566 242.071 248.341C225.881 238.604 192.495 223.557 188.438 221.723C207.806 228.135 226.462 236.526 244.109 246.764C262.318 257.595 279.969 269.338 296.995 281.948Z" fill="#37474F"/>
<path d="M309.23 337.821L272.303 316.495L292.818 304.647L309.23 314.162V337.821Z" fill="#077857"/>
<path opacity="0.35" d="M309.23 337.821L272.303 316.495L292.818 304.647L309.23 314.162V337.821Z" fill="black"/>
<path d="M294.026 332.519L299.336 321.99L286.742 314.679C282.722 312.374 277.384 312.632 271.511 316.025C259.045 323.226 248.94 341.785 248.94 357.515C248.94 365.739 251.706 371.538 256.141 374.166L256.316 374.267L269.224 381.736L274.82 370.672C285.442 362.512 293.62 346.524 294.026 332.519Z" fill="#37474F"/>
<path d="M294.026 332.519L299.336 321.99L286.742 314.679C282.722 312.374 277.384 312.632 271.511 316.025C259.045 323.226 248.94 341.785 248.94 357.515C248.94 365.739 251.706 371.538 256.141 374.166L256.316 374.267L269.224 381.736L274.82 370.672C285.442 362.512 293.62 346.524 294.026 332.519Z" fill="#263238"/>
<path d="M307.183 339.001C307.183 352.536 299.668 368.21 289.609 376.877C289.594 376.873 289.578 376.873 289.563 376.877C288.025 378.209 286.368 379.397 284.612 380.426C272.147 387.627 262.032 380.731 262.051 365.029C262.051 353.172 267.813 339.665 276.01 330.675L276.074 330.601C278.549 327.839 281.428 325.467 284.612 323.567C297.078 316.412 307.183 323.299 307.183 339.001Z" fill="#37474F"/>
<path d="M284.612 333.082C292.551 328.472 298.977 333.275 298.977 343.74C298.977 354.205 292.523 366.412 284.612 370.985C276.701 375.558 270.247 370.792 270.247 360.327C270.247 349.862 276.683 337.664 284.612 333.082Z" fill="#455A64"/>
<path d="M291.103 349.143C290.559 354.343 287.203 359.866 283.626 361.461C283.016 361.803 282.317 361.955 281.62 361.895C280.923 361.836 280.26 361.569 279.716 361.129C278.462 360.05 277.817 357.856 278.121 354.933C278.674 349.724 282.012 344.201 285.599 342.606C286.411 342.199 287.337 342.079 288.226 342.265C290.301 342.772 291.499 345.354 291.103 349.143Z" fill="#FAFAFA"/>
<path d="M289.821 348.516C289.277 353.716 285.931 359.239 282.344 360.834C281.531 361.238 280.606 361.358 279.716 361.175C278.462 360.096 277.817 357.902 278.121 354.979C278.674 349.77 282.012 344.247 285.599 342.652C286.411 342.245 287.337 342.125 288.226 342.311C289.508 343.353 290.126 345.556 289.821 348.516Z" fill="#E0E0E0"/>
<path d="M307.183 339.001C307.183 352.536 299.668 368.21 289.609 376.877C295.566 370.423 301.743 359.534 303.919 349.171C305.827 340.126 305.117 327.135 297.345 323.853C289.573 320.57 279.32 327.485 276.074 330.639C278.549 327.876 281.428 325.504 284.612 323.604C297.078 316.412 307.183 323.299 307.183 339.001Z" fill="#455A64"/>
<path d="M307.653 282.436C307.653 282.436 300.756 282.934 298.119 283.801C295.759 284.575 270.782 283.801 246.073 272.958C231.321 266.504 220.045 261.147 207.468 250.332C191.066 236.244 188.89 226.803 187.24 222.986C180.454 227.808 171.289 234.465 166.034 238.531C153.937 248.59 139.213 263.425 133.386 279.901C132.989 281.017 132.63 282.141 132.325 283.266C123.705 314.679 131.09 326.25 138.484 335.82C141.628 339.905 150.36 347.852 161.249 354.343C170.189 359.594 179.424 364.326 188.909 368.514C194.483 370.981 200.273 372.929 206.205 374.332C236.133 380.934 256.215 368.358 256.215 368.358C256.061 366.694 256.079 365.02 256.27 363.36C256.525 361.134 256.922 358.925 257.459 356.75C258.85 351.124 260.974 345.706 263.775 340.633C268.044 332.861 273.751 326.047 280.104 321.64C280.933 321.05 281.782 320.515 282.63 320.026C296.368 312.088 307.69 318.477 309.147 334.234C309.257 335.378 309.239 336.549 309.239 337.784L309.949 323.299L309.303 284.677C309.303 284.677 307.155 284.299 307.653 282.436Z" fill="#077857"/>
<path opacity="0.2" d="M187.314 234.363C205.588 262.088 241.868 281.81 283.026 289.683C285.525 290.163 286.521 292.385 284.391 293.777C280.602 296.248 274.203 297.576 266.099 296.018C229.053 285.175 203.403 271.124 185.949 251.015C184.28 249.088 182.012 245.621 181.339 243.159C180.417 239.702 180.546 236.355 181.782 233.81C182.925 231.496 185.912 232.234 187.314 234.363Z" fill="black"/>
<path d="M169.786 315.812C173.981 318.016 181.634 310.612 185.46 307.644C189.287 304.675 180.509 296.819 175.641 297.981C168.818 299.65 166.08 313.858 169.786 315.812Z" fill="#455A64"/>
<path d="M188.899 368.551C192.441 370.126 196.074 371.487 199.779 372.626C195.307 370.847 199.078 361.996 195.722 358.704C192.209 355.265 180.97 350.028 167.361 342.173C153.753 334.317 144.579 325.798 142.467 328.435C138.779 333.165 135.82 332.289 135.801 332.28C136.668 333.524 137.553 334.704 138.438 335.857C141.582 339.941 150.314 347.889 161.202 354.38C170.155 359.632 179.402 364.364 188.899 368.551Z" fill="#455A64"/>
<g opacity="0.2">
<path d="M184.059 225.281C176.462 233.017 169.556 241.508 164.374 251.014C159.132 260.467 155.585 270.765 153.891 281.44C152.966 286.743 152.534 292.119 152.6 297.502C152.636 302.843 153.681 308.13 155.68 313.083C155.91 313.701 156.184 314.302 156.5 314.881C156.814 315.471 157.1 316.061 157.422 316.633C158.098 317.765 158.846 318.852 159.663 319.888C160.469 320.94 161.341 321.941 162.272 322.884C163.236 323.784 164.249 324.63 165.305 325.42C167.467 326.978 169.756 328.354 172.147 329.532C174.544 330.751 177.006 331.838 179.523 332.786C180.758 333.294 182.04 333.653 183.312 334.059C183.948 334.243 184.594 334.391 185.239 334.557L186.207 334.796L187.184 334.962C189.79 335.466 192.444 335.667 195.095 335.562C200.435 335.273 205.694 334.125 210.668 332.16C213.176 331.238 215.656 330.15 218.164 329.071L225.669 325.899C230.684 323.797 235.755 321.805 240.9 320.017C246.045 318.228 251.217 316.55 256.408 314.955C261.599 313.36 266.799 311.866 271.796 309.783C276.828 307.805 281.584 305.19 285.949 302.001C290.329 298.783 293.954 294.649 296.571 289.886C294.111 294.781 290.586 299.063 286.253 302.416C281.921 305.748 277.181 308.512 272.147 310.64C267.113 312.716 261.977 314.535 256.759 316.089C251.595 317.767 246.46 319.491 241.38 321.372C236.299 323.253 231.238 325.291 226.286 327.393L218.809 330.601C216.329 331.68 213.821 332.777 211.258 333.755C206.121 335.813 200.685 337.028 195.16 337.35C192.381 337.471 189.597 337.276 186.862 336.77L185.838 336.594L184.824 336.345C184.151 336.179 183.478 336.032 182.805 335.848C181.487 335.423 180.15 335.055 178.877 334.538C176.307 333.554 173.795 332.424 171.354 331.155C168.878 329.924 166.512 328.484 164.282 326.849C163.165 326.013 162.097 325.114 161.083 324.157C160.098 323.166 159.174 322.116 158.317 321.013C157.462 319.91 156.677 318.755 155.966 317.555C155.624 316.947 155.32 316.32 155.044 315.711C154.714 315.097 154.424 314.463 154.177 313.812C152.13 308.655 151.07 303.16 151.051 297.612C150.983 292.11 151.468 286.615 152.499 281.21C154.365 270.419 158.11 260.04 163.563 250.544C169.148 241.183 176.05 232.675 184.059 225.281Z" fill="black"/>
</g>
<path opacity="0.5" d="M223.779 264.531C223.779 264.531 196.119 249.069 185.894 224.673C185.894 224.673 174.055 235.82 166.707 250.59C161.708 260.671 158.08 271.375 155.919 282.418C155.919 282.418 162.042 258.685 172.469 244.09C182.252 230.389 184.631 227.024 190.245 235.995C194.542 242.882 208.446 259.534 223.779 264.531Z" fill="white"/>
<path opacity="0.5" d="M266.707 309.884C259.847 311.572 246.893 314.789 236.133 319.104C225.374 323.419 211.793 331.837 197.751 333.386C183.708 334.935 169.648 326.526 169.648 326.526C169.648 326.526 184.05 333.165 197.363 331.339C210.677 329.514 223.511 321.4 236.76 316.698C250.009 311.996 266.707 309.884 266.707 309.884Z" fill="white"/>
<path d="M247.917 355.136C246.607 354.952 243.307 355.828 237.775 357.423C232.243 359.018 230.887 359.165 228.831 360.585C227.089 361.784 222.442 365.573 220.201 366.726C216.642 368.57 220.201 369.888 230.15 369.897C240.098 369.907 243.463 366.928 245.75 363.877C248.036 360.825 250.904 355.551 247.917 355.136Z" fill="#455A64"/>
<path d="M131.21 301.079C130.914 302.882 130.729 304.702 130.657 306.528C130.597 310.129 131.291 313.703 132.694 317.021C133.128 318.035 133.884 319.187 134.99 319.086C135.423 319.04 134.511 303.937 134.299 302.49C134.087 301.042 133.921 299.779 133.727 298.424C133.653 297.926 133.469 297.308 132.971 297.262C132.141 297.151 131.579 298.995 131.21 301.079Z" fill="#455A64"/>
<path d="M146.985 287.766C147.981 283.543 147.907 276.526 148.092 272.211C148.152 268.139 148.624 264.083 149.502 260.106C150.028 257.413 150.424 255.201 149.595 254.242C142.744 261.913 136.687 270.663 133.377 279.901C132.98 281.017 132.621 282.141 132.316 283.266C132.012 284.391 131.745 285.405 131.477 286.447C132.113 289.674 134.981 294.109 138.761 294.505C143.131 294.948 145.98 291.998 146.985 287.766Z" fill="#455A64"/>
<path d="M145.316 256.316C146.045 255.719 146.979 255.434 147.917 255.523C148.839 255.652 148.442 257.053 148.239 257.643C147.88 258.695 147.529 259.755 147.17 260.815C146.902 261.59 146.746 262.576 145.722 262.659C144.459 262.714 143.795 261.202 143.574 260.179C143.483 259.437 143.598 258.685 143.905 258.004C144.212 257.322 144.7 256.739 145.316 256.316Z" fill="#077857"/>
<path opacity="0.65" d="M145.316 256.316C146.045 255.719 146.979 255.434 147.917 255.523C148.839 255.652 148.442 257.053 148.239 257.643C147.88 258.695 147.529 259.755 147.17 260.815C146.902 261.59 146.746 262.576 145.722 262.659C144.459 262.714 143.795 261.202 143.574 260.179C143.483 259.437 143.598 258.685 143.905 258.004C144.212 257.322 144.7 256.739 145.316 256.316Z" fill="white"/>
<path d="M136.604 291.675C137.473 292.274 138.533 292.532 139.581 292.399C140.628 292.266 141.59 291.753 142.283 290.956C143.409 289.777 144.235 288.344 144.69 286.779C146.93 280.113 145.86 272.848 144.69 265.914C144.629 265.105 144.33 264.332 143.832 263.692C142.136 261.913 139.167 265.112 138.088 266.246C136.341 268.087 134.939 270.226 133.948 272.562C132.593 275.761 131.321 280.426 132.03 283.93C132.611 286.668 134.142 290.126 136.604 291.675Z" fill="#077857"/>
<path opacity="0.65" d="M136.604 291.675C137.473 292.274 138.533 292.532 139.581 292.399C140.628 292.266 141.59 291.753 142.283 290.956C143.409 289.777 144.235 288.344 144.69 286.779C146.93 280.113 145.86 272.848 144.69 265.914C144.629 265.105 144.33 264.332 143.832 263.692C142.136 261.913 139.167 265.112 138.088 266.246C136.341 268.087 134.939 270.226 133.948 272.562C132.593 275.761 131.321 280.426 132.03 283.93C132.611 286.668 134.142 290.126 136.604 291.675Z" fill="white"/>
<path opacity="0.45" d="M138.715 268.809C137.428 270.367 136.678 272.3 136.579 274.318C136.479 276.337 137.034 278.334 138.162 280.011C138.366 280.365 138.642 280.671 138.973 280.911C139.303 281.151 139.68 281.319 140.08 281.403C140.503 281.422 140.923 281.323 141.293 281.116C141.662 280.909 141.967 280.603 142.172 280.233C142.577 279.487 142.816 278.663 142.873 277.817C143.141 275.229 143.196 272.623 143.039 270.026C142.91 266.827 140.587 266.651 138.715 268.809Z" fill="white"/>
<path d="M225.89 330.943C230.5 327.043 237.618 323.723 249.503 322.552C260.078 321.52 269.501 316.661 269.787 321.944C270.072 327.227 261.682 343.095 246.294 348.424C233.026 353.034 224.581 349.429 221.75 344.966C218.92 340.504 221.345 334.843 225.89 330.943Z" fill="#455A64"/>
<path d="M262.438 328.619C264.43 329.163 265.785 328.25 266.615 326.48C267.205 325.199 267.712 323.308 266.098 322.626C263.858 321.704 260.825 322.442 258.722 323.456C254.546 325.466 260.483 328.094 262.438 328.619Z" fill="#077857"/>
<path opacity="0.65" d="M262.438 328.619C264.43 329.163 265.785 328.25 266.615 326.48C267.205 325.199 267.712 323.308 266.098 322.626C263.858 321.704 260.825 322.442 258.722 323.456C254.546 325.466 260.483 328.094 262.438 328.619Z" fill="white"/>
<path d="M257.238 335.82C258.575 333.414 259.303 330.657 257.432 328.721C255.56 326.785 251.9 326.167 249.309 325.955C241.339 325.239 233.408 327.701 227.245 332.805C225.803 333.928 224.594 335.322 223.687 336.908C223.237 337.701 222.948 338.576 222.837 339.481C222.726 340.386 222.796 341.304 223.041 342.182C225.669 350.268 238.171 349.023 244.247 346.727C248.215 345.224 251.75 342.763 254.537 339.564C255.565 338.413 256.471 337.159 257.238 335.82Z" fill="#077857"/>
<path opacity="0.65" d="M257.238 335.82C258.575 333.414 259.303 330.657 257.432 328.721C255.56 326.785 251.9 326.167 249.309 325.955C241.339 325.239 233.408 327.701 227.245 332.805C225.803 333.928 224.594 335.322 223.687 336.908C223.237 337.701 222.948 338.576 222.837 339.481C222.726 340.386 222.796 341.304 223.041 342.182C225.669 350.268 238.171 349.023 244.247 346.727C248.215 345.224 251.75 342.763 254.537 339.564C255.565 338.413 256.471 337.159 257.238 335.82Z" fill="white"/>
<path opacity="0.45" d="M243.03 327.79C241.296 328.132 239.6 328.648 237.968 329.329C236.124 330.085 234.28 331.607 234.465 333.571C234.852 337.793 242.836 339.776 246.257 339.619C248.023 339.574 249.746 339.069 251.256 338.154C252.767 337.239 254.012 335.945 254.869 334.4C258.676 326.711 246.967 327.135 243.03 327.79Z" fill="white"/>
<path d="M224.433 178.776C208.317 192.606 199.659 202.748 187.599 219.639C185.184 223.816 192.514 239.702 207.007 251.439C246.229 283.229 295.169 289.379 300.129 284.253C307.109 259.451 314.338 244.773 321.179 233.93C309.432 226.111 238.346 182.556 224.433 178.776ZM297.124 281.477C297.045 281.762 296.869 282.01 296.627 282.179C296.384 282.347 296.09 282.425 295.796 282.399C283.487 282.399 246.008 277.375 210.474 250.305C191.776 236.078 190.854 221.852 190.541 220.736C200.019 206.159 208.354 197.188 222.543 184.308C223.253 183.668 224.133 183.246 225.077 183.094C226.02 182.942 226.988 183.066 227.863 183.45C247.327 191.951 289.637 216.237 312.189 232.51C313.179 233.222 313.873 234.272 314.14 235.462C314.406 236.651 314.228 237.898 313.637 238.964C304.859 254.813 301.651 265.684 297.124 281.477Z" fill="#37474F"/>
<path opacity="0.5" d="M297.124 281.477C297.045 281.762 296.869 282.01 296.627 282.178C296.384 282.347 296.09 282.425 295.796 282.399C283.487 282.399 246.008 277.374 210.474 250.304C191.776 236.078 190.854 221.851 190.541 220.736C200.019 206.159 208.354 197.188 222.543 184.308C223.253 183.667 224.133 183.246 225.077 183.093C226.02 182.941 226.988 183.065 227.863 183.45C247.327 191.951 289.637 216.236 312.189 232.51C313.179 233.222 313.873 234.272 314.14 235.462C314.406 236.651 314.227 237.897 313.637 238.964C304.859 254.813 301.651 265.683 297.124 281.477Z" fill="black"/>
<path d="M321.953 285.35C320.238 293.491 311.23 295.206 304.481 295.003C300.904 294.902 297.963 294.247 297.105 293.731C294.496 292.228 295.704 289.121 297.105 287.277C299.466 284.216 310.078 278.057 316.735 277.863C320.589 277.743 323.143 279.643 321.953 285.35Z" fill="#077857"/>
<path opacity="0.3" d="M321.953 285.35C320.238 293.491 311.23 295.206 304.481 295.003C300.904 294.902 297.963 294.247 297.105 293.731C294.496 292.228 295.704 289.121 297.105 287.277C299.466 284.216 310.078 278.057 316.735 277.863C320.589 277.743 323.143 279.643 321.953 285.35Z" fill="black"/>
<path d="M321.953 285.35C320.238 293.491 311.23 295.206 304.481 295.003C300.904 294.902 297.963 294.247 297.105 293.731C294.496 292.228 295.704 289.121 297.105 287.277C295.787 289.757 302.739 291.297 308.935 289.075C315.13 286.853 319.74 282.058 316.735 277.863C320.589 277.743 323.143 279.643 321.953 285.35Z" fill="#077857"/>
<path opacity="0.35" d="M321.953 285.35C320.238 293.491 311.23 295.206 304.481 295.003C300.904 294.902 297.963 294.247 297.105 293.731C294.496 292.228 295.704 289.121 297.105 287.277C295.787 289.757 302.739 291.297 308.935 289.075C315.13 286.853 319.74 282.058 316.735 277.863C320.589 277.743 323.143 279.643 321.953 285.35Z" fill="black"/>
<path d="M321.953 285.35C320.238 293.491 311.23 295.206 304.481 295.003C311.203 294.809 316.55 290.937 318.579 286.705C320.607 282.473 319.058 278.407 316.735 277.872C320.589 277.743 323.142 279.643 321.953 285.35Z" fill="#37474F"/>
<path d="M76.3508 170.957C76.0623 170.77 75.7389 170.642 75.3999 170.581C75.0609 170.521 74.7132 170.53 74.3777 170.607C74.3777 170.607 73.9259 170.856 73.6585 171.04C72.8557 171.637 72.2636 172.474 71.9679 173.429C71.6722 174.385 71.6883 175.41 72.0138 176.355C72.3393 177.301 72.9574 178.119 73.7786 178.69C74.5997 179.261 75.5813 179.556 76.5813 179.532C77.2693 179.518 77.9448 179.345 78.5543 179.025L79.1905 178.656C79.425 178.392 79.6019 178.081 79.7098 177.745C79.8178 177.408 79.8544 177.053 79.8175 176.702C79.7248 175.541 79.3634 174.418 78.7617 173.421C78.16 172.424 77.3346 171.58 76.3508 170.957Z" fill="#077857"/>
<path d="M176.434 309.304C175.245 310.945 173.41 311.747 172.598 311.148C172.181 310.874 171.823 310.519 171.547 310.103C171.271 309.687 171.082 309.22 170.992 308.729C170.902 308.239 170.912 307.735 171.022 307.248C171.133 306.761 171.341 306.302 171.633 305.898C171.926 305.494 172.298 305.154 172.726 304.897C173.155 304.641 173.63 304.475 174.125 304.408C174.619 304.341 175.122 304.375 175.603 304.508C176.084 304.641 176.533 304.871 176.923 305.182C177.614 305.837 177.633 307.653 176.434 309.304Z" fill="#263238"/>
<path d="M123.649 387.637C118.253 387.564 112.972 386.062 108.344 383.285C102.637 379.993 99.1243 375.411 97.898 369.667C95.9987 360.77 100.166 350.923 104.306 345.188L105.486 343.565C112.798 333.479 116.827 327.891 115.398 322.166C113.692 315.269 90.983 316.2 67.1308 318.044L60.6768 318.542C45.2979 319.695 22.5337 316.993 20.367 309.958C19.5372 307.275 21.5748 304.491 26.4338 301.66C45.178 290.864 61.3776 281.524 61.3776 261.406C61.3776 237.139 61.2116 224.194 61.0825 214.753C61.018 209.451 60.9627 201.845 60.9627 197.419C60.9627 184.917 73.0593 175.835 73.5756 175.457C73.7725 175.31 74.0195 175.248 74.2625 175.283C74.5054 175.319 74.7243 175.449 74.871 175.646C75.0178 175.843 75.0803 176.09 75.0448 176.333C75.0094 176.576 74.8789 176.795 74.682 176.941C74.5714 177.024 62.8251 185.857 62.8251 197.419C62.8251 201.808 62.8804 209.405 62.945 214.725C63.074 224.175 63.24 237.12 63.24 261.406C63.24 282.612 45.8326 292.643 27.3926 303.283C24.6266 304.878 21.4918 307.229 22.1649 309.414C23.6862 314.347 43.0666 318.017 60.5754 316.698L67.0294 316.209C91.9234 314.282 115.149 313.314 117.232 321.741C118.864 328.334 114.66 334.133 107.026 344.662L105.846 346.294C101.927 351.716 97.9717 360.991 99.742 369.298C100.858 374.517 104.075 378.693 109.312 381.708C121.049 388.485 132.27 385.996 138.18 380.519C143.159 375.909 145.381 368.533 145.381 356.547C145.381 354.703 145.381 352.739 145.381 350.757C145.316 342.809 145.252 334.594 146.109 327.366C147.031 319.326 150.378 312.807 155.412 308.999C159.967 305.56 165.785 304.389 172.7 305.477C172.821 305.497 172.937 305.54 173.041 305.604C173.146 305.668 173.237 305.752 173.309 305.852C173.381 305.951 173.432 306.064 173.461 306.183C173.489 306.302 173.494 306.426 173.474 306.547C173.455 306.668 173.412 306.784 173.348 306.888C173.283 306.993 173.199 307.084 173.1 307.156C173.001 307.228 172.888 307.279 172.769 307.308C172.65 307.336 172.526 307.341 172.405 307.321C166.006 306.298 160.668 307.367 156.528 310.502C150.268 315.223 148.46 323.244 147.944 327.605C147.096 334.723 147.16 342.883 147.225 350.775C147.225 352.758 147.225 354.703 147.225 356.575C147.225 369.095 144.819 376.905 139.434 381.893C135.076 385.714 129.444 387.763 123.649 387.637Z" fill="#37474F"/>
<path d="M267.435 133.284L262.235 123.548L266.421 111.47V104.094L253.615 111.47V118.846L259.147 128.379C259.232 128.529 259.365 128.646 259.525 128.711L267.435 133.284Z" fill="#077857"/>
<path opacity="0.2" d="M267.435 133.284L262.235 123.548L266.421 111.47V104.094L253.615 111.47V118.846L259.147 128.379C259.232 128.529 259.365 128.646 259.525 128.711L267.435 133.284Z" fill="black"/>
<path d="M298.018 45.2516C297.947 43.9186 297.563 42.6212 296.896 41.4646C296.23 40.308 295.3 39.3248 294.182 38.5947L291.057 36.7507C289.866 36.1508 288.551 35.8384 287.217 35.8384C285.883 35.8384 284.568 36.1508 283.377 36.7507L235.433 64.5398C234.314 65.2694 233.383 66.2523 232.715 67.4088C232.047 68.5654 231.661 69.8631 231.588 71.1967V123.944C231.661 125.278 232.047 126.576 232.715 127.732C233.383 128.889 234.314 129.872 235.433 130.601L238.558 132.445C239.748 133.05 241.064 133.365 242.398 133.365C243.733 133.365 245.049 133.05 246.238 132.445L261.654 123.539L267.186 133.054C267.265 133.189 267.381 133.3 267.52 133.372C267.659 133.444 267.817 133.474 267.973 133.46C268.129 133.445 268.278 133.386 268.402 133.29C268.525 133.193 268.619 133.063 268.671 132.915L274.479 116.153L294.219 104.721C295.338 103.991 296.269 103.008 296.937 101.852C297.605 100.695 297.991 99.3974 298.064 98.0637L298.018 45.2516Z" fill="#077857"/>
<path opacity="0.2" d="M231.588 123.926C231.661 125.259 232.047 126.557 232.715 127.714C233.383 128.87 234.314 129.853 235.433 130.583L238.558 132.427C239.641 132.972 240.827 133.282 242.037 133.336C243.248 133.39 244.457 133.187 245.584 132.74C243.74 133.422 242.394 132.399 242.394 130.214V77.4477C242.441 76.1124 242.828 74.8112 243.519 73.6675L232.713 67.3887C232.023 68.5363 231.636 69.8401 231.588 71.1781V123.926Z" fill="black"/>
<path opacity="0.5" d="M297.898 44.1544C297.446 42.5224 295.962 42.0061 294.21 43.0295L246.266 70.7633C245.126 71.4644 244.191 72.4534 243.555 73.6307L232.731 67.398C233.368 66.2264 234.299 65.2413 235.433 64.5398L283.377 36.806C284.569 36.206 285.886 35.8936 287.221 35.8936C288.557 35.8936 289.873 36.206 291.066 36.806L294.201 38.65C295.155 39.2722 295.974 40.0803 296.61 41.026C297.245 41.9717 297.683 43.0356 297.898 44.1544Z" fill="white"/>
<path d="M291.186 60.2065C288.033 67.5825 291.924 78.9416 289.148 88.0048C286.373 97.0681 281.348 101.051 275.918 100.35C275.282 90.2084 278.463 79.8267 283.718 71.2982C278.711 76.3784 271.99 84.8239 273.428 100.046C269.298 98.2575 265.518 90.2084 269.925 80.3154C275.973 66.7159 291.186 60.2065 291.186 60.2065Z" fill="white"/>
<path d="M258.022 71.667L248.433 97.0957L256.666 98.5064L254.103 118.975L264.088 92.6517L255.873 90.863L258.022 71.667Z" fill="white"/>
</svg>
