<svg width="400" height="100" viewBox="0 0 400 100" fill="none" xmlns="http://www.w3.org/2000/svg">
<rect width="400" height="100" rx="25" fill="#077857" fill-opacity="0.25"/>
<g clip-path="url(#clip0_10_2522)">
<path d="M86.8543 37.0592L74.1998 49.5741L37.0529 11.9125C38.9158 10.7925 41.3434 10.6195 43.493 11.8649L86.8543 37.0592Z" fill="#077857"/>
<path d="M87.1669 62.7636L43.493 88.1351C40.883 89.653 37.8562 89.0649 35.9368 87.24L74.2041 49.5784L87.1713 62.7636H87.1669Z" fill="#077857"/>
<path d="M99.7866 55.4293L87.2668 62.703L87.1669 62.7593L74.2041 49.574L86.8586 37.0591L86.9584 37.1153L99.7909 44.5706C103.964 46.9967 103.964 53.0033 99.7909 55.4293H99.7866Z" fill="#077857"/>
<path d="M35.9368 87.2401C35.9107 87.2141 35.8846 87.1882 35.8586 87.1623C34.7295 86.0509 34.0043 84.5027 34.0043 82.7038V17.2965C33.9999 14.9657 35.2202 13.0543 36.9573 11.9688C36.9877 11.9472 37.0224 11.9299 37.0528 11.9126L74.1998 49.5742L35.9368 87.2401Z" fill="#077857"/>
<path d="M174.406 58.9062H156.241V63.9182H168.978C167.454 69.501 162.329 73.6049 156.241 73.6049C148.95 73.6049 143.039 67.7194 143.039 60.4586C143.039 53.1979 148.95 47.3123 156.241 47.3123C159.689 47.3123 162.824 48.627 165.174 50.7805L168.735 47.2345C165.473 44.1728 161.074 42.3003 156.241 42.3003C146.17 42.3003 138.011 50.4302 138.011 60.4543C138.011 70.4784 146.175 78.6083 156.241 78.6083C166.307 78.6083 174.471 70.4784 174.471 60.4543C174.471 59.9311 174.45 59.4121 174.406 58.9018V58.9062Z" fill="#191919"/>
<path d="M188.754 55.1526C182.314 55.1526 177.094 60.3852 177.094 66.8372C177.094 73.2893 182.314 78.5219 188.754 78.5219C195.194 78.5219 200.414 73.2893 200.414 66.8372C200.414 60.3852 195.194 55.1526 188.754 55.1526ZM188.754 73.8861C185.228 73.8861 182.375 70.8157 182.375 67.0275C182.375 63.2393 185.232 60.1689 188.754 60.1689C192.276 60.1689 195.134 63.2393 195.134 67.0275C195.134 70.8157 192.276 73.8861 188.754 73.8861Z" fill="#191919"/>
<path d="M214.697 55.1526C208.257 55.1526 203.037 60.3852 203.037 66.8372C203.037 73.2893 208.257 78.5219 214.697 78.5219C221.137 78.5219 226.357 73.2893 226.357 66.8372C226.357 60.3852 221.137 55.1526 214.697 55.1526ZM214.697 73.8861C211.171 73.8861 208.318 70.8157 208.318 67.0275C208.318 63.2393 211.175 60.1689 214.697 60.1689C218.219 60.1689 221.077 63.2393 221.077 67.0275C221.077 70.8157 218.219 73.8861 214.697 73.8861Z" fill="#191919"/>
<path d="M258.224 42.3047H253.191V78.9889H258.224V42.3047Z" fill="#191919"/>
<path d="M278.912 69.8383C278.156 71.3821 276.854 72.58 275.247 73.207C273.54 73.873 271.673 73.8384 269.992 73.1033C268.924 72.6362 268.008 71.927 267.313 71.0318L284.41 64.3636L284.145 63.477C284.049 63.1484 283.936 62.8284 283.815 62.517C282.655 59.5721 280.414 57.2542 277.505 55.9871C274.595 54.72 271.364 54.6595 268.407 55.8098C265.45 56.9644 263.122 59.1958 261.85 62.0932C260.577 64.9906 260.517 68.208 261.672 71.1529C262.831 74.0979 265.072 76.4158 267.982 77.6828C269.51 78.3488 271.126 78.6818 272.741 78.6818C274.209 78.6818 275.672 78.4093 277.079 77.8601C279.911 76.7574 282.186 74.6428 283.489 71.9054L283.936 70.967L279.342 68.9648L278.916 69.834L278.912 69.8383ZM277.331 61.7516L265.897 66.2101C265.962 65.4922 266.149 64.7787 266.449 64.0998C267.182 62.4262 268.529 61.1375 270.235 60.4716C271.047 60.1559 271.894 60.0002 272.732 60.0002C274.413 60.0002 276.063 60.6143 277.331 61.7516Z" fill="#191919"/>
<path d="M245.534 55.1525V57.211C243.832 55.9136 241.769 55.1525 239.546 55.1525C233.709 55.1525 228.98 60.3851 228.98 66.8372C228.98 73.2892 233.709 78.5218 239.546 78.5218C241.769 78.5218 243.832 77.7607 245.534 76.4634V78.9845C245.534 80.4289 244.492 84.4377 239.741 84.4377C234.99 84.4377 233.657 80.2127 233.657 80.2127L229.097 82.3273C229.097 82.3273 230.813 88.9956 240.197 88.9956C245.278 88.9956 247.901 86.0593 249.234 83.3652C250.138 81.5403 250.572 79.5208 250.572 77.484V55.1482H245.539L245.534 55.1525ZM239.546 73.886C236.354 73.886 233.761 70.8157 233.761 67.0274C233.761 63.2392 236.35 60.1689 239.546 60.1689C242.742 60.1689 245.33 63.2392 245.33 67.0274C245.33 70.8157 242.742 73.886 239.546 73.886Z" fill="#191919"/>
<path d="M306.879 42.3047H301.845V78.9889H306.879V42.3047Z" fill="#191919"/>
<path d="M313.922 42.3047V47.3167C317.449 47.3167 320.302 50.3871 320.302 54.1753C320.302 57.9635 317.444 61.0339 313.922 61.0339V65.674C320.363 65.674 325.582 60.4414 325.582 53.9893C325.582 47.5373 320.363 42.3047 313.922 42.3047Z" fill="#191919"/>
<path d="M313.922 42.3047H305.472V47.3167H313.922V42.3047Z" fill="#191919"/>
<path d="M313.922 61.0381H305.472V65.6782H313.922V61.0381Z" fill="#191919"/>
<path d="M333.234 42.3047H328.201V78.9889H333.234V42.3047Z" fill="#191919"/>
<path d="M349.68 75.7844L350.296 75.1228V78.6299H354.53V63.49C354.53 62.0802 354.361 60.8521 354.027 59.8315C353.701 58.8369 353.175 58.0196 352.463 57.3925C351.747 56.7612 350.813 56.2855 349.688 55.9784C348.542 55.6628 347.139 55.5071 345.511 55.5071C344.599 55.5071 343.704 55.5806 342.844 55.7276C341.984 55.8747 341.181 56.0649 340.456 56.2985C339.826 56.4974 339.257 56.7179 338.767 56.9471L339.036 60.917C339.344 60.7613 339.696 60.597 340.082 60.424C340.699 60.1515 341.416 59.8964 342.215 59.6715C343.027 59.4423 343.96 59.3256 344.99 59.3256C345.784 59.3256 346.462 59.4121 347.009 59.5764C347.582 59.7537 348.051 60.0304 348.403 60.4067C348.75 60.7786 349.002 61.2499 349.154 61.7991C349.297 62.3267 349.367 62.9408 349.367 63.6327V65.2674H346.939C345.085 65.2674 343.435 65.4101 342.037 65.6868C340.656 65.9636 339.492 66.3874 338.575 66.9539C337.677 67.5117 336.99 68.2209 336.539 69.0685C336.083 69.9205 335.853 70.9453 335.853 72.1129C335.853 73.1941 336.035 74.1498 336.391 74.9541C336.747 75.7541 337.255 76.4331 337.902 76.9693C338.554 77.5142 339.335 77.9293 340.23 78.2061C341.133 78.4872 342.145 78.6299 343.231 78.6299C344.534 78.6299 345.737 78.3791 346.805 77.8818C347.877 77.3801 348.846 76.6752 349.68 75.7801V75.7844ZM347.044 74.4352C346.284 74.8936 345.441 75.1271 344.538 75.1271C343.452 75.1271 342.584 74.8417 341.954 74.2795C341.316 73.7043 340.99 72.9173 340.99 71.9313C340.99 71.3562 341.103 70.8372 341.324 70.3875C341.55 69.9291 341.906 69.5356 342.388 69.2156C342.853 68.9085 343.457 68.675 344.177 68.5237C344.881 68.3766 345.737 68.3031 346.727 68.3031H349.367V72.394L349.276 72.4935C348.524 73.3368 347.773 73.9898 347.039 74.4352H347.044Z" fill="#191919"/>
<path d="M374.515 55.5461L370.837 64.0177L368.579 69.2244L367.046 65.6956L362.638 55.5461H357.153L364.306 72.0093L365.899 75.6808L361.748 85.7783H367.233L370.841 76.6408L373.582 70.3314L380 55.5461H374.515Z" fill="#191919"/>
<path d="M168.548 28.6437C168.548 28.7648 168.539 28.8729 168.522 28.968C168.505 29.0632 168.474 29.141 168.431 29.2059C168.387 29.2707 168.34 29.3226 168.283 29.3529C168.227 29.3875 168.166 29.4005 168.101 29.4005H159.559C159.389 29.4005 159.216 29.3356 159.038 29.2102C158.86 29.0848 158.768 28.8513 158.768 28.5139V12.1243C158.768 11.787 158.86 11.5578 159.038 11.4281C159.216 11.3027 159.389 11.2378 159.559 11.2378H167.975C168.04 11.2378 168.101 11.2551 168.157 11.2854C168.214 11.32 168.261 11.3675 168.296 11.4324C168.335 11.4973 168.361 11.5794 168.379 11.6789C168.396 11.7783 168.405 11.8908 168.405 12.0248C168.405 12.1459 168.396 12.254 168.379 12.3492C168.361 12.4443 168.331 12.5178 168.296 12.5827C168.257 12.6432 168.214 12.6908 168.157 12.7211C168.101 12.7557 168.04 12.7686 167.975 12.7686H160.488V19.1559H166.946C167.019 19.1559 167.085 19.1731 167.141 19.2034C167.198 19.238 167.245 19.2813 167.28 19.3418C167.319 19.4023 167.345 19.4802 167.363 19.5796C167.38 19.6791 167.389 19.7915 167.389 19.9256C167.389 20.0467 167.38 20.1505 167.363 20.2413C167.345 20.3321 167.315 20.4013 167.28 20.4575C167.241 20.5137 167.198 20.557 167.141 20.5829C167.085 20.6089 167.019 20.6262 166.946 20.6262H160.488V27.8696H168.101C168.166 27.8696 168.227 27.8869 168.283 27.9172C168.34 27.9518 168.387 27.995 168.431 28.0556C168.474 28.1161 168.505 28.1939 168.522 28.2934C168.539 28.3929 168.548 28.5053 168.548 28.6394V28.6437Z" fill="#191919"/>
<path d="M183.925 12.0248C183.925 12.1459 183.917 12.254 183.899 12.3492C183.882 12.4443 183.852 12.5178 183.817 12.5827C183.778 12.6432 183.734 12.6908 183.678 12.7211C183.621 12.7557 183.561 12.7686 183.495 12.7686H178.054V29.1194C178.054 29.1756 178.041 29.2275 178.011 29.275C177.98 29.3226 177.937 29.3572 177.872 29.3875C177.807 29.4134 177.715 29.4394 177.603 29.4567C177.49 29.474 177.355 29.4826 177.194 29.4826C177.034 29.4826 176.899 29.474 176.786 29.4567C176.673 29.4394 176.582 29.4134 176.517 29.3875C176.452 29.3615 176.404 29.3226 176.378 29.275C176.352 29.2275 176.334 29.1756 176.334 29.1194V12.7686H170.893C170.819 12.7686 170.754 12.7513 170.702 12.7211C170.65 12.6865 170.607 12.6432 170.567 12.5827C170.528 12.5222 170.502 12.4443 170.485 12.3492C170.468 12.254 170.459 12.1459 170.459 12.0248C170.459 11.8951 170.468 11.7783 170.485 11.6789C170.502 11.5794 170.533 11.4973 170.567 11.4324C170.607 11.3675 170.65 11.3156 170.702 11.2854C170.754 11.2508 170.815 11.2378 170.893 11.2378H183.495C183.561 11.2378 183.621 11.2551 183.678 11.2854C183.734 11.32 183.782 11.3675 183.817 11.4324C183.856 11.4973 183.882 11.5794 183.899 11.6789C183.917 11.7783 183.925 11.8908 183.925 12.0248Z" fill="#191919"/>
<path d="M195.077 29.1195C195.077 29.1757 195.064 29.2276 195.034 29.2752C195.003 29.3228 194.96 29.3573 194.895 29.3876C194.83 29.4136 194.743 29.4395 194.634 29.4568C194.526 29.4741 194.387 29.4828 194.217 29.4828C194.057 29.4828 193.922 29.4741 193.809 29.4568C193.696 29.4395 193.605 29.4136 193.54 29.3876C193.475 29.3617 193.427 29.3228 193.401 29.2752C193.375 29.2276 193.358 29.1757 193.358 29.1195V11.519C193.358 11.4628 193.375 11.4109 193.405 11.3633C193.44 11.3158 193.488 11.2812 193.562 11.2509C193.631 11.225 193.722 11.199 193.831 11.1817C193.939 11.1644 194.07 11.1558 194.217 11.1558C194.387 11.1558 194.526 11.1644 194.634 11.1817C194.743 11.199 194.83 11.225 194.895 11.2509C194.96 11.2768 195.008 11.3158 195.034 11.3633C195.06 11.4109 195.077 11.4628 195.077 11.519V29.1195Z" fill="#191919"/>
<path d="M211.453 12.0248C211.453 12.1459 211.445 12.254 211.427 12.3492C211.41 12.4443 211.38 12.5178 211.345 12.5827C211.306 12.6432 211.262 12.6908 211.206 12.7211C211.149 12.7557 211.089 12.7686 211.023 12.7686H205.582V29.1194C205.582 29.1756 205.569 29.2275 205.539 29.275C205.508 29.3226 205.465 29.3572 205.4 29.3875C205.335 29.4134 205.243 29.4394 205.13 29.4567C205.018 29.474 204.883 29.4826 204.722 29.4826C204.562 29.4826 204.427 29.474 204.314 29.4567C204.201 29.4394 204.11 29.4134 204.045 29.3875C203.98 29.3615 203.932 29.3226 203.906 29.275C203.88 29.2275 203.862 29.1756 203.862 29.1194V12.7686H198.421C198.347 12.7686 198.282 12.7513 198.23 12.7211C198.178 12.6865 198.134 12.6432 198.095 12.5827C198.056 12.5222 198.03 12.4443 198.013 12.3492C197.996 12.254 197.987 12.1459 197.987 12.0248C197.987 11.8951 197.996 11.7783 198.013 11.6789C198.03 11.5794 198.061 11.4973 198.095 11.4324C198.134 11.3675 198.178 11.3156 198.23 11.2854C198.282 11.2508 198.343 11.2378 198.421 11.2378H211.023C211.089 11.2378 211.149 11.2551 211.206 11.2854C211.262 11.32 211.31 11.3675 211.345 11.4324C211.384 11.4973 211.41 11.5794 211.427 11.6789C211.445 11.7783 211.453 11.8908 211.453 12.0248Z" fill="#191919"/>
<path d="M235.559 20.1116C235.559 21.5603 235.394 22.8749 235.06 24.0468C234.726 25.2231 234.226 26.222 233.557 27.0523C232.889 27.8826 232.051 28.5183 231.034 28.9681C230.018 29.4178 228.837 29.6427 227.482 29.6427C226.127 29.6427 224.968 29.4308 223.995 29.0027C223.022 28.5789 222.223 27.9691 221.598 27.1777C220.972 26.3864 220.512 25.422 220.217 24.2804C219.922 23.1387 219.774 21.85 219.774 20.4186C219.774 18.9872 219.939 17.7029 220.269 16.5439C220.599 15.385 221.098 14.3947 221.772 13.5774C222.445 12.76 223.283 12.1244 224.295 11.6746C225.306 11.2249 226.492 11 227.856 11C229.219 11 230.327 11.2119 231.295 11.6314C232.263 12.0508 233.062 12.6563 233.696 13.4433C234.33 14.2304 234.799 15.1817 235.108 16.3061C235.412 17.4304 235.564 18.6975 235.564 20.1116H235.559ZM233.727 20.263C233.727 19.1862 233.627 18.1786 233.423 17.2402C233.219 16.3018 232.889 15.4801 232.424 14.7839C231.959 14.0877 231.343 13.5384 230.57 13.1406C229.801 12.7428 228.846 12.5438 227.708 12.5438C226.57 12.5438 225.628 12.7514 224.855 13.1665C224.077 13.5817 223.448 14.1439 222.966 14.8444C222.484 15.545 222.132 16.3666 221.924 17.3007C221.715 18.2348 221.607 19.2251 221.607 20.263C221.607 21.3657 221.702 22.3949 221.897 23.342C222.089 24.2933 222.419 25.1193 222.879 25.8199C223.339 26.5204 223.956 27.0696 224.725 27.4675C225.493 27.8653 226.457 28.0643 227.612 28.0643C228.768 28.0643 229.723 27.8524 230.5 27.4242C231.282 27.0004 231.912 26.4296 232.389 25.7118C232.867 24.9939 233.21 24.1679 233.418 23.2252C233.627 22.2868 233.727 21.2965 233.727 20.2586V20.263Z" fill="#191919"/>
<path d="M252.869 28.5745C252.869 28.7431 252.843 28.8815 252.791 28.994C252.739 29.1064 252.674 29.1972 252.596 29.2664C252.517 29.3356 252.426 29.3875 252.326 29.4134C252.226 29.4394 252.135 29.4567 252.053 29.4567H251.701C251.514 29.4567 251.341 29.4351 251.189 29.3875C251.032 29.3399 250.885 29.2577 250.737 29.141C250.589 29.0242 250.446 28.8685 250.298 28.6696C250.151 28.475 249.99 28.2199 249.812 27.9128L243.385 16.5698C243.064 16.0163 242.742 15.4498 242.421 14.866C242.095 14.2822 241.787 13.7114 241.496 13.1622H241.483C241.491 13.8454 241.496 14.546 241.496 15.2595V29.1194C241.496 29.1756 241.483 29.2275 241.452 29.275C241.422 29.3226 241.379 29.3572 241.313 29.3875C241.248 29.4134 241.161 29.4394 241.053 29.4567C240.944 29.474 240.805 29.4826 240.636 29.4826C240.475 29.4826 240.341 29.474 240.228 29.4567C240.115 29.4394 240.024 29.4134 239.959 29.3875C239.893 29.3615 239.846 29.3226 239.82 29.275C239.793 29.2275 239.776 29.1756 239.776 29.1194V12.1243C239.776 11.787 239.867 11.5578 240.045 11.4281C240.223 11.3027 240.397 11.2378 240.566 11.2378H241.27C241.496 11.2378 241.683 11.2551 241.835 11.294C241.987 11.3329 242.121 11.3935 242.243 11.4843C242.364 11.5751 242.486 11.7005 242.603 11.8648C242.72 12.0292 242.851 12.2367 242.99 12.4876L247.91 21.1754C248.218 21.7202 248.514 22.2392 248.791 22.7408C249.069 23.2424 249.339 23.7311 249.604 24.2154C249.868 24.6955 250.129 25.1711 250.385 25.6382C250.646 26.1052 250.898 26.5766 251.154 27.0566H251.167C251.158 26.2696 251.154 25.4522 251.154 24.6003V11.5751C251.154 11.5189 251.167 11.467 251.197 11.4194C251.228 11.3718 251.271 11.3329 251.336 11.2983C251.401 11.2637 251.488 11.2421 251.597 11.2291C251.705 11.2162 251.844 11.2075 252.014 11.2075C252.166 11.2075 252.296 11.2162 252.409 11.2291C252.522 11.2421 252.613 11.2681 252.678 11.2983C252.743 11.3329 252.791 11.3718 252.826 11.4194C252.86 11.467 252.874 11.5189 252.874 11.5751V28.5745H252.869Z" fill="#191919"/>
<path d="M138.011 20.3062C138.011 25.2058 142.015 29.193 146.935 29.193C151.855 29.193 155.859 25.2058 155.859 20.3062C155.859 20.1808 155.859 20.0554 155.85 19.93H147.356V21.6598H154.013L153.87 22.1917C153.023 25.2966 150.17 27.4675 146.935 27.4675C142.97 27.4675 139.748 24.2588 139.748 20.3106C139.748 16.3623 142.97 13.1536 146.935 13.1536C148.607 13.1536 150.209 13.7288 151.495 14.7796L152.728 13.5515C151.112 12.1763 149.071 11.4238 146.935 11.4238C142.015 11.4238 138.011 15.411 138.011 20.3106V20.3062Z" fill="#191919"/>
</g>
<defs>
<clipPath id="clip0_10_2522">
<rect width="346" height="78" fill="white" transform="translate(34 11)"/>
</clipPath>
</defs>
</svg>
