<svg width="106" height="77" viewBox="0 0 106 77" fill="none" xmlns="http://www.w3.org/2000/svg">
<path d="M9.86255 0C4.46216 0 0.0444341 4.3112 0.0187988 9.59158C0.0187988 9.59158 0.0187988 9.59994 0.0187988 9.60829C0.0187988 9.61665 0.0187988 9.61665 0.0187988 9.625V67.375C0.0187988 72.6637 4.45361 77 9.86255 77H95.175C100.584 77 105.019 72.6637 105.019 67.375V9.625C105.019 9.61665 105.019 9.61665 105.019 9.60829C105.019 9.59994 105.019 9.59158 105.019 9.59158C104.993 4.3112 100.575 0 95.175 0H9.86255ZM15.5535 4.27778H89.4927L52.5188 29.4766L15.5535 4.27778ZM8.27319 4.52843L52.5188 34.6901L96.7729 4.52843C99.0117 5.18848 100.627 7.17698 100.644 9.59993C100.635 10.0511 100.165 10.9535 99.4817 11.6803C98.7895 12.4156 98.1145 12.8751 98.1145 12.8751L98.1059 12.8918L52.5188 44.4404L6.93164 12.8918L6.9231 12.8751C6.9231 12.8751 6.24805 12.4156 5.55591 11.6803C4.87231 10.9535 4.40234 10.0511 4.3938 9.59993C4.41089 7.17698 6.02588 5.18848 8.27319 4.52843ZM4.3938 16.3675L4.41089 16.3842L4.42798 16.3926V16.4009L10.9563 20.9127V72.7222H9.86255C6.82056 72.7222 4.3938 70.3494 4.3938 67.375V16.3675ZM100.644 16.3675V67.375C100.644 70.3494 98.217 72.7222 95.175 72.7222H94.0813V20.9127L100.61 16.4009V16.3926L100.644 16.3675ZM15.3313 23.9372L52.5188 49.6707L89.7063 23.9372V72.7222H15.3313V23.9372Z" fill="#B5FCE7"/>
</svg>
