<svg width="78" height="77" viewBox="0 0 78 77" fill="none" xmlns="http://www.w3.org/2000/svg">
<path d="M9.64323 0C4.60245 0 0.476562 4.12457 0.476562 9.16375V67.8117C0.476562 72.8509 4.60245 76.9755 9.64323 76.9755H40.502C40.6999 77.0082 40.9019 77.0082 41.0999 76.9755H51.502C51.6999 77.0082 51.9019 77.0082 52.0999 76.9755H68.3099C73.3507 76.9755 77.4766 72.8509 77.4766 67.8117V9.16375C77.4766 4.12457 73.3507 0 68.3099 0H9.64323ZM9.64323 3.6655H68.3099C71.3688 3.6655 73.8099 6.10583 73.8099 9.16375V67.8117C73.8099 70.8696 71.3688 73.31 68.3099 73.31H53.6432V47.6515H60.6471L63.2145 34.8222H53.6432V31.1567C53.6432 30.135 53.7405 30.0551 54.0837 29.8323C54.4268 29.6095 55.4872 29.324 57.3099 29.324H62.8099V19.004L61.7643 18.5065C61.7643 18.5065 57.5531 16.4947 51.8099 16.4947C47.6849 16.4947 44.2961 18.1377 42.1276 20.8475C39.9591 23.5573 38.9766 27.1858 38.9766 31.1567V34.8222H33.4766V47.6515H38.9766V73.31H9.64323C6.58434 73.31 4.14323 70.8696 4.14323 67.8117V9.16375C4.14323 6.10583 6.58434 3.6655 9.64323 3.6655ZM51.8099 20.1602C55.6215 20.1602 58.0201 21.0005 59.1432 21.4453V25.6585H57.3099C55.2001 25.6585 53.5093 25.833 52.0856 26.7574C50.6619 27.6819 49.9766 29.4367 49.9766 31.1567V38.4877H58.7386L57.6393 43.986H49.9766V73.31H42.6432V43.986H37.1432V38.4877H42.6432V31.1567C42.6432 27.7967 43.4941 25.0105 44.9922 23.1385C46.4903 21.2664 48.6016 20.1602 51.8099 20.1602Z" fill="#B5FCE7"/>
</svg>
