<svg width="78" height="77" viewBox="0 0 78 77" fill="none" xmlns="http://www.w3.org/2000/svg">
<path d="M23.208 0C10.6649 0 0.458008 10.2068 0.458008 22.75V54.25C0.458008 66.7931 10.6649 77 23.208 77H54.708C67.2512 77 77.458 66.7931 77.458 54.25V22.75C77.458 10.2068 67.2512 0 54.708 0H23.208ZM23.208 3.5H54.708C65.3594 3.5 73.958 12.0987 73.958 22.75V54.25C73.958 64.9013 65.3594 73.5 54.708 73.5H23.208C12.5567 73.5 3.95801 64.9013 3.95801 54.25V22.75C3.95801 12.0987 12.5567 3.5 23.208 3.5ZM59.958 14C59.0297 14 58.1395 14.3687 57.4831 15.0251C56.8268 15.6815 56.458 16.5717 56.458 17.5C56.458 18.4283 56.8268 19.3185 57.4831 19.9749C58.1395 20.6313 59.0297 21 59.958 21C60.8863 21 61.7765 20.6313 62.4329 19.9749C63.0893 19.3185 63.458 18.4283 63.458 17.5C63.458 16.5717 63.0893 15.6815 62.4329 15.0251C61.7765 14.3687 60.8863 14 59.958 14ZM38.958 19.25C28.3473 19.25 19.708 27.8892 19.708 38.5C19.708 49.1108 28.3473 57.75 38.958 57.75C49.5688 57.75 58.208 49.1108 58.208 38.5C58.208 27.8892 49.5688 19.25 38.958 19.25ZM38.958 22.75C47.6772 22.75 54.708 29.7808 54.708 38.5C54.708 47.2192 47.6772 54.25 38.958 54.25C30.2388 54.25 23.208 47.2192 23.208 38.5C23.208 29.7808 30.2388 22.75 38.958 22.75Z" fill="#B5FCE7"/>
</svg>
