<svg width="220" height="123" viewBox="0 0 220 123" fill="none" xmlns="http://www.w3.org/2000/svg">
<path d="M72.8508 85.4C73.4588 86.008 73.7628 86.792 73.7628 87.752C73.7628 88.552 73.5868 89.368 73.2348 90.2L60.9468 119L60.4188 119.24L48.3228 85.4H52.4028L62.4348 113.816L72.6588 90.2C73.0108 89.4 73.1868 88.568 73.1868 87.704C73.1868 86.84 72.9468 86.168 72.4668 85.688L72.8508 85.4ZM82.0113 119C80.6993 119 79.6913 118.712 78.9873 118.136C78.3153 117.56 77.9633 116.984 77.9313 116.408L77.8833 115.592V95H81.2433V115.592C81.2433 116.52 81.4193 117.24 81.7713 117.752C82.1553 118.232 82.5233 118.488 82.8753 118.52L83.4513 118.616H84.9393V119H82.0113ZM78.1713 89.624C77.7873 89.24 77.5953 88.76 77.5953 88.184C77.5953 87.608 77.7873 87.128 78.1713 86.744C78.5553 86.328 79.0353 86.12 79.6113 86.12C80.1873 86.12 80.6673 86.328 81.0513 86.744C81.4673 87.128 81.6753 87.608 81.6753 88.184C81.6753 88.76 81.4673 89.24 81.0513 89.624C80.6673 90.008 80.1873 90.2 79.6113 90.2C79.0353 90.2 78.5553 90.008 78.1713 89.624ZM97.0177 97.064V96.056C95.5777 96.632 94.2657 97.8 93.0817 99.56C91.8977 101.288 91.2737 102.92 91.2097 104.456V119H87.8497V95H91.2097V102.632C91.7217 100.776 92.6977 99.032 94.1377 97.4C95.5777 95.736 97.2097 94.872 99.0337 94.808H99.2257C99.8657 94.808 100.394 95.032 100.81 95.48C101.258 95.896 101.482 96.424 101.482 97.064C101.482 97.704 101.258 98.232 100.81 98.648C100.394 99.064 99.8657 99.272 99.2257 99.272C98.5857 99.272 98.0577 99.064 97.6417 98.648C97.2257 98.232 97.0177 97.704 97.0177 97.064ZM109.996 119C108.684 119 107.676 118.712 106.972 118.136C106.3 117.56 105.948 116.984 105.916 116.408L105.868 115.592V95H109.228V115.592C109.228 116.52 109.404 117.24 109.756 117.752C110.14 118.232 110.508 118.488 110.86 118.52L111.436 118.616H112.924V119H109.996ZM106.156 89.624C105.772 89.24 105.58 88.76 105.58 88.184C105.58 87.608 105.772 87.128 106.156 86.744C106.54 86.328 107.02 86.12 107.596 86.12C108.172 86.12 108.652 86.328 109.036 86.744C109.452 87.128 109.66 87.608 109.66 88.184C109.66 88.76 109.452 89.24 109.036 89.624C108.652 90.008 108.172 90.2 107.596 90.2C107.02 90.2 106.54 90.008 106.156 89.624ZM115.834 107.864C115.834 103.704 116.842 100.488 118.858 98.216C120.874 95.944 123.898 94.808 127.93 94.808C129.818 94.808 131.722 95.288 133.642 96.248V83.048H137.002V115.592C137.002 116.52 137.178 117.24 137.53 117.752C137.914 118.232 138.298 118.488 138.682 118.52L139.21 118.616H140.698V119H137.77C136.458 119 135.45 118.712 134.746 118.136C134.074 117.56 133.722 116.984 133.69 116.408L133.642 115.592V114.824C133.034 115.944 132.026 116.936 130.618 117.8C129.21 118.664 127.546 119.096 125.626 119.096C119.098 118.936 115.834 115.192 115.834 107.864ZM125.674 118.712C127.818 118.712 129.658 118.136 131.194 116.984C132.73 115.832 133.546 114.696 133.642 113.576V96.68C131.37 95.688 129.418 95.192 127.786 95.192C124.938 95.192 122.794 96.312 121.354 98.552C119.914 100.76 119.194 103.864 119.194 107.864C119.194 115.096 121.354 118.712 125.674 118.712ZM148.48 119C147.168 119 146.16 118.712 145.456 118.136C144.784 117.56 144.432 116.984 144.4 116.408L144.352 115.592V95H147.712V115.592C147.712 116.52 147.888 117.24 148.24 117.752C148.624 118.232 148.992 118.488 149.344 118.52L149.92 118.616H151.408V119H148.48ZM144.64 89.624C144.256 89.24 144.064 88.76 144.064 88.184C144.064 87.608 144.256 87.128 144.64 86.744C145.024 86.328 145.504 86.12 146.08 86.12C146.656 86.12 147.136 86.328 147.52 86.744C147.936 87.128 148.144 87.608 148.144 88.184C148.144 88.76 147.936 89.24 147.52 89.624C147.136 90.008 146.656 90.2 146.08 90.2C145.504 90.2 145.024 90.008 144.64 89.624ZM168.803 96.68C168.291 96.264 167.459 95.912 166.307 95.624C165.187 95.336 164.339 95.192 163.763 95.192C163.187 95.192 162.851 95.192 162.755 95.192C161.027 95.224 159.779 95.672 159.011 96.536C158.243 97.368 157.859 98.312 157.859 99.368C157.859 100.424 158.195 101.32 158.867 102.056C159.539 102.76 160.371 103.32 161.363 103.736C162.387 104.12 163.475 104.568 164.627 105.08C165.811 105.592 166.899 106.12 167.891 106.664C168.915 107.176 169.763 107.944 170.435 108.968C171.107 109.96 171.443 111.208 171.443 112.712C171.443 114.216 170.915 115.496 169.859 116.552C168.803 117.608 167.619 118.312 166.307 118.664C165.027 119.016 163.635 119.192 162.131 119.192C158.867 119.192 156.419 118.472 154.787 117.032L155.075 116.744C155.715 117.352 156.659 117.848 157.907 118.232C159.187 118.616 160.419 118.808 161.603 118.808C163.491 118.808 165.043 118.296 166.259 117.272C167.507 116.216 168.131 114.92 168.131 113.384C168.131 111.816 167.667 110.568 166.739 109.64C165.811 108.68 164.675 107.944 163.331 107.432C162.019 106.888 160.691 106.36 159.347 105.848C158.003 105.304 156.867 104.568 155.939 103.64C155.011 102.68 154.547 101.576 154.547 100.328C154.547 99.08 154.835 98.072 155.411 97.304C155.987 96.504 156.755 95.944 157.715 95.624C159.347 95.08 160.979 94.808 162.611 94.808C165.363 94.808 167.507 95.32 169.043 96.344L168.803 96.68Z" fill="white"/>
<path d="M179.156 6.32521C169.124 3.21541 157.688 1.07534 146.085 0.0721747C143.376 -0.161896 134.615 0.205929 131.204 0.70751C122.731 1.92802 115.666 4.88066 110.252 9.36813C109.854 9.69918 109.282 9.69918 108.884 9.36813C103.47 4.88066 96.4048 1.92802 87.9315 0.70751C84.5241 0.205929 75.7631 -0.161896 73.0546 0.0721747C61.4514 1.07534 50.0153 3.21541 39.9837 6.32521L39.85 6.36534C38.9605 6.63954 38.8334 7.84667 39.6493 8.29809C44.8992 11.2741 51.0519 16.7581 54.6633 21.7739C57.4053 25.5859 59.6791 30.3008 61.351 35.651C64.9959 47.2542 71.4161 56.0151 80.9796 62.3016C87.567 66.6152 94.8901 68.889 103.651 69.3237C107.463 69.4909 108.165 69.4575 108.165 69.0562C108.165 68.0531 106.393 62.4688 104.688 58.0549C98.1336 41.3355 87.5001 27.7594 75.0609 20.2691C73.5227 19.3329 72.4527 18.5972 72.6533 18.5972C73.3221 18.5972 78.9732 21.2054 81.8155 22.8105C93.586 29.4648 102.447 38.627 108.533 50.364L109.339 51.9055C109.406 52.0326 109.446 52.1764 109.456 52.3201L109.473 52.5375L109.573 52.3469L109.673 52.5375L109.69 52.3201C109.7 52.1764 109.74 52.0326 109.807 51.9055L110.613 50.364C116.699 38.627 125.56 29.4648 137.33 22.8105C140.173 21.2054 145.824 18.5972 146.493 18.5972C146.693 18.5972 145.623 19.3329 144.085 20.2691C131.646 27.7594 121.012 41.3355 114.458 58.0549C112.753 62.4688 110.981 68.0531 110.981 69.0562C110.981 69.4575 111.683 69.4909 115.495 69.3237C124.256 68.889 131.579 66.6152 138.166 62.3016C147.73 56.0151 154.15 47.2542 157.795 35.651C159.467 30.3008 161.741 25.5859 164.483 21.7739C168.094 16.7581 174.247 11.2741 179.497 8.29809C180.313 7.84667 180.186 6.63954 179.296 6.36534L179.162 6.32521H179.156Z" fill="url(#paint0_linear_10_2534)"/>
<defs>
<linearGradient id="paint0_linear_10_2534" x1="109.57" y1="-0.00139044" x2="109.57" y2="69.4173" gradientUnits="userSpaceOnUse">
<stop stop-color="white"/>
<stop offset="0.325" stop-color="#5DF0C5"/>
<stop offset="1"/>
</linearGradient>
</defs>
</svg>
